<?xml version="1.0" standalone="no"?>
<!DOCTYPE svg PUBLIC "-//W3C//DTD SVG 20010904//EN"
 "http://www.w3.org/TR/2001/REC-SVG-20010904/DTD/svg10.dtd">
<svg version="1.0" xmlns="http://www.w3.org/2000/svg"
 width="225.000000pt" height="225.000000pt" viewBox="0 0 225.000000 225.000000"
 preserveAspectRatio="xMidYMid meet">

<g transform="translate(0.000000,225.000000) scale(0.100000,-0.100000)"
fill="#000000" stroke="none">
<path d="M1046 1919 c-125 -20 -240 -112 -299 -237 -30 -62 -32 -75 -32 -172
0 -94 3 -111 27 -164 20 -41 32 -57 42 -53 8 3 33 11 56 17 l40 11 -25 43
c-116 199 37 456 271 456 65 0 151 -37 205 -87 107 -100 128 -272 48 -385
l-20 -27 28 -7 c15 -3 40 -10 56 -14 26 -9 29 -6 55 43 25 48 27 61 27 167 0
110 -2 119 -32 180 -59 120 -170 205 -302 230 -60 11 -75 11 -145 -1z m43 -36
c10 -17 10 -17 11 0 0 9 5 17 10 17 6 0 10 -9 10 -19 0 -11 6 -22 13 -25 6 -3
-5 -5 -25 -3 -21 2 -40 -2 -42 -8 -2 -5 -5 5 -5 23 -1 35 12 42 28 15z m99
-13 l11 25 1 -25 1 -25 10 25 c8 19 12 21 18 11 5 -8 14 -10 21 -6 9 5 10 1 5
-16 -7 -24 -7 -24 9 -4 17 20 17 19 10 -5 -6 -24 -5 -24 8 -6 19 25 41 11 35
-21 -3 -17 -1 -21 6 -14 15 15 37 14 37 -1 0 -22 -19 -44 -27 -32 -5 6 -29 21
-55 34 -27 13 -48 27 -48 30 0 4 -16 6 -35 3 -34 -3 -35 -2 -34 29 l1 33 8
-30 7 -30 11 25z m-142 -5 c1 -14 -2 -25 -7 -25 -5 0 -9 7 -9 15 0 9 -9 15
-22 15 -21 0 -21 -1 -3 -13 10 -8 15 -19 11 -25 -10 -17 -26 -15 -26 2 0 8 -4
17 -9 20 -5 4 -7 -3 -4 -15 6 -23 -12 -40 -34 -32 -28 11 -13 42 30 62 57 27
72 26 73 -4z m-136 -41 c-11 -13 -10 -16 9 -21 23 -6 23 -6 -6 -29 -26 -20
-29 -21 -45 -7 -10 9 -18 11 -18 5 0 -6 5 -14 10 -17 6 -3 10 -11 10 -18 0 -8
-3 -8 -12 1 -7 7 -19 12 -27 12 -14 -1 -13 -3 2 -14 21 -17 22 -26 1 -26 -13
0 -14 -3 -5 -14 7 -9 8 -17 3 -20 -6 -3 -12 1 -16 9 -6 17 -26 20 -26 4 0 -5
5 -7 10 -4 6 3 10 4 10 1 0 -2 3 -11 6 -20 7 -19 -6 -21 -30 -3 -16 12 -17 16
-5 35 8 12 19 22 26 22 7 0 10 6 8 13 -3 6 9 27 25 45 30 31 48 42 35 22 -3
-5 -1 -10 5 -10 6 0 8 -4 5 -10 -3 -6 1 -7 10 -4 12 5 13 10 4 20 -13 16 -5
44 12 44 8 0 8 -5 -1 -16z m500 -65 c0 -25 -26 -35 -46 -18 -14 11 -13 15 7
30 27 20 39 16 39 -12z m31 -26 c12 -15 12 -16 -3 -10 -13 4 -15 2 -11 -10 4
-11 2 -14 -5 -9 -7 4 -12 2 -12 -5 0 -10 -3 -10 -12 -1 -9 9 -7 16 7 32 22 24
19 24 36 3z m33 -58 c3 -8 1 -15 -3 -15 -5 0 -11 5 -13 12 -2 6 -9 8 -16 4
-18 -11 -4 -33 21 -32 16 1 22 -5 22 -19 0 -11 5 -23 10 -28 6 -4 0 -10 -12
-13 -29 -8 -30 -24 -3 -24 25 0 36 -25 20 -45 -9 -10 -9 -15 -1 -15 6 0 11 -4
11 -10 0 -5 -8 -10 -17 -10 -15 0 -14 -2 3 -15 18 -14 18 -14 -11 -16 -25 -1
-26 -2 -7 -6 29 -6 26 -39 -3 -36 -20 1 -20 1 0 -14 19 -15 19 -15 -8 -10 -26
4 -27 3 -12 -13 8 -9 15 -20 15 -23 0 -11 -48 -8 -55 3 -3 6 -1 10 4 10 6 0
11 9 11 20 0 11 4 20 9 20 5 0 7 8 4 19 -2 10 2 25 10 32 10 10 12 21 6 36 -6
15 -5 23 2 23 8 0 8 4 1 13 -5 6 -9 26 -8 42 1 17 -5 38 -13 48 -8 9 -11 17
-6 17 4 0 2 7 -5 15 -7 8 -10 22 -6 30 7 19 42 19 50 0z m-684 -34 c15 -29 13
-33 -12 -25 -30 9 -30 8 -22 28 8 21 21 20 34 -3z m4 -57 c-14 -6 -8 -97 11
-172 12 -48 12 -53 -5 -62 -21 -11 -37 -13 -27 -3 4 3 0 15 -10 25 -9 10 -13
21 -9 25 4 4 11 1 16 -7 8 -12 11 -13 22 -2 7 8 9 13 3 12 -22 -5 -29 1 -15
11 12 8 10 9 -7 4 -14 -4 -23 -2 -23 4 0 6 7 11 15 11 8 0 15 5 15 10 0 6 -9
10 -19 10 -10 0 -22 7 -25 16 -4 12 -2 15 9 10 8 -3 15 0 15 7 0 8 4 6 10 -3
8 -12 10 -10 10 9 0 19 -3 21 -15 11 -19 -16 -35 -4 -33 25 2 18 8 25 23 25
18 1 19 1 3 11 -28 16 -21 29 15 28 17 0 27 -3 21 -5z"/>
<path d="M1290 1824 c0 -8 5 -12 10 -9 6 3 10 10 10 16 0 5 -4 9 -10 9 -5 0
-10 -7 -10 -16z"/>
<path d="M945 1841 c-3 -5 -1 -12 5 -16 5 -3 10 1 10 9 0 18 -6 21 -15 7z"/>
<path d="M1387 1763 c-4 -3 -7 -11 -7 -17 0 -6 5 -5 12 2 6 6 9 14 7 17 -3 3
-9 2 -12 -2z"/>
<path d="M1455 1630 c-3 -5 1 -10 9 -10 9 0 16 5 16 10 0 6 -4 10 -9 10 -6 0
-13 -4 -16 -10z"/>
<path d="M1470 1540 c0 -5 5 -10 10 -10 6 0 10 5 10 10 0 6 -4 10 -10 10 -5 0
-10 -4 -10 -10z"/>
<path d="M1105 1800 c3 -5 8 -10 11 -10 2 0 4 5 4 10 0 6 -5 10 -11 10 -5 0
-7 -4 -4 -10z"/>
<path d="M1053 1793 c9 -2 23 -2 30 0 6 3 -1 5 -18 5 -16 0 -22 -2 -12 -5z"/>
<path d="M1161 1784 c10 -12 9 -20 -1 -39 -17 -31 -28 -32 -40 -1 -13 35 -32
44 -24 12 6 -25 -8 -37 -20 -17 -6 9 -56 3 -56 -8 0 -3 4 -12 9 -20 7 -11 11
-9 20 8 l12 22 30 -21 c35 -26 40 -54 7 -46 -13 3 -17 3 -10 0 17 -8 5 -24
-17 -24 -26 0 -47 -28 -33 -42 8 -8 15 -8 25 0 8 7 16 10 19 7 3 -3 10 1 17 8
10 12 18 12 56 -2 24 -8 46 -22 50 -31 3 -8 12 -27 20 -41 15 -27 10 -99 -7
-99 -5 0 -6 -4 -3 -10 9 -14 -8 -12 -24 3 -11 10 -12 9 -6 -2 6 -11 4 -13 -8
-8 -10 3 -17 4 -17 1 0 -3 14 -10 30 -15 35 -13 36 -17 11 -63 l-20 -34 33 9
c17 5 56 8 86 6 55 -2 55 -2 74 38 19 37 25 99 12 112 -3 4 -17 1 -30 -5 -48
-22 -85 44 -63 113 8 27 7 37 -6 50 -9 8 -14 22 -10 31 4 10 -2 17 -16 21 -11
3 -21 12 -21 20 0 10 6 12 19 8 11 -3 23 0 27 6 4 8 3 9 -5 5 -6 -4 -25 6 -43
24 -33 33 -103 55 -77 24z"/>
<path d="M905 1709 c-54 -65 -70 -108 -70 -194 0 -67 4 -89 26 -130 l25 -50
72 0 c40 0 72 1 72 3 0 1 -9 11 -20 22 -26 26 -36 68 -21 92 6 10 8 18 3 18
-4 0 -30 21 -57 46 -46 44 -49 49 -49 98 0 42 6 60 28 89 35 45 28 49 -9 6z"/>
<path d="M1310 1659 c0 -18 2 -19 15 -9 12 10 18 10 30 0 12 -10 15 -9 15 7 0
14 -8 19 -30 21 -25 2 -30 -1 -30 -19z"/>
<path d="M1013 1574 c6 -35 6 -35 -24 -29 -28 6 -41 -7 -19 -20 6 -4 8 -11 5
-16 -8 -12 20 -23 35 -14 8 5 8 10 0 20 -8 10 -6 15 10 20 15 5 18 10 11 19
-6 7 -8 22 -4 34 3 14 1 22 -7 22 -9 0 -11 -11 -7 -36z"/>
<path d="M930 1581 c-15 -29 -13 -32 17 -25 15 4 33 7 39 7 9 0 9 5 1 19 -15
24 -44 23 -57 -1z"/>
<path d="M1140 1295 c-13 -14 -21 -27 -18 -30 2 -3 14 9 27 25 26 37 23 39 -9
5z"/>
<path d="M1366 1063 c-3 -3 -6 -15 -6 -25 0 -13 -7 -18 -25 -18 -29 0 -40 -19
-31 -55 6 -22 11 -25 46 -23 l40 1 0 58 c0 54 -9 77 -24 62z m-6 -84 c0 -20
-24 -26 -35 -9 -8 13 14 42 26 34 5 -3 9 -14 9 -25z"/>
<path d="M562 1044 c-27 -19 -29 -64 -4 -87 20 -18 72 -23 72 -7 0 6 -11 10
-25 10 -14 0 -29 8 -35 20 -15 28 4 60 35 60 14 0 25 5 25 10 0 15 -43 12 -68
-6z"/>
<path d="M1040 1050 c0 -5 5 -10 10 -10 6 0 10 5 10 10 0 6 -4 10 -10 10 -5 0
-10 -4 -10 -10z"/>
<path d="M1158 1033 c-8 -35 6 -88 25 -91 9 -2 17 1 17 7 0 6 -4 11 -10 11 -5
0 -10 11 -10 25 0 14 5 25 10 25 6 0 5 8 -2 20 -16 25 -24 25 -30 3z"/>
<path d="M663 1019 c-28 -10 -33 -63 -7 -73 46 -18 85 14 65 53 -13 24 -31 30
-58 20z m33 -24 c4 -8 3 -23 0 -32 -6 -15 -8 -15 -23 -1 -16 17 -12 48 7 48 6
0 13 -7 16 -15z"/>
<path d="M1097 1018 c-23 -12 -21 -35 3 -43 11 -4 18 -10 15 -15 -3 -5 -12 -7
-20 -3 -8 3 -15 0 -15 -6 0 -6 11 -11 25 -11 32 0 45 28 22 45 -22 16 -21 23
1 27 15 3 15 4 1 10 -8 3 -23 2 -32 -4z"/>
<path d="M1229 1019 c-11 -7 -9 -9 9 -9 12 0 22 -4 22 -9 0 -5 -10 -11 -22
-13 -15 -2 -23 -10 -23 -23 0 -16 8 -21 38 -23 35 -3 37 -1 37 25 0 45 -31 71
-61 52z m31 -47 c0 -13 -12 -22 -22 -16 -10 6 -1 24 13 24 5 0 9 -4 9 -8z"/>
<path d="M1428 1022 c-23 -5 -34 -48 -18 -67 30 -36 87 -6 76 39 -6 24 -28 35
-58 28z m35 -24 c6 -18 -12 -50 -24 -43 -15 10 -11 55 5 55 8 0 16 -6 19 -12z"/>
<path d="M1588 1023 c-23 -6 -34 -49 -18 -68 14 -17 60 -20 60 -4 0 6 -7 9
-15 6 -8 -4 -17 -2 -20 3 -5 9 15 15 38 11 4 0 7 8 7 19 0 22 -26 38 -52 33z
m27 -23 c3 -5 -3 -10 -15 -10 -12 0 -18 5 -15 10 3 6 10 10 15 10 5 0 12 -4
15 -10z"/>
<path d="M740 979 c0 -21 5 -39 10 -39 6 0 10 11 10 24 0 25 22 51 33 39 4 -3
7 -19 7 -35 0 -15 5 -28 11 -28 6 0 9 16 7 38 -3 35 -5 37 -40 39 -38 1 -38 1
-38 -38z"/>
<path d="M842 1003 c-6 -11 -6 -28 -1 -42 7 -18 15 -22 34 -19 21 4 25 1 25
-18 0 -13 5 -24 10 -24 6 0 10 27 10 60 l0 60 -35 0 c-22 0 -37 -6 -43 -17z
m56 -21 c3 -17 -2 -22 -17 -22 -14 0 -21 6 -21 18 0 38 33 41 38 4z"/>
<path d="M942 983 c3 -36 5 -38 41 -40 37 -1 37 -1 37 38 0 44 -17 53 -22 12
-2 -17 -9 -28 -18 -28 -10 0 -14 9 -13 28 1 18 -3 27 -13 27 -11 0 -14 -9 -12
-37z"/>
<path d="M1040 980 c0 -46 16 -54 22 -12 5 33 0 52 -13 52 -5 0 -9 -18 -9 -40z"/>
<path d="M1500 979 c0 -28 4 -39 15 -39 10 0 15 10 15 30 0 17 5 30 10 30 6 0
10 4 10 9 0 5 -11 9 -25 9 -22 0 -25 -5 -25 -39z"/>
<path d="M1654 1008 c-4 -6 2 -19 14 -28 22 -18 20 -32 -4 -23 -8 3 -14 0 -14
-6 0 -6 11 -11 25 -11 32 0 45 28 22 45 -22 16 -21 22 1 28 11 3 7 5 -10 6
-15 0 -30 -4 -34 -11z"/>
<path d="M620 840 c0 -47 3 -60 15 -60 8 0 15 9 15 19 0 12 9 21 24 25 57 14
36 76 -26 76 -28 0 -28 -1 -28 -60z m58 23 c-5 -25 -28 -28 -28 -4 0 12 6 21
16 21 9 0 14 -7 12 -17z"/>
<path d="M1440 840 c0 -47 3 -60 15 -60 12 0 15 13 15 60 0 47 -3 60 -15 60
-12 0 -15 -13 -15 -60z"/>
<path d="M913 879 c-7 -9 -10 -31 -6 -57 4 -32 10 -42 24 -42 11 0 19 5 19 10
0 6 -4 10 -10 10 -14 0 -13 33 2 48 8 8 9 12 1 12 -6 0 -13 7 -15 17 -3 14 -5
14 -15 2z"/>
<path d="M1304 878 c-5 -10 -8 -36 -6 -58 3 -31 8 -40 23 -40 10 0 19 5 19 10
0 6 -4 10 -10 10 -14 0 -13 33 2 48 8 8 9 12 1 12 -6 0 -13 8 -15 18 -3 16 -4
16 -14 0z"/>
<path d="M722 848 c-15 -15 -16 -40 0 -56 14 -14 72 -16 63 -2 -3 5 -12 7 -19
4 -8 -3 -17 -1 -21 5 -4 7 4 11 20 11 22 0 26 4 23 23 -3 25 -45 36 -66 15z
m43 -8 c3 -5 -3 -10 -15 -10 -12 0 -18 5 -15 10 3 6 10 10 15 10 5 0 12 -4 15
-10z"/>
<path d="M802 820 c-2 -30 1 -40 12 -40 9 0 16 12 18 33 2 17 8 32 13 32 6 0
11 -15 13 -32 4 -39 32 -46 32 -9 0 44 -10 56 -49 56 -35 0 -36 -1 -39 -40z"/>
<path d="M964 845 c-4 -8 -3 -26 0 -40 5 -20 13 -25 36 -25 17 0 30 5 30 11 0
6 -8 8 -19 4 -11 -3 -22 -1 -26 5 -4 6 6 10 24 10 32 0 36 6 25 34 -8 21 -63
21 -70 1z m51 -5 c3 -5 -3 -10 -15 -10 -12 0 -18 5 -15 10 3 6 10 10 15 10 5
0 12 -4 15 -10z"/>
<path d="M1054 846 c-12 -32 0 -61 29 -64 15 -2 27 1 27 7 0 6 -6 11 -14 11
-26 0 -30 23 -6 42 l22 18 -26 0 c-15 0 -29 -6 -32 -14z"/>
<path d="M1132 848 c-28 -28 -3 -72 39 -66 30 4 47 33 33 56 -14 21 -55 27
-72 10z m48 -28 c0 -25 -18 -36 -26 -16 -8 21 3 49 16 41 5 -3 10 -15 10 -25z"/>
<path d="M1227 853 c-13 -13 -7 -32 13 -38 11 -4 18 -11 14 -16 -3 -6 -12 -8
-20 -5 -8 3 -14 1 -14 -4 0 -6 14 -10 30 -10 23 0 30 4 30 20 0 11 -7 23 -15
26 -20 8 -19 21 3 27 11 3 8 5 -9 6 -14 0 -29 -2 -32 -6z"/>
<path d="M1378 853 c12 -2 22 -8 22 -13 0 -5 -10 -10 -22 -12 -15 -2 -23 -10
-23 -23 0 -16 8 -21 38 -23 34 -3 37 -1 37 22 0 43 -10 56 -44 55 -23 -1 -25
-3 -8 -6z m22 -41 c0 -13 -12 -22 -22 -16 -10 6 -1 24 13 24 5 0 9 -4 9 -8z"/>
<path d="M1490 845 c-21 -26 2 -65 40 -65 16 0 30 5 30 11 0 6 -8 8 -19 4 -11
-3 -22 -1 -26 5 -4 6 4 10 20 10 22 0 26 4 23 23 -4 27 -48 36 -68 12z m50 -5
c0 -5 -7 -10 -15 -10 -8 0 -15 5 -15 10 0 6 7 10 15 10 8 0 15 -4 15 -10z"/>
<path d="M1574 848 c-4 -6 2 -19 14 -29 25 -20 29 -34 7 -26 -8 4 -17 2 -20
-3 -4 -6 7 -10 23 -10 37 0 49 25 22 42 -25 16 -25 25 -2 31 11 3 7 5 -10 6
-15 0 -30 -4 -34 -11z"/>
<path d="M720 474 c0 -20 4 -25 16 -20 9 3 20 6 25 6 5 0 9 9 9 20 0 15 -7 20
-25 20 -20 0 -25 -5 -25 -26z m40 6 c0 -5 -4 -10 -10 -10 -5 0 -10 5 -10 10 0
6 5 10 10 10 6 0 10 -4 10 -10z"/>
<path d="M791 482 c-15 -27 -15 -27 14 -27 29 0 30 4 11 30 -13 18 -14 18 -25
-3z"/>
<path d="M847 493 c-13 -12 -7 -41 9 -47 19 -7 34 0 34 17 0 8 -3 7 -9 -2 -10
-16 -31 -6 -31 14 0 7 10 16 23 18 20 4 20 4 1 6 -11 0 -24 -2 -27 -6z"/>
<path d="M901 473 c0 -25 1 -26 9 -8 12 27 12 35 0 35 -5 0 -10 -12 -9 -27z"/>
<path d="M931 469 c1 -19 3 -26 6 -16 5 18 6 18 24 1 18 -17 19 -16 18 17 -1
19 -3 26 -6 16 -5 -18 -6 -18 -24 -1 -18 17 -19 16 -18 -17z"/>
<path d="M1002 475 c-14 -31 -15 -46 -2 -25 8 12 13 13 30 2 11 -7 20 -10 20
-8 0 12 -24 56 -30 56 -4 0 -12 -11 -18 -25z"/>
<path d="M1081 469 c1 -19 3 -26 6 -16 5 18 6 18 24 1 18 -17 19 -16 18 17 -1
19 -3 26 -6 16 -5 -18 -6 -18 -24 -1 -18 17 -19 16 -18 -17z"/>
<path d="M1150 481 c-13 -26 -14 -52 0 -31 8 12 13 13 30 2 14 -8 20 -9 20 -1
0 8 5 7 15 -1 11 -9 19 -10 26 -3 8 8 6 11 -6 10 -27 -3 -30 22 -3 32 l23 10
-23 0 c-15 1 -26 -7 -31 -21 l-8 -23 -7 23 c-9 27 -22 28 -36 3z"/>
<path d="M1260 468 c0 -17 3 -28 7 -25 9 10 10 57 1 57 -4 0 -8 -14 -8 -32z"/>
<path d="M1287 481 c-7 -27 19 -49 41 -34 27 16 21 48 -9 51 -20 2 -28 -2 -32
-17z m47 1 c8 -13 -11 -35 -23 -28 -16 10 -14 36 3 36 8 0 17 -4 20 -8z"/>
<path d="M1361 469 c1 -19 3 -26 6 -16 5 18 6 18 24 1 18 -17 19 -16 18 17 -1
19 -3 26 -6 16 -5 -18 -6 -18 -24 -1 -18 17 -19 16 -18 -17z"/>
<path d="M1430 481 c-14 -26 -13 -31 5 -25 8 3 20 2 27 -2 20 -13 58 -16 58
-4 0 5 -4 10 -10 10 -5 0 -10 9 -10 20 0 31 -20 24 -21 -7 l-1 -28 -10 28
c-11 32 -23 34 -38 8z"/>
</g>
</svg>
