<?xml version="1.0" encoding="UTF-8"?>
<svg version="1.1" xmlns="http://www.w3.org/2000/svg" width="288" height="289">
<path d="M0 0 C0.66 0 1.32 0 2 0 C0.95203578 12.75342362 -3.06617942 24.32431577 -7.125 36.375 C-7.79144845 38.382453 -8.45682138 40.39026338 -9.12109375 42.3984375 C-10.73503512 47.26983095 -12.36342137 52.13616737 -14 57 C-10.88715241 52.33715914 -7.77619255 47.67357382 -4.703125 42.984375 C1.85669399 33.0232381 8.52287991 23.29739277 16 14 C16.75023437 13.0615625 17.50046875 12.123125 18.2734375 11.15625 C18.84320313 10.4446875 19.41296875 9.733125 20 9 C22.375 9.3125 22.375 9.3125 25 10 C27 13 27 13 26.78515625 15.41796875 C25.97309796 18.0884689 24.95834167 19.97943771 23.4375 22.3125 C14.89346051 36.14277975 4.26300211 54.27335224 5 71 C5.33 71.66 5.66 72.32 6 73 C9.43812051 73.76402678 12.46528079 74 16 74 C15.01 75.98 15.01 75.98 14 78 C12.08458862 78.10841951 10.16740227 78.18578079 8.25 78.25 C7.18265625 78.29640625 6.1153125 78.3428125 5.015625 78.390625 C2 78 2 78 -0.33203125 76.2265625 C-2.96734449 72.70869704 -3.16256195 69.25069389 -3 65 C-1.80369167 57.09158007 0.28082149 49.51011208 3 42 C-2.24076371 48.90961025 -6.97517206 55.9796238 -11.40966797 63.42773438 C-13.86737646 67.47808614 -16.36752981 70.8753587 -20 74 C-22.8125 74.3125 -22.8125 74.3125 -25 74 C-27.49980892 69.69477352 -26.78647586 66.75702397 -25.60546875 62.18359375 C-25.30576172 61.10271484 -25.30576172 61.10271484 -25 60 C-24.66397809 58.66734169 -24.32977281 57.33421842 -24 56 C-24.825 56.70125 -25.65 57.4025 -26.5 58.125 C-35.49057493 65.57719352 -46.22648774 73.7887312 -58 76 C-56.79544608 72.38633823 -55.93678058 72.12830114 -52.75 70.25 C-47.39448558 66.83031643 -44.04932554 63.14797662 -42 57 C-40.61067974 46.74716824 -44.00339958 39.2775621 -50.1328125 31.18359375 C-57.10398131 23.09657779 -65.65644093 15.66856428 -74.91796875 10.3125 C-75.94857422 9.6628125 -75.94857422 9.6628125 -77 9 C-77 8.34 -77 7.68 -77 7 C-72.66752559 8.6246779 -68.60701707 10.69824554 -64.5 12.8125 C-51.84847299 19.2360545 -38.86210301 25.58175183 -24.34375 22.421875 C-14.03800138 18.83443086 -7.07288213 10.86991241 -1.375 1.87109375 C-0.92125 1.25363281 -0.4675 0.63617188 0 0 Z M5 37 C6 39 6 39 6 39 Z M-16 59 C-15 61 -15 61 -15 61 Z " fill="#F8AA0E" transform="translate(114,94)"/>
<path d="M0 0 C0.66 0 1.32 0 2 0 C0.97553333 9.1123614 -0.76031521 17.41326264 -4 26 C-4.99 26 -5.98 26 -7 26 C-7.226875 26.556875 -7.45375 27.11375 -7.6875 27.6875 C-10.24094428 32.18642563 -13.83223585 35.67479546 -18.75 37.4765625 C-30.455402 40.19969421 -39.48576417 37.08940469 -49.38525391 31.06835938 C-52.00123974 29.3375529 -54.04565824 27.35466751 -56.09375 24.99609375 C-58.85852724 22.10100939 -61.97412842 19.71068451 -65.125 17.25 C-65.72393066 16.77780029 -66.32286133 16.30560059 -66.93994141 15.8190918 C-69.54777323 13.78977065 -72.0657403 11.96178297 -74.9296875 10.296875 C-75.61289063 9.86890625 -76.29609375 9.4409375 -77 9 C-77 8.34 -77 7.68 -77 7 C-72.66752559 8.6246779 -68.60701707 10.69824554 -64.5 12.8125 C-51.84847299 19.2360545 -38.86210301 25.58175183 -24.34375 22.421875 C-14.03800138 18.83443086 -7.07288213 10.86991241 -1.375 1.87109375 C-0.92125 1.25363281 -0.4675 0.63617188 0 0 Z " fill="#ECA323" transform="translate(114,94)"/>
<path d="M0 0 C4.75 0.75 4.75 0.75 7 3 C6.75034871 8.281685 4.54017974 12.19777672 2 16.6875 C-0.82624837 21.6913937 -0.82624837 21.6913937 -3 27 C2.6290622 25.63537886 5.70913243 21.4796738 9 17 C10.13825744 14.97271142 11.1359604 12.92315855 12.1171875 10.81640625 C14.66828923 5.567458 18.51763401 2.01305626 24 0 C27.13230805 -0.57143458 29.88457968 -0.71106305 33 0 C36.16364844 2.92637481 37.7654632 5.67267327 38.203125 10.015625 C38.38401123 18.63786851 35.41887217 23.92123952 29.81640625 30.30078125 C26.81387135 33.10960422 24.66245565 33.93977676 20.5625 34.3125 C16.68224334 33.97212661 14.97516528 33.4793044 12 31 C10.1875 27.8125 10.1875 27.8125 9 25 C8.55269531 25.39832031 8.10539062 25.79664063 7.64453125 26.20703125 C0.40144089 32.55438762 0.40144089 32.55438762 -3 34 C-6.8125 33.6875 -6.8125 33.6875 -10 33 C-13.26978585 22.18455449 -4.57037455 9.59621597 0 0 Z M23 8 C18.79772284 12.96429008 16.4932815 18.41265951 17 25 C18.67428236 28.23576125 18.67428236 28.23576125 21.6875 28.6875 C26.76712314 27.63323859 29.08449083 24.117781 32 20 C34.02153247 16.51186554 34.18360265 14.03925831 34 10 C32.02 10.99 32.02 10.99 30 12 C30 12.66 30 13.32 30 14 C29.34 14 28.68 14 28 14 C29.00193437 10.20696275 29.81024227 7.28463659 32 4 C28.06345531 4 25.85447755 5.46030193 23 8 Z " fill="#F8AB0E" transform="translate(172,130)"/>
<path d="M0 0 C1.98 0.99 3.96 1.98 6 3 C5.45939743 6.89233849 4.37781856 8.92865102 2 12 C0.72291256 15.59906461 1.00215685 19.03302561 1.125 22.8125 C1.1549617 32.42021689 1.1549617 32.42021689 -2 37 C-5.89626625 39.52111345 -8.69042873 40.36040642 -13.1875 39.4375 C-16.63946546 38.37174756 -18.71437545 36.85703068 -21 34 C-21.680625 34.639375 -22.36125 35.27875 -23.0625 35.9375 C-26.52815233 38.37083036 -28.7866573 38.92197514 -33 39 C-35 38.0625 -35 38.0625 -36 36 C-36 28.68869345 -32.96761416 22.56820973 -30 16 C-29.52433594 14.93910156 -29.04867187 13.87820312 -28.55859375 12.78515625 C-27.38383977 10.18463247 -26.19806075 7.58985048 -25 5 C-20.25 5.75 -20.25 5.75 -18 8 C-18.25632113 13.35871362 -20.55163413 17.5433095 -23 22.1875 C-23.73083801 23.59679077 -24.46007082 25.00691543 -25.1875 26.41796875 C-25.51105469 27.03438232 -25.83460938 27.6507959 -26.16796875 28.28588867 C-27.12972631 30.17287457 -27.12972631 30.17287457 -28 33 C-19.0960938 28.25125002 -13.85005373 18.97675619 -8.70703125 10.59375 C-6.16605333 6.73285907 -3.16492524 3.35732192 0 0 Z M-8 16 C-8.99 17.98 -9.98 19.96 -11 22 C-10.34 22 -9.68 22 -9 22 C-8.67 23.65 -8.34 25.3 -8 27 C-7.67 27 -7.34 27 -7 27 C-7 23.37 -7 19.74 -7 16 C-7.33 16 -7.66 16 -8 16 Z M-14 28 C-14.66 29.32 -15.32 30.64 -16 32 C-15.01 33.485 -15.01 33.485 -14 35 C-11.5 35.41666667 -11.5 35.41666667 -9 35 C-8.34 34.34 -7.68 33.68 -7 33 C-7.32041397 30.39719432 -7.32041397 30.39719432 -8 28 C-9.98 28 -11.96 28 -14 28 Z " fill="#F8AB0E" transform="translate(160,125)"/>
<path d="M0 0 C3.68754757 0.49831724 5.60490662 1.10067643 8 4 C9.051875 3.319375 10.10375 2.63875 11.1875 1.9375 C13.79647363 0.44288555 14.72900054 -0.01204442 17.8125 0.125 C20 1 20 1 22 3 C21.86398747 10.34467654 18.93592947 16.36900666 16 23 C15.32590481 24.66367602 14.65664957 26.32936133 14 28 C19.76115469 25.11942266 23.52129473 20.57404251 26.6875 15.0625 C27.120625 14.381875 27.55375 13.70125 28 13 C28.99 13 29.98 13 31 13 C29.88361077 21.02941483 23.93456699 28.05766372 17.69921875 33.00390625 C14.98899963 34.59265539 13.03074211 34.61992452 10 34 C7.69033955 32.48677419 7.12891693 31.41695417 6.31640625 28.7890625 C5.91825875 25.27946606 6.66061639 22.91353871 7.75 19.5625 C8.09546875 18.47066406 8.4409375 17.37882812 8.796875 16.25390625 C9.98900775 13.02972904 11.40353876 10.04153391 13 7 C11.74520346 8.05683106 10.49640127 9.12078067 9.25 10.1875 C8.55390625 10.77917969 7.8578125 11.37085938 7.140625 11.98046875 C2.37203586 16.47930194 0.23406657 20.45655916 -1.25 26.8125 C-1.42273438 27.50537109 -1.59546875 28.19824219 -1.7734375 28.91210938 C-2.19380492 30.60525594 -2.59852527 32.30227443 -3 34 C-5.16874252 33.49396008 -6.99967627 33.00016187 -9 32 C-9.43932372 25.07658359 -7.91778947 19.68828603 -5.625 13.1875 C-5.30789062 12.24712891 -4.99078125 11.30675781 -4.6640625 10.33789062 C-3.36122946 6.54067515 -2.23926999 3.35890498 0 0 Z " fill="#F8AB0E" transform="translate(219,130)"/>
<path d="M0 0 C0 4.29 0 8.58 0 13 C5.94 12.505 5.94 12.505 12 12 C11.979375 10.205625 11.95875 8.41125 11.9375 6.5625 C11.9161878 4.70833878 11.92773498 2.85287502 12 1 C13 0 13 0 15.5625 -0.0625 C16.7690625 -0.0315625 16.7690625 -0.0315625 18 0 C18.07420211 4.07502794 18.1286257 8.14979392 18.16479492 12.2253418 C18.17987397 13.61147919 18.2003405 14.99756894 18.22631836 16.38354492 C18.26273716 18.37658146 18.27813018 20.36996723 18.29296875 22.36328125 C18.3086792 23.56251221 18.32438965 24.76174316 18.34057617 25.99731445 C18 29 18 29 16.66918945 30.91479492 C15 32 15 32 12 32 C12 27.71 12 23.42 12 19 C8.04 18.67 4.08 18.34 0 18 C0 22.62 0 27.24 0 32 C-1.98 32 -3.96 32 -6 32 C-6.09893453 27.92503897 -6.17149694 23.85054344 -6.21972656 19.7746582 C-6.23983275 18.38846662 -6.26712245 17.00235975 -6.30175781 15.61645508 C-6.35031225 13.62358094 -6.37083972 11.63008611 -6.390625 9.63671875 C-6.41157227 8.43748779 -6.43251953 7.23825684 -6.45410156 6.00268555 C-6 3 -6 3 -4.10058594 1.08520508 C-2 0 -2 0 0 0 Z " fill="#034D8D" transform="translate(52,172)"/>
<path d="M0 0 C2.89882247 2.06138486 4.59875561 3.66333924 5.63671875 7.12109375 C6.43872944 12.23498986 6.02142697 15.62414026 3 20 C1.09579434 22.11578407 -0.12723737 22.90630381 -2.96484375 23.2109375 C-8.38219895 23.30890052 -8.38219895 23.30890052 -11 22 C-10.91621094 22.66386719 -10.83242187 23.32773438 -10.74609375 24.01171875 C-9.73462214 32.78207381 -9.73462214 32.78207381 -11 37 C-11.99 37 -12.98 37 -14 37 C-14 37.66 -14 38.32 -14 39 C-13.01 39 -12.02 39 -11 39 C-11 39.66 -11 40.32 -11 41 C-12.98 41 -14.96 41 -17 41 C-17 38.03 -17 35.06 -17 32 C-16.01 31.505 -16.01 31.505 -15 31 C-15.33 30.67 -15.66 30.34 -16 30 C-16.15873955 27.78312006 -16.25133837 25.56144702 -16.31640625 23.33984375 C-16.33718735 22.67537735 -16.35796844 22.01091095 -16.37937927 21.3263092 C-16.44493658 19.19681457 -16.50378785 17.06719332 -16.5625 14.9375 C-16.60567939 13.49673153 -16.64929349 12.05597601 -16.69335938 10.61523438 C-16.80062393 7.0769596 -16.90187371 3.53854131 -17 0 C-16.21625 0.165 -15.4325 0.33 -14.625 0.5 C-11.25635913 1.22485946 -11.25635913 1.22485946 -8.25 -0.0625 C-5.05379179 -1.39425342 -3.29125902 -1.00752827 0 0 Z M-9.25 5.5625 C-11.66053174 8.92002635 -11.57804541 10.95368213 -11 15 C-9.47722993 17.60720318 -9.47722993 17.60720318 -7 19 C-4.3566226 19.08805146 -4.3566226 19.08805146 -2 18 C0.47342266 14.28986601 0.38503486 12.38939738 0 8 C-1.08786184 5.51864773 -1.08786184 5.51864773 -3 4 C-6.90897434 3.61973613 -6.90897434 3.61973613 -9.25 5.5625 Z " fill="#034D8E" transform="translate(133,181)"/>
<path d="M0 0 C1 1 1 1 1.0625 3.5625 C1.041875 4.366875 1.02125 5.17125 1 6 C2.98 6 4.96 6 7 6 C9.42857143 12.28571429 9.42857143 12.28571429 8 16 C6.35 16.33 4.7 16.66 3 17 C3 18.98 3 20.96 3 23 C-0.25303044 24.62651522 -3.39225602 24.11453156 -7 24 C-8 23 -8 23 -8.0625 20.4375 C-8.041875 19.633125 -8.02125 18.82875 -8 18 C-8.78375 18.185625 -9.5675 18.37125 -10.375 18.5625 C-13 19 -13 19 -15 18 C-15.4140625 15.93359375 -15.4140625 15.93359375 -15.625 13.4375 C-15.69976562 12.61121094 -15.77453125 11.78492188 -15.8515625 10.93359375 C-15.90054688 10.29550781 -15.94953125 9.65742188 -16 9 C-14.02 8.34 -12.04 7.68 -10 7 C-10 5.35 -10 3.7 -10 2 C-6.50971852 0.40444275 -3.84597567 -0.32049797 0 0 Z " fill="#217FBB" transform="translate(50,131)"/>
<path d="M0 0 C3.49890004 2.11391877 4.70578686 3.11736059 6 7 C6.5024763 11.43854063 6.30188061 13.49057646 4 17.375 C0.78795669 20.1855379 -0.84800198 21.00650295 -5.00390625 21.2421875 C-8.40220051 20.82987 -10.45676095 19.17991919 -13 17 C-15.50304378 13.24543433 -15.45280074 11.45254066 -15 7 C-11.11556086 0.00800955 -7.68685692 -0.98243076 0 0 Z " fill="#F7A90E" transform="translate(86,85)"/>
<path d="M0 0 C3.11905047 2.57660691 4.7181368 4.1544104 6 8 C6.53832527 13.70624783 5.61757835 16.5555466 2 21 C-2.02702057 23.68468038 -5.2684363 23.68187737 -10 23 C-13.5995228 20.85560344 -15.44518533 18.84834219 -17 15 C-17.23974502 10.53275111 -16.53895094 6.90466765 -14.25 3.0625 C-9.6587349 -1.14615968 -6.01634852 -1.61152192 0 0 Z M-9.8125 5.5625 C-11.45959365 8.94337643 -11.46433455 11.28532359 -11 15 C-9.47722993 17.60720318 -9.47722993 17.60720318 -7 19 C-4.3566226 19.08805146 -4.3566226 19.08805146 -2 18 C0.53637054 14.19544419 0.59473663 11.46052469 0 7 C-1.02421261 4.89061215 -1.02421261 4.89061215 -3 4 C-6.12528712 3.45307475 -7.38311983 3.46820675 -9.8125 5.5625 Z " fill="#034D8E" transform="translate(90,181)"/>
<path d="M0 0 C3.11405174 2.44074326 4.34740096 4.15478409 5 8 C5.06898242 10.59373914 5.09434752 13.15810197 5.0625 15.75 C5.05798828 16.44738281 5.05347656 17.14476562 5.04882812 17.86328125 C5.0371002 19.57555803 5.01916653 21.28779033 5 23 C4.05125 22.814375 3.1025 22.62875 2.125 22.4375 C-0.89868793 21.71313368 -0.89868793 21.71313368 -3 23 C-6.8612692 23.35752493 -9.16724804 23.52046997 -12.5 21.4375 C-14 19 -14 19 -14.125 15.5 C-13 12 -13 12 -10.3125 9.5625 C-6.84678896 7.92773064 -4.77450884 7.64052297 -1 8 C-1.33 7.01 -1.66 6.02 -2 5 C-5.3 5 -8.6 5 -12 5 C-11.67 3.68 -11.34 2.36 -11 1 C-7.14613506 -1.31231897 -4.25293941 -1.26683301 0 0 Z M-8 14 C-7.67 15.65 -7.34 17.3 -7 19 C-3.70924004 18.62095792 -3.70924004 18.62095792 -1 17 C-0.95936168 15.33382885 -0.957279 13.66611905 -1 12 C-5.04622502 11.63019987 -5.04622502 11.63019987 -8 14 Z " fill="#034D8E" transform="translate(211,181)"/>
<path d="M0 0 C2.06984066 1.9931799 2.63033437 3.66769076 2.80102539 6.52612305 C2.79578857 7.22261963 2.79055176 7.91911621 2.78515625 8.63671875 C2.78193359 9.39404297 2.77871094 10.15136719 2.77539062 10.93164062 C2.76701172 11.71732422 2.75863281 12.50300781 2.75 13.3125 C2.74548828 14.10978516 2.74097656 14.90707031 2.73632812 15.72851562 C2.7245585 17.69404257 2.70662348 19.65953085 2.6875 21.625 C1.718125 21.439375 0.74875 21.25375 -0.25 21.0625 C-1.260625 20.918125 -2.27125 20.77375 -3.3125 20.625 C-3.6425 20.955 -3.9725 21.285 -4.3125 21.625 C-11.55059524 22.09197389 -11.55059524 22.09197389 -14.25 20.4375 C-15.65064633 18.04816214 -16.17996284 16.40828027 -16.3125 13.625 C-15.06974699 10.81245371 -13.99553107 9.11960871 -11.5 7.3125 C-8.70563203 6.43427007 -6.22270204 6.49271809 -3.3125 6.625 C-3.6425 5.635 -3.9725 4.645 -4.3125 3.625 C-7.6125 3.625 -10.9125 3.625 -14.3125 3.625 C-13.9825 2.305 -13.6525 0.985 -13.3125 -0.375 C-8.70567833 -3.139093 -4.55080532 -2.70588425 0 0 Z M-10.3125 12.625 C-9.9825 14.275 -9.6525 15.925 -9.3125 17.625 C-7.6625 17.295 -6.0125 16.965 -4.3125 16.625 C-3.6525 14.645 -2.9925 12.665 -2.3125 10.625 C-6.02849191 10.42413557 -7.08458445 10.4730563 -10.3125 12.625 Z " fill="#034F8F" transform="translate(181.3125,182.375)"/>
<path d="M0 0 C2.39967199 2.15672119 3.82592409 3.84750203 4.31665039 7.09643555 C4.39342692 9.51400925 4.349183 11.89586813 4.25 14.3125 C4.23195313 15.14845703 4.21390625 15.98441406 4.1953125 16.84570312 C4.14841126 18.89763228 4.07667411 20.94896756 4 23 C3.21625 22.814375 2.4325 22.62875 1.625 22.4375 C-0.97089775 21.74037734 -0.97089775 21.74037734 -3 23 C-10.24905375 23.46025738 -10.24905375 23.46025738 -12.9375 21.8125 C-14.33814633 19.42316214 -14.86746284 17.78328027 -15 15 C-13.75926168 12.19201329 -12.72390624 10.49924569 -10.1875 8.75 C-7.48694827 7.82409655 -4.82435451 7.38513925 -2 7 C-2.33 6.34 -2.66 5.68 -3 5 C-5.97 5 -8.94 5 -12 5 C-12 3.68 -12 2.36 -12 1 C-7.67943294 -1.22574667 -4.68101178 -1.27663958 0 0 Z M-9 14 C-8.67 15.65 -8.34 17.3 -8 19 C-6.02 18.67 -4.04 18.34 -2 18 C-1.67 16.02 -1.34 14.04 -1 12 C-4.76687864 12 -5.91190305 12.23537317 -9 14 Z " fill="#034D8D" transform="translate(258,181)"/>
<path d="M0 0 C0.33 1.65 0.66 3.3 1 5 C-1.64 4.67 -4.28 4.34 -7 4 C-7 5.32 -7 6.64 -7 8 C-6.071875 8.28875 -5.14375 8.5775 -4.1875 8.875 C-1 10 -1 10 2 12 C2.76987448 18.92887029 2.76987448 18.92887029 0.5625 22 C-3.23346239 23.48135118 -6.9698551 23.42508628 -11 23 C-12 22 -12 22 -12.0625 19.4375 C-12.041875 18.633125 -12.02125 17.82875 -12 17 C-9.36 17.33 -6.72 17.66 -4 18 C-4 17.01 -4 16.02 -4 15 C-5.74648543 13.71017655 -5.74648543 13.71017655 -7.9375 12.625 C-11.84722222 10.30555556 -11.84722222 10.30555556 -13.25 7.5 C-12.89822704 3.98227045 -11.46486687 2.46486687 -9 0 C-5.52176885 -1.15941038 -3.54104422 -0.70820884 0 0 Z " fill="#034C8C" transform="translate(111,181)"/>
<path d="M0 0 C0.99 0 1.98 0 3 0 C3 1.65 3 3.3 3 5 C4.65 5 6.3 5 8 5 C8 6.32 8 7.64 8 9 C6.35 9 4.7 9 3 9 C3.33 13.62 3.66 18.24 4 23 C5.32 23 6.64 23 8 23 C7.125 26.875 7.125 26.875 6 28 C3.125 28.3125 3.125 28.3125 0 28 C-2.7330765 25.5078908 -2.99557076 24.05551314 -3.29296875 20.328125 C-3.27316751 18.96843965 -3.23759202 17.6089066 -3.1875 16.25 C-3.17396484 15.55261719 -3.16042969 14.85523438 -3.14648438 14.13671875 C-3.1112945 12.42414459 -3.05749155 10.71197059 -3 9 C-3.99 9 -4.98 9 -6 9 C-6 7.68 -6 6.36 -6 5 C-5.01 4.67 -4.02 4.34 -3 4 C-2.505 3.319375 -2.01 2.63875 -1.5 1.9375 C-1.005 1.298125 -0.51 0.65875 0 0 Z " fill="#034E8D" transform="translate(156,176)"/>
<path d="M0 0 C4.875 0.875 4.875 0.875 6 2 C6.08790975 4.29151417 6.10694038 6.58572524 6.09765625 8.87890625 C6.0962413 9.5655687 6.09482635 10.25223114 6.09336853 10.95970154 C6.08775479 13.16067801 6.07520007 15.36155409 6.0625 17.5625 C6.05748676 19.05143083 6.05292355 20.54036324 6.04882812 22.02929688 C6.03778093 25.68623075 6.02050713 29.34310558 6 33 C3.13275314 32.42655063 2.1385485 32.1385485 0 30 C-0.22705078 27.01904297 -0.22705078 27.01904297 -0.1953125 23.2421875 C-0.1924826 22.57913605 -0.18965271 21.91608459 -0.18673706 21.23294067 C-0.17553435 19.11344417 -0.15043051 16.99436896 -0.125 14.875 C-0.11497028 13.43880818 -0.10584441 12.00260975 -0.09765625 10.56640625 C-0.075595 7.04413372 -0.04106494 3.52210797 0 0 Z " fill="#034D8B" transform="translate(188,171)"/>
<path d="M0 0 C0.33 1.98 0.66 3.96 1 6 C-0.98 6.66 -2.96 7.32 -5 8 C-5.03738281 8.90363281 -5.07476562 9.80726563 -5.11328125 10.73828125 C-5.17902344 11.91777344 -5.24476563 13.09726563 -5.3125 14.3125 C-5.37050781 15.48425781 -5.42851562 16.65601563 -5.48828125 17.86328125 C-6 21 -6 21 -7.35546875 22.91796875 C-9 24 -9 24 -12 24 C-12 16.41 -12 8.82 -12 1 C-9.03 1.495 -9.03 1.495 -6 2 C-3 0 -3 0 0 0 Z " fill="#034D8E" transform="translate(232,180)"/>
<path d="M0 0 C0 0.99 0 1.98 0 3 C1.32 3.33 2.64 3.66 4 4 C4 5.65 4 7.3 4 9 C3.01 9.33 2.02 9.66 1 10 C0.26676204 12.01508358 0.26676204 12.01508358 0 14 C-1.98 14 -3.96 14 -6 14 C-6 13.01 -6 12.02 -6 11 C-7.65 10.67 -9.3 10.34 -11 10 C-11 8.35 -11 6.7 -11 5 C-9.68 4.67 -8.36 4.34 -7 4 C-7 2.68 -7 1.36 -7 0 C-3.98968256 -0.93423645 -3.13349732 -1.04449911 0 0 Z " fill="#1978BB" transform="translate(33,121)"/>
<path d="M0 0 C1.875 0.3125 1.875 0.3125 4 1 C6.06723714 4.10085571 6.24497423 4.72931681 6.1953125 8.23046875 C6.18886719 9.03291016 6.18242187 9.83535156 6.17578125 10.66210938 C6.15902344 11.49548828 6.14226562 12.32886719 6.125 13.1875 C6.11597656 14.03248047 6.10695312 14.87746094 6.09765625 15.74804688 C6.07410703 17.83215243 6.03823647 19.91611217 6 22 C5.01 22.33 4.02 22.66 3 23 C2.01 22.34 1.02 21.68 0 21 C-0.34057617 18.84521484 -0.34057617 18.84521484 -0.29296875 16.2109375 C-0.2784668 14.79941406 -0.2784668 14.79941406 -0.26367188 13.359375 C-0.23853516 12.37453125 -0.21339844 11.3896875 -0.1875 10.375 C-0.17396484 9.38242188 -0.16042969 8.38984375 -0.14648438 7.3671875 C-0.11105743 4.91091928 -0.06166196 2.45572715 0 0 Z " fill="#03439E" transform="translate(142,181)"/>
<path d="M0 0 C6.09411765 2.14117647 6.09411765 2.14117647 8 5 C7.86476467 9.73323653 5.18488169 13.9046171 3 18 C1.0546875 17.15625 1.0546875 17.15625 -1 16 C-2.89118126 10.59662496 -1.28829128 5.38739991 0 0 Z " fill="#F7A90E" transform="translate(178,112)"/>
<path d="M0 0 C6.09411765 2.14117647 6.09411765 2.14117647 8 5 C7.87167015 9.61987464 5.33710717 13.15508176 3 17 C1.68 16.67 0.36 16.34 -1 16 C-2.49697302 10.31150252 -1.3348044 5.58190932 0 0 Z " fill="#F8AB0F" transform="translate(141,112)"/>
<path d="M0 0 C4 1 4 1 5 2 C5.08685603 3.56172745 5.10702219 5.12729344 5.09765625 6.69140625 C5.09443359 7.63564453 5.09121094 8.57988281 5.08789062 9.55273438 C5.07951172 10.54595703 5.07113281 11.53917969 5.0625 12.5625 C5.05798828 13.55958984 5.05347656 14.55667969 5.04882812 15.58398438 C5.03700007 18.05604849 5.02051849 20.52799518 5 23 C2.525 22.01 2.525 22.01 0 21 C0 14.07 0 7.14 0 0 Z " fill="#034E8D" transform="translate(235,181)"/>
<path d="M0 0 C4.40039796 1.65121316 8.51118869 3.73745561 12.6875 5.875 C18.67854968 8.91170987 24.68380059 11.69215791 31 14 C30.01 14.66 29.02 15.32 28 16 C26.09765625 15.50390625 26.09765625 15.50390625 24.0625 14.5625 C21.11050064 13.13173377 21.11050064 13.13173377 17.98046875 13.59765625 C17.32691406 13.73042969 16.67335938 13.86320312 16 14 C14.140625 12.7421875 14.140625 12.7421875 12.25 10.875 C8.87672693 7.69828983 5.49827294 5.31344994 1.46875 3.04296875 C0.9840625 2.69878906 0.499375 2.35460937 0 2 C0 1.34 0 0.68 0 0 Z " fill="#F8B22B" transform="translate(37,101)"/>
<path d="M0 0 C1.32 0 2.64 0 4 0 C4 0.99 4 1.98 4 3 C4.66 3 5.32 3 6 3 C6 2.01 6 1.02 6 0 C7.32 0 8.64 0 10 0 C10 2.97 10 5.94 10 9 C6.7 9 3.4 9 0 9 C0 6.03 0 3.06 0 0 Z " fill="#024D8B" transform="translate(46,213)"/>
<path d="M0 0 C1.32 0.33 2.64 0.66 4 1 C4.265625 3.296875 4.265625 3.296875 4 6 C2.171875 7.765625 2.171875 7.765625 -0.25 9.25 C-1.43335938 10.00023438 -1.43335938 10.00023438 -2.640625 10.765625 C-4.79559481 11.89305953 -6.62437998 12.54231174 -9 13 C-8.49259538 8.60249328 -5.91706686 6.13051078 -3 3 C-2.34 3 -1.68 3 -1 3 C-0.67 2.01 -0.34 1.02 0 0 Z " fill="#F7AA0E" transform="translate(207,115)"/>
<path d="M0 0 C0.66 0 1.32 0 2 0 C1.69177379 2.2922454 1.37829126 4.58378455 1.0625 6.875 C0.88847656 8.15117188 0.71445313 9.42734375 0.53515625 10.7421875 C0 14 0 14 -1 16 C-1.66 16 -2.32 16 -3 16 C-3 14.02 -3 12.04 -3 10 C-5.31 11.98 -7.62 13.96 -10 16 C-10 12.26197937 -9.01060175 11.41467254 -6.6875 8.5625 C-6.07261719 7.80066406 -5.45773438 7.03882812 -4.82421875 6.25390625 C-4.22222656 5.51011719 -3.62023437 4.76632813 -3 4 C-2.47019531 3.24589844 -1.94039062 2.49179688 -1.39453125 1.71484375 C-0.93433594 1.14894531 -0.47414063 0.58304687 0 0 Z " fill="#E4940A" transform="translate(114,94)"/>
<path d="M0 0 C0.99 0 1.98 0 3 0 C3.33 0.66 3.66 1.32 4 2 C4.33 1.34 4.66 0.68 5 0 C5.99 0 6.98 0 8 0 C8 2.97 8 5.94 8 9 C6.68 8.67 5.36 8.34 4 8 C3.67 7.34 3.34 6.68 3 6 C2.67 6.99 2.34 7.98 2 9 C1.34 9 0.68 9 0 9 C0 6.03 0 3.06 0 0 Z " fill="#034B8A" transform="translate(207,213)"/>
<path d="M0 0 C0.99 0 1.98 0 3 0 C3.33 0.66 3.66 1.32 4 2 C4.33 1.34 4.66 0.68 5 0 C5.99 0 6.98 0 8 0 C8 2.97 8 5.94 8 9 C6.68 8.67 5.36 8.34 4 8 C3.67 7.34 3.34 6.68 3 6 C2.67 6.99 2.34 7.98 2 9 C1.34 9 0.68 9 0 9 C0 6.03 0 3.06 0 0 Z " fill="#024C8B" transform="translate(103,213)"/>
<path d="M0 0 C2.25 1.9375 2.25 1.9375 2.6875 4.5 C2.25 6.9375 2.25 6.9375 0.25 8.9375 C-2.25 9.1875 -2.25 9.1875 -4.75 8.9375 C-6.75 6.9375 -6.75 6.9375 -6.875 3.8125 C-6.83375 2.86375 -6.7925 1.915 -6.75 0.9375 C-3.98973864 -1.00490614 -3.23342649 -1.24927842 0 0 Z M-3.75 1.9375 C-4.08 2.9275 -4.41 3.9175 -4.75 4.9375 C-4.42 5.5975 -4.09 6.2575 -3.75 6.9375 C-2.76 6.9375 -1.77 6.9375 -0.75 6.9375 C-0.75 5.2875 -0.75 3.6375 -0.75 1.9375 C-1.74 1.9375 -2.73 1.9375 -3.75 1.9375 Z " fill="#03498A" transform="translate(199.75,213.0625)"/>
<path d="M0 0 C0.33 1.32 0.66 2.64 1 4 C-1.64 4.33 -4.28 4.66 -7 5 C-7 5.66 -7 6.32 -7 7 C-8.98 7.99 -8.98 7.99 -11 9 C-11.33 8.34 -11.66 7.68 -12 7 C-11.34 7 -10.68 7 -10 7 C-10 5.35 -10 3.7 -10 2 C-6.49223216 0.39644899 -3.85645121 -0.22036864 0 0 Z " fill="#44ABB3" transform="translate(50,131)"/>
<path d="M0 0 C2.5 1.1875 2.5 1.1875 5 3 C5.4375 5.5625 5.4375 5.5625 5 8 C3 10 3 10 0.5 10.25 C-2 10 -2 10 -4 8 C-4.375 5.5625 -4.375 5.5625 -4 3 C-2 1.1875 -2 1.1875 0 0 Z M-1 3 C-1.33 4.32 -1.66 5.64 -2 7 C-0.68 7.33 0.64 7.66 2 8 C2 6.35 2 4.7 2 3 C1.01 3 0.02 3 -1 3 Z " fill="#034E8E" transform="translate(93,212)"/>
<path d="M0 0 C0 0.99 0 1.98 0 3 C1.32 3.33 2.64 3.66 4 4 C2 6 2 6 -0.8203125 6.1953125 C-1.91085938 6.17210938 -3.00140625 6.14890625 -4.125 6.125 C-5.22070312 6.10695313 -6.31640625 6.08890625 -7.4453125 6.0703125 C-8.28835937 6.04710938 -9.13140625 6.02390625 -10 6 C-10 5.34 -10 4.68 -10 4 C-9.01 4 -8.02 4 -7 4 C-7 2.68 -7 1.36 -7 0 C-3.98968256 -0.93423645 -3.13349732 -1.04449911 0 0 Z " fill="#3FA4B7" transform="translate(33,121)"/>
<path d="M0 0 C1.98 0.99 1.98 0.99 4 2 C4.33 1.34 4.66 0.68 5 0 C5.66 0 6.32 0 7 0 C7 2.97 7 5.94 7 9 C5.68 8.34 4.36 7.68 3 7 C2.67 7.66 2.34 8.32 2 9 C1.34 9 0.68 9 0 9 C0 6.03 0 3.06 0 0 Z " fill="#034C8A" transform="translate(147,213)"/>
<path d="M0 0 C1.32 0 2.64 0 4 0 C4.66 2.97 5.32 5.94 6 9 C5.01 9 4.02 9 3 9 C3 8.34 3 7.68 3 7 C1.35 7.66 -0.3 8.32 -2 9 C-1.34 6.03 -0.68 3.06 0 0 Z " fill="#034B8D" transform="translate(222,213)"/>
<path d="M0 0 C4.95 0 9.9 0 15 0 C14.67 0.99 14.34 1.98 14 3 C9.37269289 4.0448758 4.71146122 4.51756279 0 5 C0 3.35 0 1.7 0 0 Z " fill="#2687BE" transform="translate(22,126)"/>
<path d="M0 0 C1.32 0.33 2.64 0.66 4 1 C4.66 3.64 5.32 6.28 6 9 C5.01 9 4.02 9 3 9 C3 8.34 3 7.68 3 7 C2.01 7 1.02 7 0 7 C0 7.66 0 8.32 0 9 C-0.66 9 -1.32 9 -2 9 C-1.125 2.25 -1.125 2.25 0 0 Z " fill="#034D8B" transform="translate(162,213)"/>
<path d="M0 0 C0 1.98 0 3.96 0 6 C-1.32 6 -2.64 6 -4 6 C-4 6.66 -4 7.32 -4 8 C-2.68 8 -1.36 8 0 8 C0 8.66 0 9.32 0 10 C-1.98 10 -3.96 10 -6 10 C-6 7.03 -6 4.06 -6 1 C-4 0 -4 0 0 0 Z " fill="#024E8E" transform="translate(250,212)"/>
<path d="M0 0 C0.99 0.33 1.98 0.66 3 1 C3 3.66666667 3 6.33333333 3 9 C2 10 2 10 -0.5625 10.0625 C-1.366875 10.041875 -2.17125 10.02125 -3 10 C-3 9.34 -3 8.68 -3 8 C-2.01 7.67 -1.02 7.34 0 7 C-0.99 6.34 -1.98 5.68 -3 5 C-2.625 3.0625 -2.625 3.0625 -2 1 C-1.34 0.67 -0.68 0.34 0 0 Z " fill="#034988" transform="translate(130,212)"/>
<path d="M0 0 C0.99 0.33 1.98 0.66 3 1 C3 2.32 3 3.64 3 5 C3.185625 5.721875 3.37125 6.44375 3.5625 7.1875 C3.706875 7.785625 3.85125 8.38375 4 9 C3 10 3 10 -0.0625 10.0625 C-1.031875 10.041875 -2.00125 10.02125 -3 10 C-3 9.34 -3 8.68 -3 8 C-2.01 7.67 -1.02 7.34 0 7 C-0.99 6.01 -1.98 5.02 -3 4 C-2.67 3.01 -2.34 2.02 -2 1 C-1.34 0.67 -0.68 0.34 0 0 Z " fill="#024686" transform="translate(72,212)"/>
<path d="M0 0 C0.86625 0.3403125 0.86625 0.3403125 1.75 0.6875 C1.75 1.3475 1.75 2.0075 1.75 2.6875 C0.1 2.6875 -1.55 2.6875 -3.25 2.6875 C-3.25 4.3375 -3.25 5.9875 -3.25 7.6875 C-1.6 7.6875 0.05 7.6875 1.75 7.6875 C1.75 8.3475 1.75 9.0075 1.75 9.6875 C-1.125 9.8125 -1.125 9.8125 -4.25 9.6875 C-6.25 7.6875 -6.25 7.6875 -6.625 5.25 C-6.25 2.6875 -6.25 2.6875 -4.5 0.8125 C-2.25 -0.3125 -2.25 -0.3125 0 0 Z " fill="#02498F" transform="translate(178.25,212.3125)"/>
<path d="M0 0 C2.93832645 0.11381897 5.8751065 0.24056551 8.8125 0.375 C10.06256836 0.42140625 10.06256836 0.42140625 11.33789062 0.46875 C12.14033203 0.50742188 12.94277344 0.54609375 13.76953125 0.5859375 C14.87711792 0.63306885 14.87711792 0.63306885 16.00708008 0.68115234 C18 1 18 1 21 3 C13.30993638 4.409845 7.4461845 3.23007556 0 1 C0 0.67 0 0.34 0 0 Z " fill="#F6AE28" transform="translate(67,117)"/>
<path d="M0 0 C0.99 0.33 1.98 0.66 3 1 C3 1.66 3 2.32 3 3 C2.01 3.495 2.01 3.495 1 4 C1.66 4.33 2.32 4.66 3 5 C2.67 6.65 2.34 8.3 2 10 C0.35 10 -1.3 10 -3 10 C-3 9.34 -3 8.68 -3 8 C-2.01 7.67 -1.02 7.34 0 7 C-0.99 6.34 -1.98 5.68 -3 5 C-2.625 3.0625 -2.625 3.0625 -2 1 C-1.34 0.67 -0.68 0.34 0 0 Z " fill="#034D8B" transform="translate(258,212)"/>
<path d="M0 0 C-0.33 1.32 -0.66 2.64 -1 4 C-2.7015625 4.2165625 -2.7015625 4.2165625 -4.4375 4.4375 C-7.80777201 4.61171478 -7.80777201 4.61171478 -9 6 C-10.99958364 6.04080783 -13.00045254 6.04254356 -15 6 C-15.33 5.34 -15.66 4.68 -16 4 C-14.8553125 4.0309375 -14.8553125 4.0309375 -13.6875 4.0625 C-10.89814214 4.12942841 -10.89814214 4.12942841 -8 3 C-8 2.34 -8 1.68 -8 1 C-5.10765685 0.17361624 -3.11257569 0 0 0 Z " fill="#379CBA" transform="translate(51,135)"/>
<path d="M0 0 C2.125 0.9375 2.125 0.9375 4 2 C3.67 3.32 3.34 4.64 3 6 C1.125 6.625 1.125 6.625 -1 7 C-1.66 6.34 -2.32 5.68 -3 5 C-2.75 2.9375 -2.75 2.9375 -2 1 C-1.34 0.67 -0.68 0.34 0 0 Z " fill="#034A8C" transform="translate(237,172)"/>
<path d="M0 0 C1.32 0.66 2.64 1.32 4 2 C3.67 3.32 3.34 4.64 3 6 C1.68 6.33 0.36 6.66 -1 7 C-1.66 5.68 -2.32 4.36 -3 3 C-2.01 2.01 -1.02 1.02 0 0 Z " fill="#034B90" transform="translate(144,172)"/>
<path d="M0 0 C0.99 0 1.98 0 3 0 C3 2.97 3 5.94 3 9 C2.01 9 1.02 9 0 9 C0 6.03 0 3.06 0 0 Z " fill="#024C89" transform="translate(81,213)"/>
<path d="M0 0 C0.66 0 1.32 0 2 0 C2 2.31 2 4.62 2 7 C3.32 7 4.64 7 6 7 C6 7.66 6 8.32 6 9 C4.02 9 2.04 9 0 9 C0 6.03 0 3.06 0 0 Z " fill="#034D8B" transform="translate(233,213)"/>
<path d="M0 0 C0 0.99 0 1.98 0 3 C-2.64 3 -5.28 3 -8 3 C-8.33 2.34 -8.66 1.68 -9 1 C-5.92677456 0.08941469 -3.19902639 -0.08886184 0 0 Z " fill="#57BBAE" transform="translate(50,131)"/>
<path d="M0 0 C0 0.66 0 1.32 0 2 C-1.98 2.33 -3.96 2.66 -6 3 C-5.67 3.99 -5.34 4.98 -5 6 C-6.32 6 -7.64 6 -9 6 C-8.8125 4.125 -8.8125 4.125 -8 2 C-5.10888212 0.47835901 -3.28176588 0 0 0 Z " fill="#02457D" transform="translate(208,180)"/>
<path d="M0 0 C1.32 0.33 2.64 0.66 4 1 C4.33 3.31 4.66 5.62 5 8 C4.01 8.33 3.02 8.66 2 9 C2 6.69 2 4.38 2 2 C1.34 2 0.68 2 0 2 C0 1.34 0 0.68 0 0 Z " fill="#2A8CBE" transform="translate(54,137)"/>
<path d="M0 0 C0.33 1.32 0.66 2.64 1 4 C-1.97 6.475 -1.97 6.475 -5 9 C-5 4.61031544 -2.87194899 3.23094261 0 0 Z " fill="#E59B11" transform="translate(109,101)"/>
<path d="M0 0 C2.125 0.9375 2.125 0.9375 4 2 C3.67 2.66 3.34 3.32 3 4 C3 5.32 3 6.64 3 8 C1.29115995 6.37660195 -0.37446717 4.70680947 -2 3 C-2 2.34 -2 1.68 -2 1 C-1.34 0.67 -0.68 0.34 0 0 Z " fill="#F1A40D" transform="translate(141,155)"/>
<path d="M0 0 C0.33 0 0.66 0 1 0 C0.85892253 1.45880109 0.71197585 2.91703551 0.5625 4.375 C0.48128906 5.18710938 0.40007812 5.99921875 0.31640625 6.8359375 C0 9 0 9 -1 11 C-1.66 11 -2.32 11 -3 11 C-2.69078116 9.54096742 -2.37751201 8.08279278 -2.0625 6.625 C-1.88847656 5.81289062 -1.71445313 5.00078125 -1.53515625 4.1640625 C-1 2 -1 2 0 0 Z " fill="#DA8A09" transform="translate(114,99)"/>
<path d="M0 0 C0.66 0 1.32 0 2 0 C2 2.97 2 5.94 2 9 C1.34 9 0.68 9 0 9 C0 6.03 0 3.06 0 0 Z " fill="#034D8A" transform="translate(185,213)"/>
<path d="M0 0 C0.66 0 1.32 0 2 0 C2 2.97 2 5.94 2 9 C1.34 9 0.68 9 0 9 C0 6.03 0 3.06 0 0 Z " fill="#034C8B" transform="translate(62,213)"/>
</svg>
