<?xml version="1.0" standalone="no"?>
<!DOCTYPE svg PUBLIC "-//W3C//DTD SVG 20010904//EN"
 "http://www.w3.org/TR/2001/REC-SVG-20010904/DTD/svg10.dtd">
<svg version="1.0" xmlns="http://www.w3.org/2000/svg"
 width="945.000000pt" height="945.000000pt" viewBox="0 0 945.000000 945.000000"
 preserveAspectRatio="xMidYMid meet">

<g transform="translate(0.000000,945.000000) scale(0.100000,-0.100000)"
fill="#000000" stroke="none">
<path d="M3748 6338 c-9 -7 -38 -62 -63 -123 -25 -60 -71 -155 -101 -210 -73
-129 -139 -228 -352 -522 -54 -76 -115 -160 -134 -188 -111 -160 -341 -483
-400 -562 -61 -82 -85 -104 -226 -206 -291 -213 -575 -381 -711 -421 -66 -19
-131 -21 -155 -3 -16 12 -16 19 -6 77 25 141 95 248 327 506 356 396 586 728
600 868 7 76 -25 153 -88 210 -97 87 -212 125 -404 133 -151 6 -286 -15 -465
-72 -360 -117 -816 -477 -1007 -795 -69 -114 -113 -249 -113 -344 0 -128 96
-219 230 -219 76 0 131 21 177 65 49 47 40 52 -28 16 -161 -84 -309 -14 -309
147 0 61 43 187 93 278 119 212 353 451 587 597 368 231 766 286 943 130 41
-36 62 -94 51 -143 -20 -95 -165 -297 -398 -557 -261 -290 -459 -586 -501
-750 -33 -128 8 -229 115 -286 56 -30 201 -25 310 10 185 60 396 178 638 357
72 55 132 97 132 95 0 -3 -18 -40 -39 -84 -151 -302 -218 -641 -152 -770 73
-144 274 -171 483 -66 77 39 128 73 128 86 0 15 -25 8 -65 -19 -33 -22 -51
-27 -107 -27 -57 -1 -71 2 -90 22 -22 21 -23 30 -23 165 0 135 2 147 34 242
100 291 391 769 899 1475 150 210 344 485 386 549 110 168 113 282 9 324 -56
22 -184 32 -205 15z"/>
<path d="M5108 6099 c-37 -154 -295 -607 -476 -836 l-41 -51 -78 39 c-80 41
-186 69 -260 69 -248 1 -594 -209 -869 -527 -279 -323 -356 -615 -205 -780 52
-57 105 -78 196 -77 135 1 226 56 444 268 74 72 125 115 112 96 -51 -79 -73
-140 -73 -200 0 -79 23 -118 87 -150 42 -21 64 -25 140 -25 80 0 97 3 157 32
71 33 165 94 236 151 l43 34 -8 -28 c-20 -73 3 -131 68 -169 27 -16 51 -20
114 -19 216 2 356 97 879 598 201 192 310 310 303 329 -13 41 -35 24 -448
-370 -329 -312 -460 -418 -546 -439 -25 -7 -26 -6 -20 31 11 66 120 224 308
447 258 305 393 490 405 553 9 52 -2 96 -36 137 -37 45 -140 98 -190 98 l-37
0 -68 -127 c-89 -167 -119 -212 -300 -438 -84 -104 -183 -233 -220 -285 -83
-116 -194 -232 -297 -311 -194 -149 -271 -143 -199 16 60 131 345 533 807
1135 112 147 202 278 284 416 118 199 126 259 42 343 -52 52 -141 100 -199
108 l-38 5 -17 -73z m-696 -987 c17 -17 13 -84 -7 -122 -36 -71 -113 -159
-290 -335 -352 -351 -661 -594 -752 -595 -79 0 -24 166 132 399 218 327 521
593 746 656 59 16 153 15 171 -3z"/>
<path d="M8369 5835 c50 -43 129 -149 161 -216 52 -114 65 -179 64 -339 0
-148 -6 -185 -56 -340 -56 -173 -226 -471 -358 -624 -324 -378 -750 -721
-1455 -1171 -167 -107 -297 -184 -482 -287 -62 -35 -113 -65 -112 -68 0 -3 72
-58 159 -123 l160 -118 33 17 c71 37 332 194 505 306 455 294 799 564 1110
871 282 279 457 516 612 832 80 164 103 222 142 367 19 69 23 109 23 238 0
144 -2 161 -28 233 -66 188 -208 331 -412 416 -90 38 -106 39 -66 6z"/>
<path d="M6615 5836 c-232 -53 -385 -185 -451 -390 -30 -92 -43 -272 -28 -392
l8 -69 7 63 c28 227 233 369 504 349 44 -4 101 -13 126 -21 77 -24 182 -82
234 -130 l50 -46 178 182 c98 101 185 193 194 206 19 27 18 28 -95 93 -100 58
-232 112 -332 139 -108 28 -307 36 -395 16z"/>
<path d="M8024 5802 c-234 -84 -398 -193 -629 -418 -75 -73 -225 -238 -225
-247 0 -5 131 -134 301 -295 41 -40 79 -72 83 -72 4 0 76 63 161 141 316 290
481 402 693 470 78 25 78 25 61 99 -17 72 -65 164 -113 211 -49 49 -175 126
-221 134 -19 3 -59 -5 -111 -23z"/>
<path d="M5583 5769 c-4 -13 -37 -86 -75 -162 -37 -76 -68 -148 -68 -161 0
-38 62 -77 194 -122 64 -22 71 -23 93 -9 41 27 91 88 135 164 35 62 42 84 42
127 0 101 -90 170 -240 181 -73 6 -75 5 -81 -18z"/>
<path d="M6137 3900 l-28 -40 31 0 c23 0 41 10 66 35 19 20 34 38 34 40 0 3
-17 5 -37 5 -33 0 -42 -6 -66 -40z"/>
<path d="M3010 3575 l0 -225 41 0 40 0 -3 95 -3 95 73 0 72 0 0 30 0 30 -69 0
-69 0 -4 65 -3 64 85 3 85 3 0 30 0 30 -122 3 -123 3 0 -226z"/>
<path d="M3410 3635 c0 -178 8 -218 52 -256 13 -10 31 -17 41 -15 9 2 15 0 11
-5 -11 -18 91 -9 124 11 65 40 72 65 72 258 l0 173 -37 -3 -38 -3 -5 -178 c-5
-162 -7 -180 -24 -193 -29 -21 -80 -18 -102 7 -17 19 -19 41 -22 195 l-4 174
-34 0 -34 0 0 -165z"/>
<path d="M3890 3575 l0 -225 40 0 39 0 3 147 3 148 73 -148 73 -147 40 0 39 0
0 226 0 225 -37 -3 -38 -3 -5 -145 -5 -145 -75 148 -75 147 -37 0 -38 0 0
-225z"/>
<path d="M4393 3793 c-10 -3 -13 -58 -13 -224 l0 -219 79 0 c44 0 83 5 86 10
4 6 10 8 15 5 13 -8 76 51 94 89 18 39 22 170 6 226 -12 43 -62 93 -109 109
-34 11 -135 14 -158 4z m128 -63 c22 0 34 -8 49 -32 27 -45 28 -186 2 -238
-15 -32 -21 -35 -64 -38 l-48 -3 0 162 c0 143 2 160 16 155 9 -3 29 -6 45 -6z"/>
<path d="M4930 3783 c0 -7 -15 -66 -34 -131 -18 -64 -36 -126 -39 -137 -2 -11
-14 -53 -25 -92 l-21 -73 39 0 c38 0 40 1 53 48 l14 47 60 3 59 3 15 -48 c13
-45 16 -48 52 -51 22 -2 37 1 37 8 0 6 -16 66 -35 133 -19 67 -47 163 -61 214
l-27 92 -43 -1 c-31 0 -44 -5 -44 -15z m69 -188 c7 -27 14 -58 17 -67 4 -15
-1 -18 -35 -18 -32 0 -41 4 -41 17 0 31 33 134 40 126 4 -4 13 -30 19 -58z"/>
<path d="M5354 3786 c-17 -7 -42 -29 -55 -47 -22 -31 -24 -46 -27 -154 -3
-132 8 -169 60 -208 28 -21 102 -33 141 -24 43 11 78 51 84 95 l6 42 -37 0
c-30 0 -37 -3 -34 -17 2 -10 -6 -28 -18 -41 -16 -18 -29 -23 -60 -20 -55 4
-64 28 -64 168 0 138 9 160 69 160 42 0 56 -11 66 -53 6 -23 12 -27 41 -27 31
0 34 3 34 30 0 20 -11 42 -33 67 -29 31 -41 37 -88 40 -33 2 -66 -2 -85 -11z"/>
<path d="M5730 3575 l0 -225 40 0 40 0 0 225 0 225 -40 0 -40 0 0 -225z"/>
<path d="M6075 3783 c-38 -21 -49 -32 -70 -72 -14 -28 -16 -55 -14 -153 2 -65
9 -122 14 -126 6 -4 15 -16 21 -26 30 -55 137 -72 206 -34 59 33 78 83 78 203
0 130 -26 188 -98 216 -36 14 -104 10 -137 -8z m129 -58 c22 -22 28 -70 24
-178 -4 -112 -18 -137 -77 -137 -68 0 -81 26 -81 165 0 101 8 140 34 157 20
13 84 8 100 -7z"/>
<path d="M6480 3575 l0 -225 40 0 39 0 3 146 3 145 73 -145 74 -146 39 0 39 0
0 226 0 225 -37 -3 -38 -3 -5 -145 -5 -145 -75 148 -75 147 -37 0 -38 0 0
-225z"/>
</g>
</svg>
