<?xml version="1.0" standalone="no"?>
<!DOCTYPE svg PUBLIC "-//W3C//DTD SVG 20010904//EN"
 "http://www.w3.org/TR/2001/REC-SVG-20010904/DTD/svg10.dtd">
<svg version="1.0" xmlns="http://www.w3.org/2000/svg"
 width="1024.000000pt" height="915.000000pt" viewBox="0 0 1024.000000 915.000000"
 preserveAspectRatio="xMidYMid meet">

<g transform="translate(0.000000,915.000000) scale(0.100000,-0.100000)"
fill="#000000" stroke="none">
<path d="M4478 7320 c-160 -87 -100 -320 83 -320 120 0 200 122 151 232 -41
93 -150 134 -234 88z"/>
<path d="M5423 7289 c-40 -25 -67 -82 -66 -140 1 -111 94 -185 198 -158 53 14
120 84 129 133 23 121 -155 233 -261 165z"/>
<path d="M4865 7004 c-202 -31 -305 -82 -465 -229 -107 -98 -298 -226 -380
-253 -135 -46 -238 -16 -349 103 -33 36 -67 65 -74 65 -71 0 -27 -174 75 -300
100 -124 120 -182 123 -350 3 -149 13 -184 107 -350 54 -98 68 -115 89 -115
27 0 28 9 13 154 -9 92 10 95 44 5 33 -87 75 -166 94 -178 11 -7 25 -6 44 2
26 12 26 15 20 70 -4 31 -12 82 -18 113 -10 51 -9 61 11 109 26 60 25 93 -4
233 -15 74 -17 99 -8 158 13 80 58 182 98 222 30 29 84 37 103 15 23 -29 35
-172 37 -443 1 -154 6 -293 10 -310 15 -57 74 -163 94 -170 11 -3 29 -1 41 5
18 10 20 20 20 137 0 160 22 294 45 272 3 -4 28 -85 55 -180 62 -219 71 -239
107 -239 36 0 47 8 67 48 31 60 33 116 19 429 -25 542 -21 649 28 729 53 88
246 99 325 20 37 -37 49 -74 64 -203 11 -86 9 -108 -19 -290 -17 -109 -33
-229 -37 -267 l-7 -69 33 -27 c33 -27 33 -28 41 -136 10 -163 35 -234 80 -234
45 0 76 82 87 230 6 88 9 95 29 98 30 4 38 -17 56 -160 18 -132 27 -155 63
-164 20 -5 32 -1 49 17 18 20 28 56 54 199 30 169 31 186 31 457 0 243 2 284
16 297 23 23 39 20 79 -15 45 -40 121 -197 142 -293 17 -83 14 -177 -17 -421
-11 -88 -20 -172 -20 -187 0 -32 37 -62 64 -52 21 8 92 153 106 219 11 51 25
75 42 75 11 0 8 -55 -13 -188 -9 -60 -9 -86 -1 -94 21 -21 43 3 87 94 37 77
52 130 91 308 56 262 71 301 136 376 58 66 81 112 98 197 9 46 9 61 -1 73 -18
22 -31 15 -80 -46 -25 -30 -67 -68 -94 -85 -41 -26 -58 -30 -114 -29 -92 0
-195 35 -283 93 -40 27 -137 109 -214 183 -152 144 -214 185 -355 232 -161 54
-376 69 -564 40z"/>
<path d="M3832 6792 c-54 -50 -54 -111 -2 -163 82 -82 229 27 176 130 -34 64
-122 81 -174 33z"/>
<path d="M6190 6762 c-22 -10 -42 -32 -54 -55 -49 -101 63 -197 160 -138 81
49 65 165 -29 200 -36 14 -36 14 -77 -7z"/>
<path d="M2399 3256 c-131 -47 -246 -189 -312 -389 -40 -122 -45 -259 -10
-323 28 -52 72 -90 121 -104 56 -15 79 -13 142 16 l58 26 38 -20 c82 -41 187
-47 229 -12 26 21 17 30 -30 30 -38 0 -175 44 -175 56 0 2 20 29 45 60 128
157 200 401 145 492 -20 32 -74 72 -97 72 -22 0 -14 -26 12 -40 82 -44 40
-255 -88 -446 -66 -97 -78 -106 -111 -75 -13 13 -30 36 -36 52 -7 16 -19 29
-26 29 -25 0 -16 -63 15 -112 l30 -47 -37 -22 c-54 -31 -90 -30 -116 4 -32 43
-29 175 8 281 101 296 286 473 411 396 53 -32 57 -14 7 30 -61 55 -149 73
-223 46z"/>
<path d="M4707 3138 c-14 -18 -36 -59 -48 -91 -21 -54 -21 -58 -5 -82 10 -14
26 -29 37 -33 18 -7 16 -12 -25 -71 -121 -174 -319 -315 -334 -238 -2 10 -1
29 2 43 5 19 13 24 40 24 54 0 177 105 192 164 11 43 -38 107 -99 129 -10 4
-30 1 -45 -7 -33 -17 -110 -98 -145 -152 -35 -55 -117 -131 -149 -139 l-27 -7
45 86 c51 101 54 132 17 176 -53 64 -84 60 -165 -18 -27 -26 -48 -42 -48 -36
0 5 5 15 11 21 23 23 -43 92 -76 79 -52 -19 -291 -561 -283 -640 2 -22 13 -37
37 -53 39 -26 44 -24 61 32 31 98 84 225 94 225 6 0 20 -7 30 -15 37 -28 104
-11 174 43 23 18 54 31 81 35 26 3 62 18 88 36 l43 31 0 -29 c0 -38 40 -85 88
-104 99 -40 202 37 377 281 59 82 86 111 102 112 20 0 19 -7 -32 -133 -65
-161 -73 -198 -52 -231 20 -30 64 -46 95 -35 13 5 48 33 78 63 l54 55 0 -38
c0 -38 13 -57 57 -80 20 -10 24 -6 62 72 61 124 199 322 215 306 3 -3 -14 -55
-39 -116 -24 -61 -49 -132 -56 -157 -11 -45 -11 -48 16 -76 37 -38 66 -45 73
-17 21 80 226 387 245 367 2 -3 -17 -59 -44 -125 -72 -181 -73 -217 -8 -250
29 -15 32 -15 72 8 23 14 53 37 66 51 l24 26 18 -39 c37 -83 91 -72 197 37 36
37 62 58 57 47 -24 -64 -17 -98 26 -124 43 -26 77 -13 146 57 54 53 55 54 48
23 -5 -26 -2 -36 23 -61 46 -46 63 -40 97 38 49 111 202 329 219 311 2 -2 -18
-59 -45 -126 -27 -68 -52 -140 -55 -162 -6 -35 -3 -43 21 -65 16 -15 40 -26
55 -26 32 0 99 46 131 90 26 35 39 38 39 11 0 -29 45 -77 88 -94 67 -27 124
-5 215 81 52 50 57 53 57 31 0 -68 90 -136 160 -120 52 12 89 34 144 85 28 25
51 46 53 46 2 0 3 -11 3 -24 0 -59 95 -122 161 -107 50 11 77 28 137 85 l54
51 -6 -41 c-7 -38 -5 -43 24 -68 42 -35 67 -34 75 3 14 64 195 336 232 348 6
2 -11 -53 -39 -123 -65 -165 -69 -194 -33 -228 36 -34 72 -33 119 2 39 29 150
160 168 200 23 47 -4 31 -79 -47 -119 -124 -130 -110 -54 69 46 107 48 117 35
142 -8 15 -28 34 -44 43 -39 20 -67 8 -136 -57 -51 -48 -55 -50 -49 -25 6 23
1 33 -30 62 -20 19 -39 35 -43 35 -4 0 -24 -45 -46 -100 -36 -94 -43 -104
-120 -178 -112 -108 -206 -143 -206 -78 0 43 10 56 45 56 38 0 95 39 148 101
46 53 53 78 33 117 -29 57 -93 89 -134 68 -31 -16 -109 -96 -137 -141 -64
-100 -193 -216 -255 -230 -69 -15 -75 43 -18 164 45 95 148 189 148 135 0 -20
-17 -53 -42 -81 -22 -24 -17 -43 11 -43 30 0 81 75 81 118 0 26 -60 78 -99 87
-54 12 -124 -44 -194 -155 -19 -30 -68 -87 -109 -126 -105 -100 -198 -133
-198 -70 0 43 10 56 44 56 55 0 196 128 196 179 0 29 -42 83 -82 103 -33 17
-39 18 -65 4 -36 -18 -112 -98 -148 -156 -33 -53 -156 -180 -173 -180 -21 0
-14 28 39 152 48 113 50 121 35 143 -23 35 -70 57 -98 46 -13 -5 -47 -30 -76
-56 -46 -41 -52 -44 -52 -25 0 12 -15 37 -34 56 -35 35 -56 43 -56 22 0 -7
-17 -53 -37 -103 -31 -73 -50 -102 -108 -162 -101 -105 -120 -95 -65 35 38 89
37 109 -1 161 -40 56 -108 88 -149 71 -39 -16 -107 -83 -172 -171 -56 -75
-149 -169 -168 -169 -22 0 -13 28 74 232 15 36 15 38 -10 68 -54 63 -83 59
-177 -29 -39 -36 -48 -41 -43 -23 10 29 -14 66 -54 87 -27 14 -33 14 -59 1
-15 -8 -49 -36 -75 -61 -26 -25 -48 -45 -50 -45 -2 0 -1 11 2 25 3 20 -4 33
-33 61 -21 19 -41 32 -45 27 -4 -4 -19 -39 -34 -78 -40 -102 -66 -143 -134
-207 -99 -94 -105 -77 -33 91 55 128 55 145 -4 181 -26 16 -42 19 -80 13 l-49
-6 21 29 c12 16 35 42 52 58 37 36 39 58 7 79 -49 33 -72 31 -99 -5z m-607
-238 c0 -47 -91 -190 -120 -190 -26 0 -50 -27 -50 -55 0 -41 -97 -95 -115 -65
-20 33 223 330 270 330 8 0 15 -9 15 -20z m1858 -9 c4 -25 -44 -92 -137 -188
-66 -69 -87 -79 -76 -35 11 45 67 131 126 195 58 60 81 68 87 28z m-1438 -9
c0 -28 -119 -142 -148 -142 -18 0 19 62 67 113 32 33 81 51 81 29z m2370 -4
c0 -18 -126 -138 -145 -138 -14 0 -14 3 1 31 27 53 94 119 120 119 13 0 24 -5
24 -12z m720 4 c0 -28 -119 -142 -148 -142 -19 0 11 53 60 106 26 28 49 44 64
44 13 0 24 -4 24 -8z"/>
<path d="M2734 2939 c-36 -72 -111 -267 -119 -309 -5 -30 -2 -40 20 -62 41
-41 61 -41 107 0 23 20 61 64 85 97 48 66 50 65 26 -12 l-17 -53 28 -29 c15
-16 36 -31 46 -34 27 -7 71 19 125 73 l48 49 21 -42 c37 -74 119 -100 196 -62
73 37 241 218 221 238 -5 5 -43 -25 -88 -69 -73 -73 -149 -124 -185 -124 -26
0 -40 27 -33 60 6 26 11 30 40 30 63 0 194 122 195 182 0 33 -44 86 -87 105
-29 11 -37 11 -61 -1 -36 -19 -97 -85 -151 -164 -51 -75 -145 -172 -167 -172
-22 0 -14 28 43 159 41 94 44 106 32 129 -15 26 -67 64 -80 57 -3 -3 -37 -57
-75 -121 -141 -239 -200 -263 -105 -43 23 52 41 102 41 112 0 15 -53 57 -72
57 -4 0 -19 -23 -34 -51z m666 -62 c0 -31 -130 -150 -146 -134 -10 10 43 92
77 121 32 28 69 35 69 13z"/>
<path d="M2785 2138 c-4 -12 -45 -224 -45 -234 0 -2 9 -4 19 -4 16 0 22 11 30
53 5 28 16 85 24 125 14 69 14 72 -5 72 -10 0 -21 -6 -23 -12z"/>
<path d="M4813 2134 c-8 -20 8 -36 26 -25 15 10 8 41 -9 41 -6 0 -13 -7 -17
-16z"/>
<path d="M6283 2134 c-8 -21 13 -42 28 -27 13 13 5 43 -11 43 -6 0 -13 -7 -17
-16z"/>
<path d="M7101 2136 c-8 -10 -8 -16 3 -25 10 -9 16 -8 26 3 12 15 6 36 -9 36
-5 0 -14 -6 -20 -14z"/>
<path d="M2184 2100 c-28 -42 -28 -55 -2 -45 17 7 51 85 37 85 -5 0 -21 -18
-35 -40z"/>
<path d="M2251 2099 c-13 -22 -21 -42 -18 -45 11 -11 33 10 49 46 23 55 0 54
-31 -1z"/>
<path d="M2373 2125 c-11 -8 -23 -27 -26 -42 -4 -21 3 -35 34 -66 57 -59 50
-82 -23 -79 -26 1 -38 -2 -38 -12 0 -32 76 -35 114 -5 40 31 36 80 -9 115 -19
14 -35 35 -35 45 0 21 31 33 60 24 16 -5 20 -2 20 14 0 18 -6 21 -38 21 -21 0
-47 -7 -59 -15z"/>
<path d="M7977 2098 c-25 -63 -8 -61 32 5 22 35 22 37 3 37 -13 0 -24 -13 -35
-42z"/>
<path d="M8045 2104 c-19 -47 -19 -60 1 -43 14 12 44 61 44 74 0 3 -7 5 -15 5
-8 0 -22 -16 -30 -36z"/>
<path d="M6593 2113 c-7 -2 -13 -11 -13 -19 0 -8 -6 -17 -12 -19 -9 -4 -14
-32 -15 -85 -2 -78 -1 -80 23 -86 34 -9 54 11 30 29 -26 19 -12 95 20 108 27
10 32 29 9 29 -9 0 -15 9 -15 25 0 25 -4 28 -27 18z"/>
<path d="M2602 2069 c-43 -13 -73 -61 -70 -113 4 -52 28 -67 68 -44 25 14 30
15 30 3 0 -18 29 -20 34 -2 6 19 25 151 23 153 -9 9 -58 11 -85 3z m38 -43 c0
-56 -34 -107 -61 -90 -18 11 -9 65 16 89 30 31 45 32 45 1z"/>
<path d="M3145 2073 c-56 -15 -89 -64 -83 -123 4 -45 30 -60 67 -38 26 14 30
14 35 1 13 -32 31 -3 43 72 7 43 12 79 11 81 -7 7 -55 11 -73 7z m26 -59 c-9
-81 -67 -116 -65 -39 1 27 8 44 24 57 30 25 46 18 41 -18z"/>
<path d="M3320 2067 c-35 -18 -37 -53 -5 -87 32 -33 26 -50 -16 -50 -39 0 -34
-24 5 -28 66 -8 101 58 49 96 -32 23 -26 52 12 52 28 0 34 15 9 24 -21 8 -25
8 -54 -7z"/>
<path d="M3734 2073 c-59 -12 -107 -119 -69 -156 20 -21 49 -22 65 -2 7 8 16
15 21 15 5 0 9 -7 9 -15 0 -8 6 -15 13 -15 9 0 18 27 26 80 8 45 12 83 10 85
-8 7 -54 13 -75 8z m30 -41 c-1 -7 -2 -23 -2 -36 -1 -13 -11 -34 -21 -47 -18
-22 -21 -23 -36 -8 -15 15 -16 22 -5 53 11 35 35 58 55 52 6 -1 10 -8 9 -14z"/>
<path d="M4110 2063 c-17 -12 -25 -13 -28 -5 -6 20 -31 13 -36 -10 -19 -87
-27 -140 -22 -145 15 -15 36 12 46 61 6 30 18 60 25 66 20 17 48 5 41 -17 -3
-10 -8 -40 -12 -66 -6 -43 -5 -49 11 -45 13 2 22 22 34 68 13 54 20 66 39 68
18 3 22 -1 22 -25 0 -15 -4 -45 -9 -66 -7 -31 -6 -39 6 -44 21 -8 31 12 39 85
5 51 3 67 -9 79 -13 14 -18 14 -45 1 -24 -13 -32 -13 -47 -1 -24 17 -26 16
-55 -4z"/>
<path d="M4395 2066 c-35 -15 -55 -52 -55 -100 0 -67 69 -88 121 -37 23 24 29
38 29 74 0 63 -38 88 -95 63z m55 -61 c0 -40 -30 -81 -53 -72 -24 9 -22 72 3
97 27 27 50 16 50 -25z"/>
<path d="M4641 2064 c-18 -13 -25 -14 -31 -4 -18 29 -36 0 -49 -75 -7 -42 -10
-79 -7 -82 15 -15 35 11 41 52 9 56 35 91 60 82 12 -5 15 -14 12 -30 -4 -12
-9 -41 -13 -64 -5 -36 -4 -43 10 -43 20 0 32 29 41 102 6 50 5 57 -13 67 -26
14 -23 14 -51 -5z"/>
<path d="M4965 2073 c-46 -11 -83 -79 -71 -128 14 -57 102 -58 136 -2 45 74 8
147 -65 130z m35 -39 c17 -20 2 -83 -23 -98 -42 -25 -57 53 -19 97 19 21 26
21 42 1z"/>
<path d="M5150 2067 c-36 -18 -38 -59 -4 -86 34 -26 26 -51 -17 -51 -20 0 -29
-4 -27 -12 7 -20 56 -21 84 -3 32 21 31 58 -2 84 -33 26 -26 56 11 49 28 -6
35 16 9 26 -21 8 -25 8 -54 -7z"/>
<path d="M5354 2069 c-49 -14 -68 -43 -69 -101 0 -64 20 -82 65 -56 25 14 30
15 30 3 0 -18 29 -20 34 -2 6 19 25 151 23 153 -9 9 -58 11 -83 3z m33 -60
c-6 -44 -37 -86 -56 -75 -20 13 -12 66 14 91 36 37 49 32 42 -16z"/>
<path d="M5543 2070 c-19 -8 -43 -38 -43 -55 0 -3 14 -19 31 -35 36 -32 31
-54 -12 -48 -30 5 -48 -16 -23 -26 30 -12 64 -6 84 14 28 28 25 46 -10 79 -27
24 -29 29 -16 41 9 7 22 10 30 7 8 -3 17 0 20 8 2 7 -2 16 -10 19 -19 7 -23 7
-51 -4z"/>
<path d="M6430 2067 c-25 -9 -40 -23 -53 -49 -33 -67 -3 -124 60 -116 37 4 40
24 4 31 -53 11 -44 90 12 105 18 5 32 14 32 22 0 19 -15 21 -55 7z"/>
<path d="M6754 2070 c-65 -26 -86 -129 -32 -159 53 -30 122 24 122 94 0 52
-43 84 -90 65z m46 -65 c0 -42 -30 -81 -55 -71 -14 5 -17 14 -12 48 9 70 67
90 67 23z"/>
<path d="M6991 2064 c-18 -13 -25 -14 -31 -4 -18 29 -35 0 -47 -75 -7 -43 -11
-80 -8 -83 13 -14 35 13 41 50 5 31 17 52 42 75 39 35 41 63 3 37z"/>
<path d="M7244 2070 c-65 -26 -86 -129 -32 -159 49 -28 110 14 124 86 5 26 1
37 -19 57 -28 27 -39 30 -73 16z m44 -67 c3 -44 -18 -76 -47 -71 -29 6 -26 71
5 103 24 24 39 13 42 -32z"/>
<path d="M7443 2070 c-19 -8 -43 -38 -43 -55 0 -3 14 -19 31 -35 36 -33 31
-54 -13 -48 -22 4 -28 1 -26 -11 5 -25 63 -26 87 -2 28 28 26 55 -6 79 -31 22
-26 58 6 49 24 -6 36 19 15 27 -19 7 -23 7 -51 -4z"/>
<path d="M7633 2066 c-38 -17 -62 -51 -69 -98 -9 -55 44 -92 76 -53 7 8 16 15
21 15 5 0 9 -7 9 -15 0 -8 6 -15 13 -15 8 0 18 31 28 85 10 57 12 85 5 85 -6
0 -20 2 -31 5 -11 3 -34 -2 -52 -9z m42 -26 c9 -14 -13 -86 -31 -100 -12 -11
-18 -10 -31 2 -13 13 -13 22 -3 52 14 44 50 70 65 46z"/>
<path d="M7827 2068 c-41 -15 -47 -55 -13 -85 35 -29 28 -53 -15 -53 -38 0
-35 -24 5 -28 35 -4 76 22 76 50 0 12 -12 34 -26 49 -30 31 -24 53 12 46 27
-5 34 17 8 27 -9 3 -16 6 -17 5 -1 0 -14 -5 -30 -11z"/>
<path d="M2884 1999 c9 -87 13 -99 37 -99 12 0 31 25 62 85 42 82 43 85 22 85
-18 0 -27 -11 -45 -55 -12 -30 -26 -55 -31 -55 -5 0 -9 25 -9 55 0 49 -2 55
-21 55 -21 0 -21 -3 -15 -71z"/>
<path d="M3881 1990 c-8 -45 -11 -83 -8 -87 15 -14 35 9 41 49 8 47 22 71 49
81 20 7 23 37 4 37 -7 0 -18 -5 -25 -12 -9 -9 -12 -9 -12 0 0 7 -8 12 -18 12
-15 0 -21 -14 -31 -80z"/>
<path d="M4796 2053 c-13 -45 -28 -144 -23 -150 17 -16 35 11 46 69 7 34 14
71 17 81 4 12 0 17 -15 17 -11 0 -22 -8 -25 -17z"/>
<path d="M5765 2048 c31 -140 31 -143 0 -170 -14 -12 -25 -28 -25 -35 0 -24
28 -13 61 24 37 43 112 196 98 201 -21 8 -35 -8 -53 -57 -22 -61 -36 -58 -36
10 0 46 -2 49 -25 49 -21 0 -25 -4 -20 -22z"/>
<path d="M6054 2038 c3 -18 8 -57 12 -86 10 -78 36 -70 91 28 23 41 42 78 42
83 1 4 -8 7 -20 7 -14 0 -25 -11 -36 -37 -40 -96 -36 -94 -46 -25 -7 53 -12
62 -29 62 -17 0 -19 -5 -14 -32z"/>
<path d="M6265 2048 c-30 -132 -31 -148 -11 -148 20 0 25 10 37 77 5 32 12 66
15 76 4 12 0 17 -15 17 -13 0 -22 -8 -26 -22z"/>
<path d="M7070 1993 c-8 -43 -13 -80 -12 -83 1 -3 10 -5 19 -5 13 0 20 15 29
65 18 90 17 100 -5 100 -15 0 -20 -13 -31 -77z"/>
<path d="M3436 1910 c-19 -47 -19 -50 -6 -50 9 0 60 72 60 85 0 3 -9 5 -19 5
-13 0 -24 -13 -35 -40z"/>
</g>
</svg>
