<?xml version="1.0" standalone="no"?>
<!DOCTYPE svg PUBLIC "-//W3C//DTD SVG 20010904//EN"
 "http://www.w3.org/TR/2001/REC-SVG-20010904/DTD/svg10.dtd">
<svg version="1.0" xmlns="http://www.w3.org/2000/svg"
 width="1280.000000pt" height="720.000000pt" viewBox="0 0 1280.000000 720.000000"
 preserveAspectRatio="xMidYMid meet">

<g transform="translate(0.000000,720.000000) scale(0.100000,-0.100000)"
fill="#000000" stroke="none">
<path d="M5915 5871 c-3 -5 -1 -12 5 -16 5 -3 10 1 10 9 0 18 -6 21 -15 7z"/>
<path d="M5965 5870 c3 -5 12 -7 20 -3 21 7 19 13 -6 13 -11 0 -18 -4 -14 -10z"/>
<path d="M6063 5853 c11 -10 57 -13 57 -2 0 5 -14 9 -32 9 -17 0 -28 -3 -25
-7z"/>
<path d="M5550 5811 c0 -18 17 -20 36 -6 18 14 18 14 -8 15 -16 0 -28 -4 -28
-9z"/>
<path d="M6240 5810 c0 -13 11 -13 30 0 12 8 11 10 -7 10 -13 0 -23 -4 -23
-10z"/>
<path d="M5040 5772 c0 -5 -10 -14 -22 -20 -22 -10 -21 -10 8 -9 21 1 30 6 27
15 -4 8 1 10 13 6 16 -5 16 -4 4 5 -18 13 -30 14 -30 3z"/>
<path d="M4970 5736 c0 -2 7 -9 15 -16 9 -7 15 -8 15 -2 0 5 -7 12 -15 16 -8
3 -15 4 -15 2z"/>
<path d="M4963 5686 c0 -17 4 -23 13 -19 8 3 14 9 14 13 0 4 -6 13 -14 19 -11
9 -13 7 -13 -13z"/>
<path d="M5310 5690 c20 -13 33 -13 25 0 -3 6 -14 10 -23 10 -15 0 -15 -2 -2
-10z"/>
<path d="M6552 5692 c-8 -6 -2 -9 17 -9 17 0 28 4 25 9 -7 10 -25 10 -42 0z"/>
<path d="M4890 5676 c-22 -8 -30 -15 -20 -18 8 -3 25 2 37 9 12 8 28 11 34 7
8 -4 9 -3 5 4 -9 14 -11 14 -56 -2z"/>
<path d="M5215 5630 c-3 -5 -1 -10 4 -10 6 0 11 5 11 10 0 6 -2 10 -4 10 -3 0
-8 -4 -11 -10z"/>
<path d="M4784 5622 c3 -6 -2 -15 -11 -21 -10 -6 -13 -11 -7 -11 20 0 37 27
23 36 -7 4 -9 3 -5 -4z"/>
<path d="M4930 5620 c-9 -6 -10 -10 -3 -10 6 0 15 5 18 10 8 12 4 12 -15 0z"/>
<path d="M5250 5615 c0 -8 5 -15 10 -15 6 0 10 7 10 15 0 8 -4 15 -10 15 -5 0
-10 -7 -10 -15z"/>
<path d="M4866 5605 c-9 -26 -7 -32 5 -12 6 10 9 21 6 23 -2 3 -7 -2 -11 -11z"/>
<path d="M4902 5590 c7 -10 14 -18 15 -16 6 6 -9 36 -18 36 -5 0 -4 -9 3 -20z"/>
<path d="M4720 5569 c0 -5 5 -7 10 -4 6 3 10 8 10 11 0 2 -4 4 -10 4 -5 0 -10
-5 -10 -11z"/>
<path d="M4880 5565 c0 -8 2 -15 4 -15 2 0 6 7 10 15 3 8 1 15 -4 15 -6 0 -10
-7 -10 -15z"/>
<path d="M6721 5564 c0 -11 3 -14 6 -6 3 7 2 16 -1 19 -3 4 -6 -2 -5 -13z"/>
<path d="M6763 5565 c4 -8 2 -17 -3 -20 -6 -4 -10 -11 -10 -17 0 -7 6 -6 15 2
17 14 20 50 4 50 -6 0 -9 -7 -6 -15z"/>
<path d="M4690 5556 c0 -2 7 -7 16 -10 8 -3 12 -2 9 4 -6 10 -25 14 -25 6z"/>
<path d="M5145 5530 c-3 -5 -1 -10 4 -10 6 0 11 5 11 10 0 6 -2 10 -4 10 -3 0
-8 -4 -11 -10z"/>
<path d="M4670 5520 c-8 -5 -11 -10 -6 -10 6 0 -7 -16 -28 -35 -21 -19 -33
-35 -27 -35 15 0 66 50 74 73 7 20 7 20 -13 7z"/>
<path d="M5768 5478 c9 -9 15 -9 24 0 9 9 7 12 -12 12 -19 0 -21 -3 -12 -12z"/>
<path d="M5895 5481 c19 -9 93 -15 84 -7 -2 2 -26 6 -54 10 -34 4 -43 3 -30
-3z"/>
<path d="M6801 5474 c0 -11 3 -14 6 -6 3 7 2 16 -1 19 -3 4 -6 -2 -5 -13z"/>
<path d="M4810 5455 c-6 -8 -10 -20 -7 -27 3 -9 7 -6 13 7 4 11 12 23 18 27 8
5 8 8 0 8 -6 0 -17 -7 -24 -15z"/>
<path d="M5820 5460 c0 -5 5 -10 10 -10 6 0 10 5 10 10 0 6 -4 10 -10 10 -5 0
-10 -4 -10 -10z"/>
<path d="M6058 5463 c6 -2 18 -2 25 0 6 3 1 5 -13 5 -14 0 -19 -2 -12 -5z"/>
<path d="M6138 5463 c7 -3 16 -2 19 1 4 3 -2 6 -13 5 -11 0 -14 -3 -6 -6z"/>
<path d="M4756 5425 c4 -8 8 -15 10 -15 2 0 4 7 4 15 0 8 -4 15 -10 15 -5 0
-7 -7 -4 -15z"/>
<path d="M5648 5433 c7 -3 16 -2 19 1 4 3 -2 6 -13 5 -11 0 -14 -3 -6 -6z"/>
<path d="M5680 5429 c0 -5 9 -9 20 -9 11 0 20 2 20 4 0 2 -9 6 -20 9 -11 3
-20 1 -20 -4z"/>
<path d="M6250 5431 c0 -6 4 -12 8 -15 5 -3 9 1 9 9 0 8 -4 15 -9 15 -4 0 -8
-4 -8 -9z"/>
<path d="M4566 5406 c-9 -14 -16 -31 -16 -38 0 -7 9 2 21 21 23 39 20 54 -5
17z"/>
<path d="M4600 5410 c0 -5 5 -10 11 -10 5 0 7 5 4 10 -3 6 -8 10 -11 10 -2 0
-4 -4 -4 -10z"/>
<path d="M5615 5410 c-3 -5 -1 -10 4 -10 6 0 11 5 11 10 0 6 -2 10 -4 10 -3 0
-8 -4 -11 -10z"/>
<path d="M5040 5394 c0 -8 5 -12 10 -9 6 4 8 11 5 16 -9 14 -15 11 -15 -7z"/>
<path d="M4625 5380 c-3 -5 -1 -10 4 -10 6 0 11 5 11 10 0 6 -2 10 -4 10 -3 0
-8 -4 -11 -10z"/>
<path d="M4760 5370 c0 -5 5 -10 11 -10 5 0 7 5 4 10 -3 6 -8 10 -11 10 -2 0
-4 -4 -4 -10z"/>
<path d="M5006 5345 c-3 -8 -1 -15 4 -15 6 0 10 7 10 15 0 8 -2 15 -4 15 -2 0
-6 -7 -10 -15z"/>
<path d="M5470 5350 c0 -5 7 -10 16 -10 8 0 12 5 9 10 -3 6 -10 10 -16 10 -5
0 -9 -4 -9 -10z"/>
<path d="M6430 5349 c-12 -8 -10 -9 7 -4 14 4 32 0 45 -9 30 -21 37 -20 35 4
-1 11 -7 20 -15 20 -7 0 -10 -4 -7 -10 3 -5 1 -10 -4 -10 -6 0 -11 5 -11 10 0
13 -31 13 -50 -1z"/>
<path d="M6766 5347 c3 -10 9 -15 12 -12 3 3 0 11 -7 18 -10 9 -11 8 -5 -6z"/>
<path d="M5031 5334 c0 -11 3 -14 6 -6 3 7 2 16 -1 19 -3 4 -6 -2 -5 -13z"/>
<path d="M4742 5315 c0 -16 2 -22 5 -12 2 9 2 23 0 30 -3 6 -5 -1 -5 -18z"/>
<path d="M5445 5320 c-3 -5 -2 -10 4 -10 5 0 13 5 16 10 3 6 2 10 -4 10 -5 0
-13 -4 -16 -10z"/>
<path d="M5489 5313 c-13 -17 -13 -17 6 -3 11 8 22 16 24 17 2 2 0 3 -6 3 -6
0 -17 -8 -24 -17z"/>
<path d="M4520 5311 c0 -6 5 -13 10 -16 6 -4 8 -11 5 -16 -4 -5 2 -6 11 -2 11
4 13 8 6 11 -7 2 -12 10 -12 18 0 8 -4 14 -10 14 -5 0 -10 -4 -10 -9z"/>
<path d="M6530 5301 c0 -6 5 -13 10 -16 6 -3 10 1 10 9 0 9 -4 16 -10 16 -5 0
-10 -4 -10 -9z"/>
<path d="M6755 5299 c-4 -6 -5 -12 -2 -15 2 -3 7 2 10 11 7 17 1 20 -8 4z"/>
<path d="M4711 5264 c0 -11 3 -14 6 -6 3 7 2 16 -1 19 -3 4 -6 -2 -5 -13z"/>
<path d="M5367 5263 c-4 -3 -7 -13 -7 -22 0 -13 2 -13 9 -2 7 10 13 11 31 1
12 -7 20 -7 16 -2 -3 6 -3 12 1 15 5 2 2 2 -6 0 -7 -2 -19 1 -26 7 -6 5 -15 7
-18 3z"/>
<path d="M6590 5255 c-10 -12 -10 -18 -2 -26 7 -5 10 -6 7 -3 -2 4 0 15 6 25
12 23 6 25 -11 4z"/>
<path d="M6700 5265 c0 -7 30 -13 34 -7 3 4 -4 9 -15 9 -10 1 -19 0 -19 -2z"/>
<path d="M6615 5240 c-3 -6 1 -7 9 -4 18 7 21 14 7 14 -6 0 -13 -4 -16 -10z"/>
<path d="M6680 5240 c0 -5 4 -10 9 -10 6 0 13 5 16 10 3 6 -1 10 -9 10 -9 0
-16 -4 -16 -10z"/>
<path d="M4650 5215 c0 -8 4 -15 8 -15 5 0 9 7 9 15 0 8 -4 15 -9 15 -4 0 -8
-7 -8 -15z"/>
<path d="M4945 5220 c3 -5 8 -10 11 -10 2 0 4 5 4 10 0 6 -5 10 -11 10 -5 0
-7 -4 -4 -10z"/>
<path d="M4691 5164 c0 -11 3 -14 6 -6 3 7 2 16 -1 19 -3 4 -6 -2 -5 -13z"/>
<path d="M5293 5169 c-10 -10 -8 -15 5 -26 16 -12 16 -14 0 -24 -10 -5 -18
-18 -17 -27 0 -14 2 -14 6 -2 4 8 12 20 20 25 9 7 10 19 5 38 -6 22 -10 25
-19 16z"/>
<path d="M4278 5115 c-10 -13 -18 -35 -18 -49 0 -20 -4 -24 -17 -20 -15 5 -15
4 -3 -5 20 -14 50 13 42 41 -2 11 1 24 8 28 7 4 11 12 9 18 -2 6 -12 0 -21
-13z"/>
<path d="M4656 5085 c-4 -20 -10 -43 -13 -51 -3 -8 -1 -14 5 -14 5 0 12 21 16
47 7 55 1 69 -8 18z"/>
<path d="M4915 5110 c3 -5 8 -10 11 -10 2 0 4 5 4 10 0 6 -5 10 -11 10 -5 0
-7 -4 -4 -10z"/>
<path d="M5206 5052 c-2 -4 -1 -14 5 -22 7 -12 9 -10 9 8 0 23 -5 28 -14 14z"/>
<path d="M8340 5012 c-45 -22 -73 -75 -65 -121 4 -19 19 -57 35 -85 69 -122
153 -360 184 -521 40 -205 36 -443 -9 -655 -36 -167 -120 -376 -221 -547 -10
-17 -15 -35 -11 -39 12 -13 145 85 208 155 150 162 234 317 290 531 26 100 37
367 20 488 -27 191 -91 402 -171 567 -64 133 -116 207 -160 230 -37 19 -56 18
-100 -3z"/>
<path d="M4241 5004 c0 -11 3 -14 6 -6 3 7 2 16 -1 19 -3 4 -6 -2 -5 -13z"/>
<path d="M4210 4989 c0 -5 5 -7 10 -4 6 3 10 8 10 11 0 2 -4 4 -10 4 -5 0 -10
-5 -10 -11z"/>
<path d="M4180 4975 c0 -8 4 -15 10 -15 5 0 7 7 4 15 -4 8 -8 15 -10 15 -2 0
-4 -7 -4 -15z"/>
<path d="M5220 4971 c0 -25 6 -27 13 -6 4 8 2 17 -3 20 -6 4 -10 -3 -10 -14z"/>
<path d="M4388 4945 c2 -14 6 -25 7 -25 1 0 5 11 7 25 3 16 1 25 -7 25 -8 0
-10 -9 -7 -25z"/>
<path d="M7891 4933 c-79 -40 -92 -124 -35 -219 111 -183 176 -345 214 -534
31 -149 31 -401 0 -550 -55 -271 -172 -500 -365 -717 -64 -72 -207 -189 -312
-257 -40 -25 -73 -49 -73 -52 0 -9 104 5 190 26 216 53 368 130 499 254 66 62
167 191 208 263 89 160 174 448 193 659 17 183 -13 402 -86 622 -63 188 -199
434 -271 489 -44 33 -114 41 -162 16z"/>
<path d="M4380 4901 c0 -5 -3 -16 -6 -25 -4 -11 -1 -16 10 -16 18 0 22 35 6
45 -5 3 -10 2 -10 -4z"/>
<path d="M4862 4885 c0 -16 2 -22 5 -12 2 9 2 23 0 30 -3 6 -5 -1 -5 -18z"/>
<path d="M4120 4859 c0 -5 5 -9 11 -9 5 0 7 -4 4 -10 -3 -5 0 -10 8 -10 20 0
17 28 -5 33 -10 3 -18 1 -18 -4z"/>
<path d="M4850 4820 c0 -19 3 -21 12 -12 9 9 9 15 0 24 -9 9 -12 7 -12 -12z"/>
<path d="M5153 4806 c5 -16 27 -19 27 -3 0 7 -7 14 -15 14 -9 0 -14 -5 -12
-11z"/>
<path d="M4085 4800 c-3 -6 1 -7 9 -4 18 7 21 14 7 14 -6 0 -13 -4 -16 -10z"/>
<path d="M4372 4801 c-8 -5 -12 -16 -10 -25 2 -12 6 -10 15 9 6 14 10 25 10
25 -1 0 -8 -4 -15 -9z"/>
<path d="M8842 4795 c-22 -9 -38 -27 -48 -52 -15 -34 -15 -42 1 -98 88 -305
97 -366 99 -607 0 -109 4 -198 7 -198 8 0 36 66 60 145 57 182 77 354 60 534
-19 208 -46 273 -116 286 -16 3 -45 -2 -63 -10z"/>
<path d="M4610 4760 c0 -22 5 -40 10 -40 6 0 10 18 10 40 0 22 -4 40 -10 40
-5 0 -10 -18 -10 -40z"/>
<path d="M5151 4764 c0 -11 3 -14 6 -6 3 7 2 16 -1 19 -3 4 -6 -2 -5 -13z"/>
<path d="M4842 4745 c0 -16 2 -22 5 -12 2 9 2 23 0 30 -3 6 -5 -1 -5 -18z"/>
<path d="M7507 4734 c-70 -47 -75 -109 -18 -222 154 -307 159 -597 14 -885
-56 -113 -100 -176 -177 -255 -210 -217 -498 -289 -776 -195 -169 57 -338 165
-442 283 -59 67 -92 85 -140 75 -81 -18 -143 -69 -177 -145 -64 -144 -22 -244
161 -386 200 -155 374 -240 673 -327 24 -7 111 -12 220 -11 178 0 181 0 270
33 119 44 164 67 260 136 149 106 265 237 363 410 80 141 149 343 166 485 3
25 11 85 17 134 12 93 8 151 -26 342 -29 161 -100 332 -202 486 -46 69 -122
86 -186 42z"/>
<path d="M4211 4704 c0 -11 3 -14 6 -6 3 7 2 16 -1 19 -3 4 -6 -2 -5 -13z"/>
<path d="M5136 4689 c-8 -42 0 -50 9 -9 4 17 5 34 2 36 -2 3 -7 -10 -11 -27z"/>
<path d="M4611 4605 c1 -48 1 -49 9 -15 5 19 4 41 0 50 -6 10 -9 -1 -9 -35z"/>
<path d="M4850 4595 c0 -8 5 -15 10 -15 6 0 10 7 10 15 0 8 -4 15 -10 15 -5 0
-10 -7 -10 -15z"/>
<path d="M4193 4520 c0 -25 2 -35 4 -22 2 12 2 32 0 45 -2 12 -4 2 -4 -23z"/>
<path d="M4851 4544 c0 -11 3 -14 6 -6 3 7 2 16 -1 19 -3 4 -6 -2 -5 -13z"/>
<path d="M4025 4540 c-3 -5 1 -10 9 -10 9 0 16 5 16 10 0 6 -4 10 -9 10 -6 0
-13 -4 -16 -10z"/>
<path d="M4045 4500 c-4 -6 -11 -8 -16 -5 -5 4 -9 -2 -9 -11 0 -16 1 -16 20 1
11 10 20 20 20 22 0 7 -9 3 -15 -7z"/>
<path d="M4370 4490 c0 -19 3 -21 12 -12 9 9 9 15 0 24 -9 9 -12 7 -12 -12z"/>
<path d="M5135 4411 c-3 -5 -1 -12 5 -16 5 -3 10 1 10 9 0 18 -6 21 -15 7z"/>
<path d="M4380 4400 c0 -5 5 -10 11 -10 5 0 7 5 4 10 -3 6 -8 10 -11 10 -2 0
-4 -4 -4 -10z"/>
<path d="M4651 4374 c0 -11 3 -14 6 -6 3 7 2 16 -1 19 -3 4 -6 -2 -5 -13z"/>
<path d="M5137 4358 c9 -10 19 -18 24 -18 4 0 5 8 2 18 -2 10 -13 18 -23 18
-18 0 -18 -2 -3 -18z"/>
<path d="M4021 4354 c0 -11 3 -14 6 -6 3 7 2 16 -1 19 -3 4 -6 -2 -5 -13z"/>
<path d="M4902 4340 c0 -14 2 -19 5 -12 2 6 2 18 0 25 -3 6 -5 1 -5 -13z"/>
<path d="M4660 4328 c0 -9 5 -20 10 -23 13 -8 13 5 0 25 -8 13 -10 13 -10 -2z"/>
<path d="M5126 4327 c3 -10 9 -15 12 -12 3 3 0 11 -7 18 -10 9 -11 8 -5 -6z"/>
<path d="M4430 4295 c0 -14 5 -25 10 -25 6 0 10 11 10 25 0 14 -4 25 -10 25
-5 0 -10 -11 -10 -25z"/>
<path d="M4925 4300 c-3 -5 -1 -10 4 -10 6 0 11 5 11 10 0 6 -2 10 -4 10 -3 0
-8 -4 -11 -10z"/>
<path d="M4072 4260 c0 -14 2 -19 5 -12 2 6 2 18 0 25 -3 6 -5 1 -5 -13z"/>
<path d="M4670 4257 c0 -9 5 -17 10 -17 6 0 10 -9 10 -20 0 -11 4 -20 10 -20
11 0 3 26 -17 55 -11 17 -13 17 -13 2z"/>
<path d="M4046 4245 c-3 -9 -6 -22 -5 -28 0 -7 5 -1 10 12 5 13 8 26 5 28 -2
2 -6 -3 -10 -12z"/>
<path d="M4926 4231 c-4 -6 -2 -11 3 -11 6 0 11 -8 11 -17 1 -10 8 -29 16 -43
10 -16 13 -18 8 -5 -4 11 -8 30 -9 43 -2 28 -20 48 -29 33z"/>
<path d="M4243 4183 c1 -24 5 -37 9 -30 5 7 8 3 8 -12 0 -19 3 -22 12 -13 8 8
8 15 -1 26 -7 8 -16 27 -21 43 -7 25 -8 23 -7 -14z"/>
<path d="M4041 4174 c0 -11 3 -14 6 -6 3 7 2 16 -1 19 -3 4 -6 -2 -5 -13z"/>
<path d="M5202 4160 c0 -14 2 -19 5 -12 2 6 2 18 0 25 -3 6 -5 1 -5 -13z"/>
<path d="M3868 4135 c-2 -22 0 -34 6 -32 6 2 10 12 8 22 -2 10 1 14 7 10 13
-7 14 -3 5 19 -10 27 -22 18 -26 -19z"/>
<path d="M4727 4143 c-14 -13 -7 -43 11 -43 14 0 14 2 3 9 -8 5 -11 16 -8 25
7 17 5 20 -6 9z"/>
<path d="M5220 4140 c0 -5 5 -10 11 -10 5 0 7 5 4 10 -3 6 -8 10 -11 10 -2 0
-4 -4 -4 -10z"/>
<path d="M4982 4100 c0 -19 2 -27 5 -17 2 9 2 25 0 35 -3 9 -5 1 -5 -18z"/>
<path d="M5003 4116 c4 -10 7 -22 7 -27 0 -5 4 -9 9 -9 12 0 2 38 -12 47 -7 4
-8 0 -4 -11z"/>
<path d="M3880 4090 c-9 -6 -10 -10 -3 -10 6 0 15 5 18 10 8 12 4 12 -15 0z"/>
<path d="M4073 4075 c0 -14 3 -25 8 -25 4 0 6 10 4 21 -6 32 -12 34 -12 4z"/>
<path d="M4267 4086 c-4 -10 -1 -13 8 -9 8 3 12 9 9 14 -7 12 -11 11 -17 -5z"/>
<path d="M5206 4081 c-4 -7 -5 -15 -2 -18 9 -9 19 4 14 18 -4 11 -6 11 -12 0z"/>
<path d="M4546 4067 c3 -10 9 -15 12 -12 3 3 0 11 -7 18 -10 9 -11 8 -5 -6z"/>
<path d="M3888 4035 c-7 -32 -5 -39 9 -34 5 2 6 18 3 34 l-6 30 -6 -30z"/>
<path d="M4270 4043 c0 -12 5 -25 10 -28 13 -8 13 15 0 35 -8 12 -10 11 -10
-7z"/>
<path d="M5000 4050 c0 -5 5 -10 10 -10 6 0 10 5 10 10 0 6 -4 10 -10 10 -5 0
-10 -4 -10 -10z"/>
<path d="M4492 4038 c5 -15 37 -18 41 -3 1 6 -9 12 -22 13 -16 3 -22 -1 -19
-10z"/>
<path d="M4781 4014 c0 -11 3 -14 6 -6 3 7 2 16 -1 19 -3 4 -6 -2 -5 -13z"/>
<path d="M4500 3999 c0 -5 9 -9 20 -9 11 0 20 2 20 4 0 2 -9 6 -20 9 -11 3
-20 1 -20 -4z"/>
<path d="M5290 3990 c0 -11 4 -20 8 -20 4 0 8 9 8 20 0 11 -4 20 -8 20 -4 0
-8 -9 -8 -20z"/>
<path d="M5081 3978 c-1 -10 -6 -18 -12 -18 -5 0 -7 -5 -3 -11 9 -15 28 16 20
34 -2 7 -5 4 -5 -5z"/>
<path d="M4104 3958 c3 -15 26 -23 26 -8 0 6 -4 9 -9 6 -5 -4 -12 -1 -14 4 -3
6 -4 5 -3 -2z"/>
<path d="M5280 3941 c0 -5 5 -13 10 -16 6 -3 10 -2 10 4 0 5 -4 13 -10 16 -5
3 -10 2 -10 -4z"/>
<path d="M3925 3921 c-4 -13 -4 -25 -1 -28 3 -4 6 2 7 13 0 18 1 18 9 -1 6
-13 9 -15 9 -5 0 8 -3 21 -8 29 -7 11 -10 9 -16 -8z"/>
<path d="M4808 3923 c7 -3 16 -2 19 1 4 3 -2 6 -13 5 -11 0 -14 -3 -6 -6z"/>
<path d="M5360 3921 c0 -7 9 -21 20 -33 11 -12 20 -18 20 -14 0 4 -9 19 -20
33 -11 14 -20 20 -20 14z"/>
<path d="M4565 3890 c3 -5 13 -10 21 -10 8 0 14 5 14 10 0 6 -9 10 -21 10 -11
0 -17 -4 -14 -10z"/>
<path d="M5119 3881 c14 -26 31 -36 31 -19 0 7 -9 19 -21 26 -19 12 -19 11
-10 -7z"/>
<path d="M5172 3861 c1 -16 6 -27 10 -25 12 7 10 54 -2 54 -6 0 -9 -13 -8 -29z"/>
<path d="M3952 3860 c0 -14 2 -19 5 -12 2 6 2 18 0 25 -3 6 -5 1 -5 -13z"/>
<path d="M5407 3861 c-3 -14 0 -19 13 -18 15 1 16 5 9 19 -12 23 -15 23 -22
-1z"/>
<path d="M4870 3861 c0 -5 7 -11 14 -14 10 -4 13 -1 9 9 -6 15 -23 19 -23 5z"/>
<path d="M3905 3840 c-4 -12 -5 -24 -2 -27 3 -2 8 5 12 17 4 12 5 24 2 27 -3
2 -8 -5 -12 -17z"/>
<path d="M4631 3844 c0 -11 3 -14 6 -6 3 7 2 16 -1 19 -3 4 -6 -2 -5 -13z"/>
<path d="M3881 3814 c0 -11 3 -14 6 -6 3 7 2 16 -1 19 -3 4 -6 -2 -5 -13z"/>
<path d="M4883 3793 c-1 -19 1 -22 8 -12 11 17 12 39 2 39 -5 0 -9 -12 -10
-27z"/>
<path d="M5187 3813 c-4 -3 -7 -11 -7 -17 0 -6 5 -5 12 2 6 6 9 14 7 17 -3 3
-9 2 -12 -2z"/>
<path d="M4201 3788 c-1 -15 4 -30 9 -33 12 -7 12 12 0 40 -8 18 -9 17 -9 -7z"/>
<path d="M4394 3802 c4 -7 1 -12 -7 -12 -7 0 -14 -6 -14 -14 0 -8 8 -11 19 -8
20 5 24 27 6 38 -7 4 -8 3 -4 -4z"/>
<path d="M4182 3780 c0 -14 2 -19 5 -12 2 6 2 18 0 25 -3 6 -5 1 -5 -13z"/>
<path d="M4231 3774 c0 -11 3 -14 6 -6 3 7 2 16 -1 19 -3 4 -6 -2 -5 -13z"/>
<path d="M3880 3766 c0 -8 5 -18 10 -21 6 -3 10 1 10 9 0 8 -4 18 -10 21 -5 3
-10 -1 -10 -9z"/>
<path d="M5232 3767 c-9 -11 -8 -18 8 -32 11 -10 20 -13 20 -7 0 7 -6 12 -12
12 -9 0 -8 3 2 10 11 7 12 12 4 20 -8 8 -14 7 -22 -3z"/>
<path d="M5424 3759 c0 -10 4 -19 8 -19 4 0 8 6 8 14 0 8 -4 17 -8 20 -4 2 -8
-4 -8 -15z"/>
<path d="M4960 3735 c0 -8 4 -15 10 -15 5 0 7 7 4 15 -4 8 -8 15 -10 15 -2 0
-4 -7 -4 -15z"/>
<path d="M4431 3714 c0 -11 3 -14 6 -6 3 7 2 16 -1 19 -3 4 -6 -2 -5 -13z"/>
<path d="M4700 3725 c0 -5 5 -17 10 -25 5 -8 10 -10 10 -5 0 6 -5 17 -10 25
-5 8 -10 11 -10 5z"/>
<path d="M5325 3710 c-3 -5 -12 -7 -20 -3 -8 3 -15 0 -15 -6 0 -17 47 -13 54
4 6 16 -9 21 -19 5z"/>
<path d="M4210 3706 c0 -2 8 -10 18 -17 15 -13 16 -12 3 4 -13 16 -21 21 -21
13z"/>
<path d="M4980 3701 c0 -9 30 -24 36 -18 2 1 -6 8 -16 15 -11 7 -20 8 -20 3z"/>
<path d="M3902 3670 c0 -19 2 -27 5 -17 2 9 2 25 0 35 -3 9 -5 1 -5 -18z"/>
<path d="M4050 3663 c0 -12 5 -25 11 -28 19 -12 22 3 5 27 l-16 22 0 -21z"/>
<path d="M4765 3670 c-4 -6 -10 -8 -15 -5 -16 10 -18 -24 -2 -37 15 -12 16
-11 3 5 -12 15 -11 17 2 17 8 0 17 -6 20 -12 2 -7 4 -1 3 14 -1 31 -2 32 -11
18z"/>
<path d="M4245 3650 c3 -5 8 -10 11 -10 2 0 4 5 4 10 0 6 -5 10 -11 10 -5 0
-7 -4 -4 -10z"/>
<path d="M5050 3630 c0 -5 7 -7 15 -4 8 4 15 8 15 10 0 2 -7 4 -15 4 -8 0 -15
-4 -15 -10z"/>
<path d="M4294 3594 c3 -9 6 -20 6 -25 0 -6 4 -8 9 -5 12 8 2 46 -11 46 -6 0
-7 -7 -4 -16z"/>
<path d="M4486 3602 c-3 -5 1 -15 9 -22 16 -14 20 -3 6 19 -5 8 -11 9 -15 3z"/>
<path d="M3970 3585 c0 -24 16 -51 22 -39 3 5 -1 20 -8 34 -12 22 -14 22 -14
5z"/>
<path d="M5070 3580 c6 -11 13 -20 15 -20 3 0 5 9 5 20 0 11 -7 20 -15 20 -13
0 -14 -4 -5 -20z"/>
<path d="M4810 3573 c0 -15 39 -57 47 -50 3 4 -6 19 -20 33 -15 15 -27 22 -27
17z"/>
<path d="M3930 3561 c0 -5 5 -13 10 -16 6 -3 10 -2 10 4 0 5 -4 13 -10 16 -5
3 -10 2 -10 -4z"/>
<path d="M4552 3556 c7 -8 15 -12 17 -11 5 6 -10 25 -20 25 -5 0 -4 -6 3 -14z"/>
<path d="M4114 3514 c9 -8 16 -20 16 -25 0 -5 4 -9 10 -9 11 0 1 32 -14 42
-20 14 -28 8 -12 -8z"/>
<path d="M4340 3505 c0 -8 2 -15 4 -15 2 0 6 7 10 15 3 8 1 15 -4 15 -6 0 -10
-7 -10 -15z"/>
<path d="M4895 3510 c3 -5 8 -10 11 -10 2 0 4 5 4 10 0 6 -5 10 -11 10 -5 0
-7 -4 -4 -10z"/>
<path d="M4590 3506 c0 -2 7 -7 16 -10 8 -3 12 -2 9 4 -6 10 -25 14 -25 6z"/>
<path d="M3970 3490 c0 -6 7 -10 15 -10 8 0 15 2 15 4 0 2 -7 6 -15 10 -8 3
-15 1 -15 -4z"/>
<path d="M4100 3490 c0 -5 5 -10 10 -10 6 0 10 5 10 10 0 6 -4 10 -10 10 -5 0
-10 -4 -10 -10z"/>
<path d="M4908 3463 c7 -3 16 -2 19 1 4 3 -2 6 -13 5 -11 0 -14 -3 -6 -6z"/>
<path d="M4057 3429 c7 -7 15 -10 18 -7 3 3 -2 9 -12 12 -14 6 -15 5 -6 -5z"/>
<path d="M4125 3430 c3 -5 8 -10 11 -10 2 0 4 5 4 10 0 6 -5 10 -11 10 -5 0
-7 -4 -4 -10z"/>
<path d="M4407 3425 c3 -8 9 -12 14 -9 12 7 11 11 -5 17 -10 4 -13 1 -9 -8z"/>
<path d="M4655 3430 c-3 -5 -1 -10 4 -10 6 0 11 5 11 10 0 6 -2 10 -4 10 -3 0
-8 -4 -11 -10z"/>
<path d="M4975 3430 c3 -5 8 -10 11 -10 2 0 4 5 4 10 0 6 -5 10 -11 10 -5 0
-7 -4 -4 -10z"/>
<path d="M4441 3406 c-16 -19 -11 -29 8 -17 7 5 12 14 9 21 -3 9 -8 7 -17 -4z"/>
<path d="M4645 3390 c-3 -5 -1 -10 4 -10 6 0 11 5 11 10 0 6 -2 10 -4 10 -3 0
-8 -4 -11 -10z"/>
<path d="M4515 3340 c-3 -5 -1 -10 4 -10 6 0 11 5 11 10 0 6 -2 10 -4 10 -3 0
-8 -4 -11 -10z"/>
<path d="M4555 3270 c3 -5 11 -10 16 -10 6 0 7 5 4 10 -3 6 -11 10 -16 10 -6
0 -7 -4 -4 -10z"/>
<path d="M7649 2117 c-63 -24 -103 -51 -136 -96 -93 -121 -79 -339 28 -436 56
-50 99 -65 189 -65 129 0 206 48 259 160 36 76 37 209 3 286 -28 61 -82 117
-136 139 -54 23 -162 29 -207 12z m170 -123 c41 -36 54 -66 66 -141 8 -53 -18
-159 -48 -191 -75 -80 -178 -61 -235 43 -26 48 -22 188 6 243 28 53 73 82 129
82 35 0 50 -7 82 -36z"/>
<path d="M8810 2111 c-177 -63 -240 -342 -112 -500 16 -20 53 -49 83 -64 49
-25 62 -28 139 -24 96 4 144 23 197 79 99 103 110 306 24 424 -67 90 -211 128
-331 85z m186 -106 c44 -29 68 -91 68 -180 1 -67 -3 -87 -24 -124 -31 -55 -65
-81 -116 -88 -50 -6 -100 26 -134 87 -20 37 -24 58 -23 125 0 85 19 141 62
179 40 37 112 37 167 1z"/>
<path d="M9356 2115 c-54 -19 -105 -73 -116 -121 -22 -95 29 -162 163 -215 65
-26 97 -55 97 -89 0 -32 -22 -53 -70 -68 -28 -9 -48 -8 -102 7 -77 21 -85 17
-90 -44 l-3 -40 50 -13 c73 -19 204 -9 256 20 68 38 101 117 80 195 -14 53
-45 80 -154 133 -101 50 -116 65 -102 106 15 42 67 56 147 39 65 -13 77 -9 78
25 0 8 3 25 6 37 5 18 0 23 -33 32 -53 15 -160 13 -207 -4z"/>
<path d="M4883 2112 l-161 -2 -6 -83 c-3 -45 -5 -176 -3 -292 l2 -210 188 -3
187 -2 0 49 0 50 -122 3 -123 3 0 75 0 75 107 3 c104 3 108 3 114 27 3 13 3
33 -1 44 -6 19 -16 21 -113 23 l-107 3 -3 67 -3 67 118 3 118 3 3 46 c2 38 0
47 -15 50 -10 2 -91 3 -180 1z"/>
<path d="M5328 2108 c-9 -7 -25 -47 -37 -88 -38 -128 -81 -270 -117 -381 -19
-59 -34 -109 -34 -113 0 -3 29 -6 65 -6 l64 0 11 43 c6 23 16 59 22 80 l11 38
91 -3 90 -3 24 -77 24 -78 64 0 c75 0 74 -2 40 102 -43 132 -84 262 -111 353
-34 114 -43 132 -69 139 -38 10 -122 6 -138 -6z m107 -190 c15 -51 29 -105 32
-120 l5 -28 -64 0 c-36 0 -67 2 -70 5 -3 4 7 54 23 113 16 59 29 110 29 115 0
4 4 7 9 7 4 0 21 -42 36 -92z"/>
<path d="M5903 2113 l-23 -4 0 -293 0 -293 73 -6 c140 -11 274 16 344 69 79
60 124 191 103 299 -22 114 -77 178 -185 215 -46 16 -82 20 -174 19 -64 -1
-126 -4 -138 -6z m259 -102 c24 -10 51 -27 60 -38 55 -61 64 -178 21 -263 -35
-69 -82 -95 -168 -95 l-60 0 -3 195 c-1 107 0 200 2 207 8 20 97 16 148 -6z"/>
<path d="M6461 2107 c-8 -10 -11 -95 -9 -298 l3 -284 188 -3 187 -2 0 50 0 50
-120 0 c-134 0 -135 0 -139 77 -5 82 -4 83 120 83 l109 0 0 45 0 45 -105 0
c-93 0 -105 2 -115 19 -14 27 -13 104 2 119 8 8 51 12 126 12 l113 0 -3 48 -3
47 -171 3 c-137 2 -173 0 -183 -11z"/>
<path d="M6994 2096 c-3 -13 -4 -37 -2 -52 3 -29 4 -29 83 -34 l80 -5 3 -242
2 -243 65 0 65 0 0 245 c0 226 1 245 18 246 9 1 24 2 32 3 8 2 36 3 63 4 l47
2 0 50 0 50 -225 0 -225 0 -6 -24z"/>
<path d="M8072 2108 c-9 -9 -12 -87 -12 -288 0 -201 3 -279 12 -288 17 -17
219 -15 283 2 157 42 235 142 235 302 0 130 -60 220 -174 263 -48 18 -79 21
-194 21 -94 0 -142 -4 -150 -12z m288 -100 c25 -13 54 -38 66 -55 52 -78 36
-227 -30 -287 -33 -29 -98 -56 -138 -56 -71 0 -68 -9 -68 209 0 109 3 201 7
204 16 16 120 6 163 -15z"/>
<path d="M3260 2060 l0 -49 78 -3 77 -3 3 -242 2 -243 24 -6 c12 -3 40 -4 62
-2 l39 3 5 245 5 245 83 3 82 3 0 49 0 50 -230 0 -230 0 0 -50z"/>
<path d="M3798 2083 c-6 -16 -32 -100 -58 -188 -27 -88 -63 -207 -80 -264 -36
-117 -34 -122 39 -117 53 3 62 14 80 95 16 72 25 77 129 67 37 -3 68 -6 69 -6
1 0 12 -32 24 -70 11 -39 25 -73 31 -76 15 -10 117 -13 123 -5 5 10 6 7 -78
271 -35 113 -73 231 -82 263 l-18 57 -84 0 c-82 0 -84 -1 -95 -27z m126 -189
c14 -50 28 -98 31 -106 5 -12 -6 -17 -49 -22 -91 -10 -97 -2 -70 87 8 29 20
70 26 92 19 74 18 72 27 55 5 -8 20 -56 35 -106z"/>
<path d="M4228 2104 c-5 -4 -8 -137 -8 -296 l0 -288 60 0 59 0 3 118 3 117 48
-2 c75 -2 80 -10 127 -190 l11 -43 64 0 c36 0 65 3 65 8 0 4 -13 51 -29 106
-19 64 -39 108 -55 125 -33 35 -33 42 5 70 83 62 76 204 -12 256 -29 17 -56
20 -184 23 -82 2 -153 0 -157 -4z m249 -94 c51 -31 56 -97 12 -141 -16 -16
-31 -19 -82 -17 l-62 3 -3 73 c-2 46 2 79 9 88 17 20 88 17 126 -6z"/>
</g>
</svg>
