<?xml version="1.0" standalone="no"?>
<!DOCTYPE svg PUBLIC "-//W3C//DTD SVG 20010904//EN"
 "http://www.w3.org/TR/2001/REC-SVG-20010904/DTD/svg10.dtd">
<svg version="1.0" xmlns="http://www.w3.org/2000/svg"
 width="225.000000pt" height="225.000000pt" viewBox="0 0 225.000000 225.000000"
 preserveAspectRatio="xMidYMid meet">

<g transform="translate(0.000000,225.000000) scale(0.100000,-0.100000)"
fill="#000000" stroke="none">
<path d="M1221 2221 c-19 -12 -32 -86 -21 -116 11 -28 40 -31 47 -5 4 13 3 13
-6 0 -18 -25 -32 8 -25 60 8 59 14 67 31 45 11 -16 13 -16 13 -3 0 19 -22 29
-39 19z"/>
<path d="M1370 2180 c0 -5 5 -10 10 -10 6 0 10 5 10 10 0 6 -4 10 -10 10 -5 0
-10 -4 -10 -10z"/>
<path d="M997 2164 c-11 -12 -8 -59 5 -72 29 -29 50 -1 38 48 -6 25 -29 37
-43 24z m33 -51 c0 -13 -4 -23 -10 -23 -5 0 -10 17 -10 38 0 27 3 33 10 22 5
-8 10 -25 10 -37z"/>
<path d="M1078 2130 c2 -22 7 -40 11 -40 4 0 5 16 3 35 -3 21 0 35 7 35 6 0
11 -16 11 -35 0 -19 5 -35 11 -35 6 0 9 16 7 38 -3 31 -7 37 -28 40 -24 3 -25
1 -22 -38z"/>
<path d="M718 2155 c-3 -6 5 -32 18 -60 27 -58 32 -91 9 -61 -8 11 -15 28 -15
38 0 10 -4 18 -10 18 -16 0 -12 -36 8 -60 22 -28 56 -18 46 14 -16 51 -51 120
-56 111z"/>
<path d="M940 2148 c0 -30 13 -78 21 -78 10 0 0 71 -12 85 -6 5 -9 3 -9 -7z"/>
<path d="M1290 2138 c0 -13 -3 -33 -6 -45 -4 -14 -2 -23 5 -23 6 0 11 11 11
24 0 14 7 31 15 39 13 13 13 16 -1 21 -23 9 -24 8 -24 -16z"/>
<path d="M877 2144 c-11 -12 -8 -59 5 -72 18 -18 38 -15 38 6 0 14 -2 15 -10
2 -7 -11 -11 -9 -19 13 -6 16 -11 33 -11 38 0 12 17 12 23 -1 3 -6 4 -5 3 2
-3 14 -20 21 -29 12z"/>
<path d="M1354 2113 c-3 -16 -7 -34 -10 -40 -2 -7 0 -13 5 -13 5 0 13 18 19
40 5 22 6 40 1 40 -5 0 -11 -12 -15 -27z"/>
<path d="M1480 2098 c-22 -47 -25 -78 -10 -78 6 0 10 11 10 24 0 14 6 31 13
38 12 13 21 58 11 58 -3 0 -14 -19 -24 -42z"/>
<path d="M797 2123 c-4 -3 -7 -11 -7 -17 0 -6 4 -5 9 3 6 10 10 10 16 1 4 -6
2 -17 -4 -23 -6 -6 -11 -20 -11 -30 0 -15 5 -18 23 -13 12 3 25 6 29 6 9 0
-31 80 -41 80 -4 0 -11 -3 -14 -7z m33 -59 c0 -8 -4 -12 -10 -9 -5 3 -10 10
-10 16 0 5 5 9 10 9 6 0 10 -7 10 -16z"/>
<path d="M1404 2119 c-3 -6 -1 -22 7 -35 14 -27 4 -47 -12 -24 -9 13 -10 13
-6 0 2 -8 11 -16 19 -18 19 -4 33 27 18 42 -5 5 -10 17 -9 26 0 10 2 11 6 2 2
-6 9 -10 14 -6 5 3 7 10 4 15 -8 12 -32 11 -41 -2z"/>
<path d="M1550 2120 c0 -5 5 -10 10 -10 6 0 10 5 10 10 0 6 -4 10 -10 10 -5 0
-10 -4 -10 -10z"/>
<path d="M1530 2080 c0 -8 -7 -27 -14 -42 -8 -15 -11 -30 -7 -32 13 -9 43 66
32 77 -8 8 -11 7 -11 -3z"/>
<path d="M639 2052 c-13 -6 -12 -12 6 -45 25 -43 42 -39 19 5 -21 40 -9 49 13
9 24 -42 37 -39 16 4 -17 35 -25 39 -54 27z"/>
<path d="M1580 2049 c0 -5 5 -7 10 -4 6 3 10 2 10 -3 0 -6 -11 -13 -25 -16
-30 -8 -34 -41 -6 -49 14 -3 23 5 35 30 9 19 14 39 11 44 -8 12 -35 11 -35 -2z
m5 -48 c-3 -6 -11 -11 -17 -11 -6 0 -6 6 2 15 14 17 26 13 15 -4z"/>
<path d="M467 2016 c-17 -13 -15 -17 24 -70 39 -52 59 -68 59 -47 0 5 -7 14
-16 22 -10 8 -13 21 -9 36 5 23 -10 33 -17 11 -3 -8 -9 -4 -17 10 -13 24 -6
46 11 36 7 -4 8 -2 4 4 -9 15 -17 15 -39 -2z"/>
<path d="M587 2024 c-3 -4 0 -16 8 -28 8 -11 15 -27 15 -36 0 -8 -10 0 -21 18
-27 41 -46 42 -22 1 25 -43 35 -49 56 -34 18 13 18 15 -6 49 -13 20 -27 33
-30 30z"/>
<path d="M1632 1989 c-25 -43 -14 -54 12 -14 9 14 21 25 27 25 6 0 1 -13 -10
-29 -23 -31 -26 -41 -13 -41 8 0 42 53 42 67 0 4 -8 13 -18 19 -15 10 -21 6
-40 -27z"/>
<path d="M1728 1963 c21 -8 13 -23 -13 -23 -32 0 -44 -27 -19 -44 16 -12 20
-11 36 15 23 37 23 59 1 58 -11 0 -13 -3 -5 -6z m-8 -37 c0 -3 -4 -8 -10 -11
-5 -3 -10 -1 -10 4 0 6 5 11 10 11 6 0 10 -2 10 -4z"/>
<path d="M1018 1910 c-159 -18 -308 -92 -440 -218 -43 -41 -99 -108 -124 -148
-51 -82 -101 -217 -112 -301 l-7 -58 -70 -5 -70 -5 3 -95 c3 -111 20 -188 63
-301 59 -152 195 -323 334 -419 64 -44 217 -115 295 -136 91 -26 367 -26 458
-1 225 61 424 202 545 383 26 40 47 76 47 82 0 5 -24 26 -54 46 l-55 36 16 38
c8 20 20 48 25 62 8 22 11 23 21 9 11 -14 91 -69 101 -69 7 0 34 92 45 154 12
65 15 245 5 295 l-6 31 -69 0 c-65 0 -70 2 -79 26 -6 14 -10 27 -10 30 0 2 33
4 74 4 l74 0 -13 45 c-8 25 -23 66 -34 91 -23 52 -22 52 -93 -14 l-36 -34 -29
53 c-15 30 -29 57 -31 60 -1 3 21 20 50 39 29 18 55 35 57 37 16 12 -194 243
-222 243 -7 0 -24 -27 -39 -60 l-26 -60 -59 38 c-154 101 -340 143 -535 122z
m270 -26 c241 -50 463 -236 555 -467 205 -511 -171 -1067 -722 -1067 -100 0
-177 15 -272 51 -227 88 -392 265 -472 508 -19 57 -22 88 -22 221 1 143 3 161
29 235 91 262 313 464 571 520 84 19 241 18 333 -1z m732 -724 c0 -5 -4 -10
-10 -10 -5 0 -10 5 -10 10 0 6 5 10 10 10 6 0 10 -4 10 -10z m-10 -200 c0 -5
-2 -10 -4 -10 -3 0 -8 5 -11 10 -3 6 -1 10 4 10 6 0 11 -4 11 -10z"/>
<path d="M1091 1793 c-2 -40 -52 -166 -142 -356 -141 -295 -179 -423 -164
-543 9 -73 57 -165 111 -213 101 -89 216 -112 342 -68 39 14 69 21 66 16 -3
-5 -11 -9 -19 -9 -8 0 -17 -4 -20 -10 -6 -10 59 10 96 31 51 27 109 92 129
145 24 65 25 93 5 100 -10 4 -15 20 -15 45 0 28 -4 39 -15 39 -11 0 -15 -11
-15 -40 0 -22 5 -40 10 -40 6 0 10 -7 10 -16 0 -8 -4 -12 -10 -9 -5 3 -10 -3
-10 -14 0 -11 5 -23 10 -26 6 -3 10 1 10 10 0 9 5 13 10 10 16 -10 12 -35 -6
-35 -8 0 -13 -4 -10 -9 10 -15 -6 -73 -16 -63 -6 6 -6 18 2 32 9 16 9 25 -1
36 -6 8 -9 29 -7 47 3 17 2 41 -3 52 -8 21 -15 -69 -12 -149 2 -27 -1 -36 -8
-29 -10 10 3 210 16 244 3 9 -6 23 -25 37 -26 20 -30 28 -29 72 1 42 5 50 20
50 20 0 26 -24 9 -35 -18 -11 -11 -27 10 -22 13 3 20 0 20 -9 0 -8 -5 -14 -10
-14 -6 0 -5 -8 2 -20 12 -19 13 -19 20 6 4 15 3 35 -2 45 -6 10 -10 27 -10 39
0 12 -12 34 -26 50 -19 20 -27 39 -28 69 -1 44 4 50 25 25 10 -12 10 -20 1
-35 -10 -15 -8 -22 9 -38 12 -11 27 -17 34 -15 18 7 24 -34 11 -65 -8 -18 -8
-25 2 -29 6 -2 12 -18 12 -36 0 -18 5 -37 12 -44 6 -6 11 -34 9 -62 -1 -33 2
-50 10 -50 19 0 3 149 -29 265 -21 77 -27 124 -28 206 -1 104 -6 129 -25 129
-6 0 -3 -10 5 -21 12 -18 13 -27 2 -58 -28 -80 -35 -104 -31 -112 3 -4 -2 -6
-11 -5 -9 1 -25 20 -35 41 -22 44 -18 61 4 19 9 -17 17 -23 21 -15 4 6 2 11
-3 11 -6 0 -11 5 -11 11 0 13 -40 48 -55 49 -11 0 -154 253 -198 350 -17 37
-26 48 -26 33z m232 -420 c-7 -3 -13 -14 -13 -25 0 -11 -5 -18 -12 -15 -16 5
-17 42 -1 42 6 0 15 3 19 8 4 4 10 4 13 1 3 -4 0 -9 -6 -11z m114 -25 c-3 -8
-6 -5 -6 6 -1 11 2 17 5 13 3 -3 4 -12 1 -19z m-234 -41 c21 -17 22 -24 2 -24
-8 0 -12 3 -10 7 2 4 -7 12 -20 18 -14 7 -25 16 -25 22 0 11 19 3 53 -23z
m224 16 c-4 -3 -1 -13 6 -22 11 -14 10 -14 -5 -2 -16 12 -16 31 -1 31 4 0 3
-3 0 -7z m-67 -49 c0 -14 -6 -24 -14 -24 -8 0 -16 -6 -18 -12 -6 -17 14 -70
30 -83 9 -7 10 -18 5 -33 l-9 -23 -11 23 c-19 39 -26 62 -24 76 1 7 -8 12 -21
12 -25 0 -103 59 -79 60 8 0 22 -7 32 -16 15 -14 21 -14 53 0 36 15 45 29 26
41 -6 4 -8 11 -4 16 10 16 34 -11 34 -37z m75 -556 c5 4 5 1 1 -6 -5 -7 -14
-11 -22 -8 -7 3 -11 0 -8 -7 4 -11 -62 -64 -70 -56 -3 2 4 15 15 28 10 13 19
17 19 10 0 -10 3 -10 12 -1 8 8 8 15 -1 26 -15 18 5 28 30 15 9 -5 20 -5 24
-1z"/>
<path d="M1451 1124 c0 -11 3 -14 6 -6 3 7 2 16 -1 19 -3 4 -6 -2 -5 -13z"/>
<path d="M1462 1030 c0 -14 2 -19 5 -12 2 6 2 18 0 25 -3 6 -5 1 -5 -13z"/>
<path d="M2001 1324 c0 -11 3 -14 6 -6 3 7 2 16 -1 19 -3 4 -6 -2 -5 -13z"/>
<path d="M332 469 c-29 -27 -50 -54 -47 -59 4 -6 28 9 57 35 50 45 66 51 55
20 -4 -8 -14 -15 -24 -15 -21 0 -67 -66 -53 -75 6 -4 18 7 28 24 9 17 24 31
33 31 9 0 22 7 29 15 10 12 9 20 -6 44 l-19 29 -53 -49z"/>
<path d="M1884 455 c-9 -21 23 -55 53 -55 18 0 23 5 22 23 -1 17 -2 18 -6 4
-7 -26 -28 -15 -28 14 0 28 -32 39 -41 14z m27 -8 c-1 -12 -15 -9 -19 4 -3 6
1 10 8 8 6 -3 11 -8 11 -12z"/>
<path d="M1842 405 c-10 -12 -8 -20 14 -45 15 -16 31 -27 36 -24 5 4 0 17 -13
30 -12 13 -19 30 -16 38 8 20 -4 20 -21 1z"/>
<path d="M377 372 c-9 -10 -17 -26 -17 -34 0 -20 27 -31 36 -16 4 7 3 8 -4 4
-7 -4 -12 -1 -12 7 0 15 31 47 46 47 5 0 1 -7 -9 -14 -13 -10 -15 -16 -6 -21
12 -8 31 14 26 30 -6 18 -43 16 -60 -3z"/>
<path d="M1782 358 c-19 -19 -14 -37 22 -74 31 -32 35 -33 49 -19 9 9 14 22
11 30 -7 18 -10 18 -34 5 -18 -9 -19 -8 -14 18 7 34 -15 59 -34 40z m28 -40
c0 -6 -7 -5 -15 2 -8 7 -15 17 -15 22 0 6 7 5 15 -2 8 -7 15 -17 15 -22z m45
-38 c-3 -5 -13 -10 -21 -10 -8 0 -12 5 -9 10 3 6 13 10 21 10 8 0 12 -4 9 -10z"/>
<path d="M452 308 c2 -20 -2 -33 -11 -36 -10 -3 -12 0 -8 12 4 9 2 16 -4 16
-6 0 -9 -8 -7 -17 2 -10 12 -18 23 -18 16 0 20 7 20 33 0 32 9 43 18 20 2 -7
8 -10 12 -6 11 11 -4 28 -26 28 -17 0 -20 -6 -17 -32z"/>
<path d="M1706 295 c-17 -13 -17 -14 3 -36 12 -13 21 -26 21 -31 0 -4 7 -8 16
-8 13 0 12 5 -5 29 -23 32 -26 41 -13 41 5 0 15 -11 22 -25 7 -14 20 -25 28
-25 11 0 8 9 -10 32 -30 39 -38 41 -62 23z"/>
<path d="M506 271 c-22 -24 -17 -55 9 -58 11 -2 14 0 8 3 -19 8 -16 28 6 48
15 13 20 14 24 4 2 -7 8 -10 12 -6 11 10 -4 28 -24 28 -10 0 -26 -9 -35 -19z"/>
<path d="M1550 266 c0 -2 7 -9 15 -16 13 -11 14 -10 9 4 -5 14 -24 23 -24 12z"/>
<path d="M1526 252 c-11 -18 11 -49 44 -60 30 -11 49 -37 36 -50 -4 -3 -16 -1
-26 6 -16 10 -18 9 -13 -4 3 -8 15 -14 27 -12 16 2 21 10 21 33 0 24 -6 33
-34 46 -19 9 -38 24 -41 34 -4 13 -9 15 -14 7z"/>
<path d="M1637 253 c-10 -10 -8 -23 4 -23 5 0 7 5 4 10 -3 6 -1 10 5 10 7 0 9
-12 5 -34 -8 -40 6 -53 34 -34 19 14 19 14 -1 46 -19 31 -37 40 -51 25z m43
-49 c0 -8 -4 -12 -10 -9 -5 3 -10 10 -10 16 0 5 5 9 10 9 6 0 10 -7 10 -16z"/>
<path d="M590 240 c0 -5 7 -6 17 -3 11 4 14 3 9 -5 -4 -7 -15 -12 -25 -12 -10
0 -24 -6 -30 -14 -11 -13 -6 -21 26 -40 15 -8 47 49 39 70 -6 16 -36 19 -36 4z
m10 -39 c0 -6 -4 -13 -10 -16 -5 -3 -10 1 -10 9 0 9 5 16 10 16 6 0 10 -4 10
-9z"/>
<path d="M673 228 c-18 -25 -42 -86 -36 -92 9 -9 25 -7 19 2 -3 5 3 22 13 38
24 40 32 64 22 64 -5 0 -13 -6 -18 -12z"/>
<path d="M827 146 c-20 -74 -20 -76 -9 -76 5 0 16 27 25 60 19 67 20 80 9 80
-4 0 -16 -29 -25 -64z"/>
<path d="M720 179 c0 -5 5 -7 10 -4 6 3 10 -1 10 -9 0 -8 -10 -16 -22 -18 -23
-3 -39 -38 -19 -38 6 0 11 7 11 15 0 8 5 15 11 15 6 0 8 -8 4 -19 -3 -11 -2
-22 3 -25 12 -7 37 68 28 83 -9 14 -36 14 -36 0z"/>
<path d="M1474 135 c8 -19 11 -37 6 -40 -5 -3 -14 11 -20 30 -6 19 -16 35 -21
35 -12 0 -12 -5 6 -46 12 -30 18 -34 37 -28 13 3 24 7 26 9 6 5 -29 75 -38 75
-6 0 -4 -15 4 -35z"/>
<path d="M792 148 c-15 -15 -16 -68 0 -68 6 0 9 3 5 6 -3 4 0 22 8 40 14 35 9
44 -13 22z"/>
<path d="M1373 143 c-21 -8 -15 -31 12 -49 14 -9 22 -21 18 -27 -3 -6 -1 -7 5
-3 20 12 13 36 -14 46 -16 6 -22 14 -18 22 6 9 9 9 12 0 2 -7 8 -10 13 -6 5 3
7 10 4 15 -7 10 -13 10 -32 2z"/>
<path d="M880 119 c-6 -11 -10 -30 -8 -42 3 -25 36 -35 49 -15 14 22 10 65 -7
72 -22 8 -22 8 -34 -15z m21 -52 c-13 -13 -15 21 -3 50 6 15 8 13 10 -11 2
-16 -1 -33 -7 -39z"/>
<path d="M963 105 c-3 -9 3 -25 12 -35 10 -11 15 -23 10 -28 -4 -4 -10 -1 -12
6 -5 14 -23 17 -23 3 0 -17 34 -22 49 -7 13 14 13 17 -2 34 -21 23 -22 33 -2
26 8 -4 15 -1 15 5 0 17 -40 13 -47 -4z"/>
<path d="M1258 79 c5 -48 22 -52 22 -5 0 19 6 36 13 39 6 2 1 4 -13 4 -23 0
-25 -3 -22 -38z"/>
<path d="M1075 55 c0 -30 3 -55 8 -55 4 0 8 6 8 13 1 6 3 19 4 27 1 8 3 25 4
38 0 14 5 20 12 16 6 -4 8 -20 4 -40 -7 -40 1 -45 16 -8 14 39 3 64 -29 64
-26 0 -27 -2 -27 -55z"/>
<path d="M1165 90 c-7 -23 2 -60 15 -60 4 0 7 18 7 40 -2 43 -12 52 -22 20z"/>
<path d="M1203 70 c2 -43 12 -52 22 -20 5 16 -9 60 -19 60 -2 0 -3 -18 -3 -40z"/>
<path d="M1370 70 c0 -5 5 -10 10 -10 6 0 10 5 10 10 0 6 -4 10 -10 10 -5 0
-10 -4 -10 -10z"/>
</g>
</svg>
