<?xml version="1.0" standalone="no"?>
<!DOCTYPE svg PUBLIC "-//W3C//DTD SVG 20010904//EN"
 "http://www.w3.org/TR/2001/REC-SVG-20010904/DTD/svg10.dtd">
<svg version="1.0" xmlns="http://www.w3.org/2000/svg"
 width="900.000000pt" height="900.000000pt" viewBox="0 0 900.000000 900.000000"
 preserveAspectRatio="xMidYMid meet">

<g transform="translate(0.000000,900.000000) scale(0.100000,-0.100000)"
fill="#000000" stroke="none">
<path d="M3545 3976 c-299 -59 -499 -246 -597 -559 -20 -62 -23 -94 -23 -222
0 -137 3 -158 29 -240 45 -145 89 -218 191 -321 99 -99 173 -144 305 -186 67
-20 94 -23 245 -23 158 1 176 3 250 28 127 43 220 100 311 191 169 169 241
364 232 628 -4 116 -8 145 -36 225 -103 302 -357 476 -712 488 -82 3 -149 0
-195 -9z m320 -87 c306 -96 480 -447 424 -856 -14 -105 -31 -160 -76 -245 -70
-133 -175 -221 -315 -265 -36 -12 -88 -17 -163 -17 -92 1 -121 5 -177 26 -213
80 -360 252 -420 493 -18 73 -22 118 -22 240 -1 168 17 251 75 368 58 114 184
218 314 259 96 31 257 29 360 -3z"/>
<path d="M5180 3983 c-193 -32 -320 -175 -320 -358 0 -162 84 -290 316 -481
187 -154 250 -238 261 -349 17 -159 -92 -290 -252 -303 -182 -14 -325 89 -325
237 0 20 -4 42 -9 50 -17 26 -29 -20 -34 -134 -7 -145 -3 -163 42 -182 67 -29
145 -42 243 -43 123 0 186 13 271 58 80 41 128 92 171 182 29 62 31 71 31 185
0 115 -1 123 -32 186 -42 85 -127 176 -271 292 -139 112 -215 186 -249 244
-20 35 -24 56 -25 118 0 67 4 82 29 123 20 33 45 56 83 77 49 27 64 30 140 29
143 -2 228 -52 251 -149 18 -75 18 -75 28 -75 5 0 11 10 15 23 8 32 7 237 -1
238 -5 0 -15 2 -23 4 -8 1 -50 10 -92 19 -71 15 -188 19 -248 9z"/>
<path d="M2580 3958 c-27 -6 -193 -7 -418 -4 -339 5 -443 -1 -314 -18 68 -9
89 -27 102 -89 19 -83 9 -1259 -10 -1312 -15 -40 -41 -59 -94 -70 -15 -3 -25
-9 -21 -13 10 -10 484 -11 491 -1 5 9 -4 11 -91 26 -45 7 -52 12 -70 48 -18
37 -19 62 -20 365 l0 325 166 -1 c142 -1 171 -4 197 -20 33 -19 62 -75 62
-119 0 -31 18 -33 24 -2 9 43 25 261 21 266 -3 2 -17 -6 -31 -20 -25 -24 -27
-24 -232 -24 l-207 0 0 290 0 290 169 -2 c92 -2 186 -7 206 -13 48 -13 88 -59
96 -111 4 -22 12 -38 18 -36 14 5 22 50 30 165 8 104 12 99 -74 80z"/>
<path d="M5820 3951 c0 -5 22 -11 50 -15 30 -4 60 -16 77 -30 l28 -24 6 -484
c4 -265 11 -501 17 -523 36 -151 74 -226 154 -306 63 -64 149 -110 249 -134
75 -17 245 -20 321 -4 161 33 317 158 376 301 58 140 63 189 69 668 2 239 9
452 14 473 8 30 18 42 44 53 19 8 44 14 55 14 11 0 20 4 20 9 0 6 -88 10 -215
10 -205 0 -265 -8 -156 -23 67 -9 92 -31 102 -92 12 -73 11 -770 -2 -882 -25
-233 -95 -349 -257 -425 -63 -30 -74 -32 -172 -31 -134 1 -197 23 -279 99 -75
70 -118 151 -142 268 -17 82 -19 139 -19 522 0 265 4 444 10 467 14 49 31 65
80 73 95 16 34 24 -190 24 -132 0 -240 -3 -240 -8z"/>
<path d="M6322 2258 c-34 -23 -61 -43 -59 -44 2 -2 25 3 52 11 26 8 58 15 71
15 13 0 26 4 29 10 7 11 -12 50 -23 49 -4 0 -35 -19 -70 -41z"/>
<path d="M1950 2230 c-101 -3 -153 -8 -133 -12 28 -6 32 -12 38 -51 9 -58 1
-497 -9 -519 -4 -9 -15 -19 -24 -21 -10 -3 28 -5 83 -4 55 0 89 2 75 4 -48 9
-50 17 -50 164 l0 139 66 0 c72 0 104 -12 104 -38 0 -15 2 -15 10 -2 5 8 10
32 10 53 0 34 -2 37 -19 27 -21 -11 -129 -14 -155 -4 -13 5 -16 25 -16 120 l0
114 78 0 c64 0 82 -4 95 -18 10 -10 17 -24 17 -31 0 -7 5 -9 10 -6 15 9 13 95
-2 93 -7 -1 -87 -5 -178 -8z"/>
<path d="M4555 1988 c-119 -306 -126 -323 -142 -340 -8 -9 -25 -19 -37 -21
-11 -2 15 -4 59 -4 44 -1 72 1 63 4 -24 6 -23 38 6 114 17 45 30 65 47 72 25
9 144 6 154 -5 12 -12 65 -150 65 -169 0 -17 8 -19 73 -18 39 1 62 4 51 6 -35
7 -59 42 -102 148 -122 305 -146 361 -157 373 -10 11 -25 -19 -80 -160z m75
31 c0 -6 14 -44 30 -86 17 -41 30 -79 30 -84 0 -5 -33 -9 -74 -9 l-75 0 24 68
c38 109 44 122 55 122 5 0 10 -5 10 -11z"/>
<path d="M3037 2143 c-4 -3 -7 -115 -7 -247 0 -133 -4 -246 -8 -252 -4 -6 -14
-14 -22 -17 -8 -3 19 -6 60 -6 67 -1 72 1 50 12 -21 10 -26 22 -32 67 -8 72
-10 320 -2 320 4 0 96 -92 206 -205 110 -113 206 -205 214 -205 12 0 14 43 14
253 0 253 0 254 23 265 18 9 7 11 -58 10 -68 0 -75 -2 -48 -10 27 -9 32 -16
36 -52 8 -81 8 -346 -1 -346 -5 0 -47 39 -94 88 -124 128 -272 283 -278 290
-15 20 -48 41 -53 35z"/>
<path d="M5195 2141 c-84 -24 -142 -68 -178 -135 -31 -59 -31 -193 0 -253 29
-54 98 -109 159 -128 62 -19 243 -20 268 -2 9 7 22 32 27 56 11 48 5 67 -10
30 -19 -52 -46 -64 -140 -64 -75 0 -92 3 -131 27 -91 53 -124 113 -125 223 0
96 7 124 41 165 43 51 79 64 174 65 98 0 144 -19 171 -73 l16 -32 7 51 c4 29
3 56 -1 60 -12 12 -242 20 -278 10z"/>
<path d="M6220 2141 c-50 -11 -79 -28 -128 -74 -109 -106 -107 -282 6 -387 57
-53 104 -70 195 -70 173 0 286 109 287 278 0 113 -39 181 -133 228 -54 28
-161 40 -227 25z m133 -22 c118 -32 189 -204 146 -350 -15 -50 -64 -108 -105
-125 -106 -45 -226 7 -280 121 -31 65 -33 189 -5 251 40 89 142 132 244 103z"/>
<path d="M6780 1941 c0 -253 -5 -300 -34 -311 -14 -6 6 -8 59 -8 44 0 70 3 57
5 -13 3 -27 14 -31 26 -12 32 -23 367 -12 367 5 0 42 -35 82 -77 150 -159 326
-333 338 -333 8 0 11 67 11 243 0 133 4 247 8 253 4 6 16 16 27 22 16 9 5 11
-60 11 -66 0 -75 -2 -52 -11 15 -5 29 -19 32 -31 3 -12 4 -102 3 -200 l-3
-178 -200 210 c-109 116 -205 213 -212 215 -10 4 -13 -36 -13 -203z"/>
<path d="M2310 2129 c13 -6 27 -12 30 -15 3 -3 7 -90 10 -194 l5 -188 30 -44
c41 -57 83 -77 168 -78 115 0 186 44 212 134 10 34 15 97 15 200 0 83 4 156 8
162 4 6 16 16 27 22 16 9 5 11 -60 12 -71 0 -77 -2 -55 -13 l25 -13 0 -189 -1
-190 -27 -41 c-33 -49 -62 -64 -126 -64 -56 0 -105 28 -132 75 -15 25 -18 57
-19 180 -2 238 -3 231 23 243 17 8 4 11 -68 11 -69 0 -84 -3 -65 -10z"/>
<path d="M3740 2133 c37 -13 40 -33 40 -232 0 -222 -5 -268 -29 -274 -9 -2 50
-7 130 -11 154 -9 192 -5 249 24 140 72 186 275 90 397 -61 78 -148 103 -350
102 -80 0 -138 -3 -130 -6z m291 -32 c88 -27 158 -115 166 -211 8 -86 -12
-155 -58 -200 -45 -43 -94 -60 -177 -60 -96 0 -108 9 -116 91 -11 105 -5 372
7 388 13 15 115 11 178 -8z"/>
<path d="M5698 2124 c22 -15 22 -19 22 -242 0 -125 -4 -232 -8 -238 -4 -6 -14
-14 -22 -17 -8 -3 23 -5 70 -5 47 0 76 3 65 5 -11 3 -23 10 -27 17 -4 6 -8
115 -8 242 0 230 0 231 23 242 18 9 7 11 -58 11 -75 1 -78 0 -57 -15z"/>
<path d="M1980 1491 c93 -14 140 -75 140 -183 0 -76 -24 -122 -75 -144 -45
-19 -71 -17 -122 5 -102 47 -119 237 -27 297 13 9 22 19 20 22 -12 11 -87 -51
-106 -88 -23 -46 -26 -116 -6 -163 54 -130 261 -143 336 -22 26 42 36 121 21
167 -23 70 -104 120 -191 117 -32 -2 -31 -2 10 -8z"/>
<path d="M3557 1490 c18 -4 40 -13 48 -20 13 -10 15 -9 15 9 0 19 -5 21 -47
20 -45 -1 -46 -2 -16 -9z"/>
<path d="M5554 1484 c13 -12 16 -39 16 -130 0 -179 26 -219 140 -219 62 0 71
3 99 29 41 39 51 80 51 208 0 91 3 109 18 117 13 8 6 10 -31 11 -44 0 -47 -1
-33 -16 24 -23 23 -226 -2 -274 -21 -44 -56 -62 -105 -56 -75 9 -97 57 -97
214 0 78 4 104 16 116 14 15 11 16 -36 16 -47 0 -50 -1 -36 -16z"/>
<path d="M3476 1468 c-9 -12 -16 -38 -16 -57 0 -30 9 -44 59 -91 57 -55 81
-87 81 -110 0 -20 -49 -60 -73 -60 -13 0 -36 9 -50 20 -30 24 -37 25 -37 6 0
-26 30 -46 71 -46 74 0 118 40 119 105 0 36 -6 45 -70 105 -59 55 -70 70 -70
98 0 17 5 32 10 32 6 0 10 5 10 10 0 17 -18 11 -34 -12z"/>
<path d="M2285 1423 c14 -14 16 -35 13 -145 -2 -100 -6 -131 -18 -139 -11 -7
11 -9 73 -7 83 3 90 5 113 31 34 39 31 73 -9 111 l-33 31 18 30 c24 39 23 51
-7 80 -21 22 -33 25 -95 25 -67 0 -70 -1 -55 -17z m115 -13 c41 -41 17 -114
-35 -108 -28 3 -30 6 -33 52 -2 27 -1 55 2 62 8 20 43 17 66 -6z m19 -141 c50
-54 30 -129 -34 -129 -29 0 -37 5 -45 26 -11 29 -13 107 -3 117 14 15 63 6 82
-14z"/>
<path d="M2593 1429 c15 -9 17 -27 17 -142 0 -90 -4 -137 -12 -145 -9 -9 -1
-12 38 -11 27 1 41 3 32 6 -15 4 -18 16 -18 64 0 59 0 59 29 59 24 0 37 -10
66 -50 20 -28 46 -57 58 -65 26 -18 172 -22 162 -4 -4 6 -2 30 5 55 l13 44 52
0 c59 0 68 -7 87 -68 12 -40 15 -42 51 -42 l38 0 -24 23 c-13 12 -48 79 -77
150 -30 70 -59 126 -64 124 -5 -2 -33 -60 -61 -130 -29 -70 -58 -133 -65 -142
-25 -31 -56 -17 -120 52 -59 65 -62 67 -105 64 l-45 -3 0 81 c0 80 0 81 26 81
56 0 90 -49 77 -113 -6 -28 -5 -31 10 -19 22 19 36 63 26 88 -15 41 -48 54
-134 54 -59 -1 -75 -3 -62 -11z m468 -105 c11 -25 18 -52 15 -60 -6 -16 -62
-19 -71 -4 -6 10 22 110 31 110 3 0 14 -21 25 -46z"/>
<path d="M3813 1420 c-46 -21 -77 -62 -88 -117 -5 -26 0 -47 17 -81 30 -60 61
-81 128 -87 43 -3 47 -3 19 3 -75 17 -119 76 -119 160 0 83 46 132 123 132 47
0 79 -20 104 -65 39 -68 25 -172 -28 -209 -13 -9 -19 -16 -13 -16 13 0 64 38
81 60 38 50 34 140 -10 189 -48 52 -139 66 -214 31z"/>
<path d="M4345 1429 c44 -7 65 -15 77 -31 l18 -23 0 33 0 32 -77 -1 -78 -1 60
-9z"/>
<path d="M4560 1430 c12 -7 15 -35 15 -145 0 -110 -3 -138 -15 -145 -10 -7 2
-9 40 -9 30 1 47 3 38 6 -23 6 -31 69 -26 189 3 69 8 98 18 105 10 6 -1 9 -35
9 -35 0 -46 -3 -35 -10z"/>
<path d="M5113 1433 c9 -2 17 -14 18 -26 4 -152 0 -260 -12 -268 -9 -5 25 -9
84 -9 93 0 97 1 97 22 0 17 -3 19 -12 10 -7 -7 -31 -12 -55 -12 -57 0 -63 14
-63 149 0 86 3 113 16 125 14 15 11 16 -38 15 -29 -1 -45 -3 -35 -6z"/>
<path d="M6000 1303 c0 -115 -3 -144 -16 -157 -14 -15 -11 -16 33 -15 26 1 41
3 32 6 -10 2 -20 14 -23 26 -9 32 -7 197 2 197 4 0 59 -52 122 -115 63 -63
118 -115 122 -115 5 0 8 64 8 143 0 98 4 147 12 155 9 9 2 12 -32 12 -39 0
-42 -2 -26 -13 15 -11 19 -32 23 -104 9 -145 10 -145 -132 -3 l-125 125 0
-142z"/>
<path d="M6408 1433 c9 -3 12 -43 12 -148 0 -105 -3 -145 -12 -148 -7 -3 12
-5 42 -5 30 0 48 2 40 5 -27 10 -30 26 -30 155 0 111 2 128 18 137 13 8 6 10
-33 10 -27 0 -44 -3 -37 -6z"/>
<path d="M6635 1423 c14 -14 16 -35 13 -145 -2 -100 -6 -131 -18 -139 -10 -7
18 -9 96 -7 103 3 113 5 147 30 71 55 84 154 30 219 -40 47 -79 59 -188 59
-90 0 -95 -1 -80 -17z m154 -3 c80 -23 120 -98 98 -185 -17 -68 -59 -97 -136
-93 -49 3 -56 6 -62 28 -9 32 -11 207 -3 238 7 25 43 29 103 12z"/>
<path d="M4225 1411 c-46 -27 -67 -67 -67 -122 0 -95 59 -149 172 -157 76 -5
110 7 110 40 0 21 0 21 -14 2 -12 -15 -26 -19 -73 -19 -102 1 -159 62 -151
161 5 55 25 89 63 105 13 5 15 8 5 8 -8 1 -29 -7 -45 -18z"/>
<path d="M4809 1293 c-42 -105 -61 -141 -79 -150 -23 -12 -21 -13 25 -13 28 0
45 4 38 8 -9 6 -10 17 -3 42 16 57 22 61 80 58 l52 -3 22 -52 c20 -52 22 -53
61 -52 31 0 36 2 19 9 -19 8 -48 62 -111 214 -16 39 -34 71 -39 73 -5 2 -34
-59 -65 -134z m85 19 c19 -50 15 -62 -22 -62 -48 0 -52 10 -30 68 22 59 27 58
52 -6z"/>
<path d="M7108 1368 c-15 -35 -41 -98 -59 -141 -21 -51 -40 -82 -53 -87 -16
-7 -12 -9 21 -9 34 -1 40 2 37 17 -3 9 2 34 11 55 l16 38 56 -3 56 -3 17 -50
c16 -47 19 -50 55 -53 l39 -3 -22 18 c-12 10 -47 76 -76 148 -30 71 -58 131
-63 132 -4 2 -20 -25 -35 -59z m64 -95 c2 -15 -4 -18 -37 -18 -36 0 -40 3 -38
23 2 12 10 39 19 60 l16 37 19 -42 c10 -24 19 -51 21 -60z"/>
</g>
</svg>
