<?xml version="1.0" standalone="no"?>
<!DOCTYPE svg PUBLIC "-//W3C//DTD SVG 20010904//EN"
 "http://www.w3.org/TR/2001/REC-SVG-20010904/DTD/svg10.dtd">
<svg version="1.0" xmlns="http://www.w3.org/2000/svg"
 width="1930.000000pt" height="1930.000000pt" viewBox="0 0 1930.000000 1930.000000"
 preserveAspectRatio="xMidYMid meet">

<g transform="translate(0.000000,1930.000000) scale(0.100000,-0.100000)"
fill="#000000" stroke="none">
<path d="M9409 16848 c-30 -40 -70 -97 -89 -125 -18 -29 -37 -53 -42 -53 -4 0
-8 -7 -8 -15 0 -8 -4 -15 -9 -15 -5 0 -21 -25 -36 -55 -15 -30 -32 -52 -36
-49 -5 3 -9 -3 -9 -13 0 -10 -16 -35 -35 -56 -19 -21 -35 -45 -35 -53 0 -14
-7 -24 -37 -59 -7 -7 -13 -18 -13 -24 0 -6 -7 -19 -15 -28 -32 -39 -65 -90
-82 -125 -10 -21 -23 -38 -28 -38 -6 0 -17 -15 -23 -34 -7 -19 -27 -48 -44
-65 -18 -17 -28 -31 -23 -31 5 0 0 -7 -12 -15 -11 -8 -24 -30 -27 -49 -5 -25
-11 -34 -21 -29 -10 3 -15 -2 -15 -17 0 -12 -6 -28 -12 -35 -30 -33 -38 -45
-38 -55 0 -5 -4 -10 -10 -10 -5 0 -10 -8 -10 -18 0 -10 -13 -32 -30 -48 -16
-16 -30 -37 -30 -46 0 -9 -9 -20 -21 -23 -11 -4 -18 -12 -16 -18 2 -7 -7 -29
-20 -49 -12 -21 -23 -41 -23 -45 -1 -5 -14 -24 -30 -43 -17 -19 -30 -39 -30
-45 0 -7 -11 -22 -25 -35 -14 -13 -25 -29 -25 -37 0 -7 -6 -13 -14 -13 -7 0
-23 -22 -35 -50 -12 -27 -26 -50 -31 -50 -6 0 -10 -3 -9 -7 3 -18 -14 -52 -27
-57 -8 -3 -14 -10 -14 -16 0 -18 -43 -70 -57 -70 -10 0 -11 -8 -7 -27 4 -16 3
-25 -1 -21 -11 11 -35 -11 -35 -32 0 -9 -9 -25 -20 -35 -11 -10 -17 -21 -15
-25 3 -4 -2 -10 -10 -14 -8 -3 -15 -12 -15 -21 0 -8 -4 -15 -10 -15 -5 0 -10
-6 -10 -14 0 -7 -12 -22 -27 -32 -17 -11 -23 -19 -15 -22 13 -4 -17 -52 -65
-101 -16 -16 -21 -31 -17 -44 5 -16 3 -19 -10 -14 -11 4 -16 1 -16 -10 0 -9
-11 -31 -25 -49 -14 -18 -25 -38 -25 -44 0 -6 -4 -9 -9 -6 -5 4 -7 -2 -5 -12
4 -11 -6 -25 -25 -40 -17 -12 -31 -30 -31 -38 0 -8 -12 -31 -26 -50 -15 -19
-24 -37 -20 -41 10 -10 -14 -32 -30 -26 -10 4 -12 0 -8 -11 3 -9 1 -16 -5 -16
-6 0 -11 -7 -11 -16 0 -8 -13 -29 -30 -46 -16 -16 -30 -39 -30 -50 0 -12 -3
-19 -6 -15 -9 9 -44 -31 -44 -52 0 -10 -11 -30 -25 -45 -14 -15 -25 -33 -25
-41 0 -8 -6 -18 -13 -22 -14 -8 -31 -42 -29 -55 1 -5 -7 -8 -18 -8 -12 0 -17
-5 -14 -14 3 -7 -2 -16 -10 -19 -9 -4 -16 -13 -16 -22 0 -8 -4 -15 -10 -15 -5
0 -7 -7 -4 -15 4 -8 1 -15 -5 -15 -6 0 -11 -6 -11 -14 0 -8 -3 -16 -7 -18 -12
-5 -63 -83 -63 -96 0 -7 -4 -12 -8 -12 -5 0 -19 -20 -31 -45 -12 -25 -27 -43
-32 -40 -5 4 -9 -1 -9 -9 0 -9 -4 -16 -10 -16 -5 0 -9 -3 -9 -7 3 -18 -2 -30
-19 -49 -9 -10 -23 -32 -30 -47 -7 -17 -17 -25 -24 -21 -6 4 -8 3 -4 -4 3 -6
-1 -17 -9 -25 -8 -9 -15 -20 -15 -26 0 -6 -9 -15 -20 -21 -11 -6 -18 -15 -15
-20 9 -14 -14 -50 -31 -50 -8 0 -14 -6 -12 -13 2 -6 -7 -22 -20 -35 -12 -12
-22 -31 -22 -43 0 -11 -4 -17 -10 -14 -5 3 -10 -2 -10 -12 0 -10 -12 -32 -27
-50 -31 -33 -67 -92 -68 -108 0 -5 -11 -20 -25 -32 -15 -12 -35 -38 -45 -57
-11 -20 -23 -36 -26 -36 -4 0 -11 -15 -14 -32 -4 -18 -15 -42 -25 -53 -27 -31
-69 -102 -64 -108 3 -3 -6 -24 -20 -46 -15 -23 -22 -41 -17 -41 5 0 44 55 87
122 44 67 120 184 169 260 50 76 126 194 170 263 44 69 88 135 97 147 10 11
20 29 23 39 4 11 11 19 16 19 10 0 -3 -21 -116 -195 -39 -60 -100 -155 -135
-210 -141 -222 -313 -481 -326 -491 -13 -10 -12 -16 4 -45 10 -19 22 -49 25
-67 8 -42 49 -132 59 -132 5 0 8 -6 8 -13 0 -7 13 -31 30 -53 16 -21 30 -45
30 -51 0 -7 9 -18 20 -25 11 -7 25 -30 31 -50 5 -22 16 -38 24 -38 8 0 16 -6
16 -12 1 -7 2 -18 3 -25 0 -6 13 -21 29 -33 15 -12 27 -28 27 -36 0 -8 3 -14
8 -14 13 0 41 -60 36 -75 -4 -9 0 -15 10 -15 9 0 16 -6 16 -14 0 -8 5 -16 11
-18 5 -2 11 -10 12 -19 2 -9 15 -31 30 -48 15 -18 27 -37 27 -42 0 -5 7 -9 15
-9 9 0 12 -6 9 -15 -4 -8 -2 -15 3 -15 6 0 15 -12 21 -26 7 -14 17 -22 23 -18
7 4 9 0 5 -13 -4 -13 1 -28 18 -44 13 -13 27 -39 31 -56 5 -23 12 -33 26 -33
12 0 19 -7 19 -20 0 -10 8 -24 18 -29 9 -5 25 -27 36 -48 10 -21 22 -45 27
-53 5 -8 12 -23 15 -32 4 -10 16 -18 27 -18 16 0 18 -3 9 -12 -15 -15 -15 -28
-1 -28 15 0 33 -21 48 -57 7 -17 19 -34 27 -37 8 -3 14 -15 14 -26 0 -11 7
-20 15 -20 8 0 15 -5 15 -12 0 -22 42 -99 61 -111 11 -7 19 -20 19 -30 0 -10
4 -15 10 -12 5 3 15 -7 22 -22 7 -15 16 -31 20 -34 14 -9 48 -81 43 -89 -3 -4
4 -10 15 -13 11 -3 24 -17 30 -31 5 -14 14 -26 20 -26 5 0 10 -7 10 -16 0 -10
16 -36 35 -60 19 -23 35 -47 35 -53 0 -6 5 -11 10 -11 6 0 10 -11 10 -25 0
-14 6 -25 13 -25 7 0 17 -15 23 -32 5 -18 15 -32 21 -31 7 2 15 -8 19 -22 3
-14 9 -25 13 -25 3 0 12 -9 19 -21 10 -16 11 -24 1 -35 -9 -12 -9 -13 3 -9 10
4 19 -4 27 -23 7 -17 23 -40 37 -53 13 -12 24 -28 24 -36 0 -7 3 -13 8 -13 4
0 18 -24 31 -52 26 -59 58 -98 78 -98 8 0 11 -5 8 -10 -4 -6 5 -23 19 -37 15
-14 29 -38 33 -52 3 -14 13 -35 22 -46 17 -21 36 -52 59 -98 7 -15 18 -27 23
-27 5 0 9 -7 9 -15 0 -8 9 -23 20 -32 11 -10 20 -21 20 -25 0 -5 18 -37 40
-72 22 -35 40 -66 40 -70 0 -3 15 -28 33 -54 30 -45 39 -60 70 -114 6 -13 15
-25 18 -28 4 -3 21 -33 39 -67 17 -35 36 -63 40 -63 4 0 11 -21 15 -47 9 -62
20 -81 47 -85 13 -2 -253 -8 -590 -12 -714 -10 -642 6 -642 -137 l0 -86 80 -5
c85 -5 115 -18 152 -69 17 -23 18 -67 18 -799 0 -736 0 -775 -18 -792 -11 -12
-53 -25 -112 -36 l-93 -17 -14 -40 c-8 -25 -13 -71 -11 -120 l3 -80 835 0 835
0 3 253 2 252 -134 0 -133 0 -7 -31 c-3 -17 -6 -56 -6 -86 0 -58 -19 -107 -45
-117 -9 -3 -115 -6 -234 -6 -250 0 -254 1 -288 88 -16 42 -18 81 -18 357 l0
310 171 3 c195 3 197 2 219 -85 l12 -48 86 -2 c68 -2 88 1 99 14 10 12 14 77
16 280 l3 263 -99 0 -99 0 -23 -70 c-17 -53 -28 -72 -44 -75 -11 -3 -93 -4
-181 -3 l-160 3 -3 299 c-2 281 -1 298 15 292 15 -6 16 -5 6 5 -7 7 -13 17
-13 21 0 4 99 8 220 8 l221 0 25 -25 c15 -15 23 -32 20 -41 -3 -9 -1 -12 4 -9
6 4 10 -8 11 -27 1 -18 2 -55 3 -83 l1 -50 118 -3 c68 -1 117 -7 117 -13 0 -5
-11 -7 -26 -3 -19 5 -25 4 -20 -5 4 -6 13 -11 21 -11 7 0 16 -9 20 -19 3 -11
17 -26 30 -35 15 -10 22 -22 19 -31 -4 -9 0 -15 10 -15 10 0 13 -6 10 -15 -4
-9 2 -23 13 -33 11 -9 26 -30 34 -47 8 -16 22 -30 31 -30 9 0 20 -4 24 -8 4
-4 22 -7 41 -7 18 0 33 -4 33 -9 0 -5 16 -11 35 -13 26 -3 35 0 35 11 0 8 3
12 6 9 3 -4 -2 -44 -10 -90 -9 -45 -19 -144 -22 -218 -10 -232 30 -434 122
-619 l53 -106 -37 -55 c-20 -30 -39 -59 -41 -65 -2 -5 -10 -18 -18 -27 -8 -9
-13 -23 -11 -30 3 -7 30 26 62 75 31 48 59 87 64 86 4 0 30 -28 57 -62 68 -82
170 -158 291 -218 203 -98 335 -124 629 -123 229 0 362 18 523 69 193 61 207
77 199 219 -5 98 -25 176 -44 176 -6 0 -71 -24 -145 -53 -322 -130 -505 -161
-668 -116 -106 29 -165 64 -245 144 -52 52 -83 94 -117 160 -48 94 -101 248
-113 326 -7 50 -9 47 274 474 47 71 97 148 111 171 14 23 86 135 160 248 l135
207 65 -5 c46 -4 84 -15 130 -38 86 -44 119 -91 130 -184 13 -112 1 -105 164
-102 l141 3 3 228 c3 296 12 278 -145 300 -65 9 -163 20 -218 23 -55 4 -104 9
-108 11 -5 3 -2 12 6 21 20 23 158 244 155 247 -2 2 -17 -18 -34 -43 -17 -26
-56 -86 -87 -133 l-57 -86 -165 -7 c-159 -7 -268 -20 -425 -50 -65 -12 -72
-13 -56 0 11 8 23 14 27 14 4 0 5 9 2 19 -3 11 4 28 16 40 12 12 21 30 21 41
0 10 9 24 20 30 11 6 20 21 20 33 0 12 11 34 25 49 14 15 25 38 25 52 0 15 8
30 20 36 11 6 20 19 20 30 0 10 9 22 20 25 11 3 20 11 20 17 0 17 61 106 77
113 8 3 13 12 9 20 -3 8 -2 15 3 15 9 0 35 48 36 66 0 7 15 27 33 45 17 18 32
38 32 44 0 5 16 34 35 62 19 29 35 57 35 62 0 6 6 14 13 18 15 9 67 84 102
146 9 15 20 27 26 27 6 0 7 5 4 10 -4 6 7 24 24 41 17 17 31 37 31 46 0 8 13
27 28 41 16 15 35 41 44 57 46 91 72 133 99 160 16 17 29 35 29 40 0 5 11 20
24 34 13 15 36 50 52 80 16 29 40 66 54 82 14 15 36 50 50 76 14 26 40 66 58
89 17 23 32 46 32 52 0 6 6 15 13 19 11 7 34 45 61 100 6 13 16 23 22 23 7 0
19 16 28 35 9 19 28 46 41 60 14 13 25 31 25 39 0 8 5 18 11 21 5 4 14 18 19
31 5 13 16 24 24 24 8 0 16 14 20 34 4 19 13 37 21 40 8 3 15 12 15 21 0 8 5
15 10 15 6 0 10 5 10 10 0 11 86 131 115 161 8 9 15 23 15 33 0 9 7 19 15 22
8 3 17 16 21 27 4 12 23 42 44 67 20 25 42 57 48 73 6 15 16 27 22 27 5 0 10
8 10 18 0 9 12 28 25 41 14 13 25 29 25 36 0 7 7 15 15 19 8 3 15 14 15 24 0
10 16 35 35 56 19 21 35 44 35 51 0 7 7 18 15 25 8 7 15 21 15 31 0 11 4 19 9
19 5 0 11 8 15 18 3 9 24 42 46 72 22 30 40 60 40 66 0 6 6 17 14 23 7 6 17
26 20 44 5 24 9 28 16 18 9 -16 21 32 24 98 1 20 5 42 10 49 4 7 3 18 -2 25
-5 7 -12 26 -16 42 -9 40 -67 158 -83 168 -7 4 -13 17 -13 27 0 11 -4 20 -10
20 -5 0 -10 7 -10 16 0 9 -10 27 -22 40 -45 46 -58 64 -58 79 0 8 -4 15 -9 15
-5 0 -20 20 -32 45 -12 25 -33 52 -46 60 -13 9 -21 20 -18 26 4 5 -1 17 -11
26 -23 23 -84 119 -84 133 0 5 -6 10 -14 10 -8 0 -20 16 -26 35 -6 19 -21 41
-32 49 -11 8 -17 19 -13 26 4 7 -5 23 -22 39 -16 14 -38 45 -49 68 -10 24 -23
43 -27 43 -12 0 -46 42 -47 56 0 6 -12 23 -26 37 -15 15 -23 31 -18 38 4 7 3
9 -4 5 -11 -7 -25 9 -29 33 -2 19 -111 177 -155 225 -20 22 -34 44 -32 48 3 4
0 8 -5 8 -6 0 -11 8 -11 18 0 10 -13 34 -30 52 -16 18 -30 42 -30 51 0 10 -9
24 -19 31 -18 13 -121 161 -121 174 0 3 -27 42 -60 86 -33 43 -63 91 -66 105
-4 14 -15 28 -25 30 -11 3 -19 12 -19 20 0 14 -23 48 -64 95 -8 9 -17 25 -20
36 -4 11 -13 23 -21 26 -8 3 -15 13 -15 23 0 10 -9 24 -20 31 -11 7 -20 18
-20 26 0 7 -9 21 -20 31 -11 10 -20 26 -20 36 0 10 -8 22 -17 27 -9 5 -24 23
-32 39 -20 38 -76 124 -93 143 -15 17 -33 46 -47 76 -5 12 -17 24 -26 28 -9 3
-14 10 -10 15 3 6 -3 15 -14 21 -11 6 -28 33 -38 60 -10 28 -22 50 -28 50 -5
0 -25 27 -44 60 -19 33 -53 85 -77 116 -23 31 -51 75 -63 98 -11 23 -29 47
-41 54 -11 7 -20 21 -20 31 0 10 -7 24 -15 31 -8 7 -25 30 -37 51 -12 22 -25
39 -29 39 -4 0 -10 11 -13 24 -3 14 -15 28 -26 31 -11 3 -20 13 -20 21 0 18
-50 94 -61 94 -5 0 -9 7 -9 15 0 8 -9 24 -19 34 -11 11 -17 22 -14 25 4 3 1 6
-5 6 -7 0 -12 4 -12 9 0 5 -19 37 -42 71 -24 34 -49 73 -57 88 -8 15 -20 31
-28 35 -7 4 -13 13 -13 19 0 6 -12 27 -27 47 -16 20 -27 40 -25 44 1 4 -9 18
-23 31 -14 13 -25 30 -25 38 0 18 -24 41 -33 31 -4 -3 -7 2 -7 11 0 22 -31 69
-77 115 -18 19 -33 39 -33 45 0 6 -32 45 -70 86 -38 41 -70 78 -70 83 0 19
-20 1 -71 -65z m102 -999 c6 -12 216 -330 467 -708 250 -377 638 -960 860
-1296 223 -335 480 -722 571 -860 91 -137 168 -254 170 -259 2 -4 -1 -11 -6
-15 -5 -3 -31 -40 -58 -81 -27 -41 -91 -140 -144 -219 -53 -79 -100 -151 -106
-159 -5 -9 -29 -44 -52 -78 -24 -35 -43 -68 -43 -73 0 -6 -3 -11 -7 -11 -5 0
-24 -25 -43 -55 -19 -30 -152 -231 -294 -447 -143 -216 -315 -478 -384 -583
-228 -348 -277 -420 -284 -423 -5 -2 -8 -8 -8 -13 0 -9 -93 -150 -115 -175
-13 -15 -85 -128 -104 -163 -8 -14 -17 -28 -21 -31 -7 -6 -26 -34 -236 -348
-82 -122 -158 -238 -169 -257 l-21 -34 -239 377 c-131 207 -258 406 -281 442
-23 36 -74 117 -114 180 -40 63 -114 180 -165 260 -50 80 -269 424 -485 765
-531 839 -668 1053 -697 1097 l-25 38 365 572 c200 315 537 843 748 1173 210
330 414 650 453 711 39 61 154 242 256 402 102 160 188 292 192 292 4 0 12
-10 19 -21z m-1578 -1314 c-3 -9 -8 -14 -10 -11 -3 3 -2 9 2 15 9 16 15 13 8
-4z m-198 -310 c-14 -21 -25 -34 -25 -30 0 11 43 75 48 71 2 -2 -8 -21 -23
-41z m-84 -128 c-10 -9 -11 -8 -5 6 3 10 9 15 12 12 3 -3 0 -11 -7 -18z m-37
-59 c-5 -7 -17 -27 -29 -44 -11 -17 -31 -49 -45 -72 -14 -23 -28 -42 -33 -42
-7 0 14 37 36 65 4 6 21 31 38 58 17 26 33 47 36 47 2 0 1 -6 -3 -12z m-205
-317 c-50 -77 -97 -141 -103 -141 -8 0 -8 2 0 8 6 4 31 39 55 77 76 120 133
204 137 201 2 -2 -38 -67 -89 -145z m3231 -4659 c0 -4 -7 -17 -15 -27 -14 -19
-88 -130 -110 -167 -5 -9 -28 -43 -49 -75 -22 -32 -58 -87 -81 -123 -56 -86
-241 -368 -327 -498 -37 -57 -68 -109 -68 -115 0 -7 -4 -6 -10 3 -15 23 -12
234 5 335 19 117 36 177 70 256 103 235 282 379 507 408 34 5 66 9 71 10 4 0
7 -3 7 -7z m-734 -23 c3 -6 -1 -18 -10 -27 -15 -15 -18 -15 -26 -2 -5 9 -5 19
2 27 13 16 25 17 34 2z m-50 -40 c7 -12 -126 -140 -138 -132 -19 11 -4 37 50
88 57 55 75 64 88 44z m-159 -160 c4 -22 -24 -52 -42 -45 -14 5 -14 8 0 36 16
31 38 36 42 9z m-931 -520 c10 -17 -13 -36 -27 -22 -12 12 -4 33 11 33 5 0 12
-5 16 -11z m1562 -997 c12 -8 7 -42 -7 -42 -14 0 -29 23 -24 36 6 16 13 17 31
6z m-2540 -69 c-10 -13 -13 -12 -19 4 -9 25 0 36 17 22 11 -9 12 -15 2 -26z
m672 12 c0 -18 -13 -25 -28 -16 -17 10 -4 41 14 34 8 -3 14 -11 14 -18z m1934
17 c8 -13 -11 -35 -23 -28 -16 10 -14 36 3 36 8 0 17 -4 20 -8z m-1444 -17 c0
-8 -4 -15 -10 -15 -5 0 -10 7 -10 15 0 8 5 15 10 15 6 0 10 -7 10 -15z m1533
-12 c4 -2 7 -11 7 -19 0 -12 -7 -14 -32 -9 -39 8 -53 19 -44 34 6 10 47 6 69
-6z m47 -24 c0 -24 -23 -21 -28 4 -2 10 3 17 12 17 10 0 16 -9 16 -21z"/>
<path d="M9443 14917 c-23 -34 -81 -123 -129 -197 -48 -74 -115 -178 -149
-230 -56 -87 -310 -488 -338 -535 -7 -11 -21 -33 -32 -50 -11 -16 -24 -37 -30
-46 -22 -37 -91 -148 -140 -224 -29 -44 -107 -168 -175 -275 -68 -107 -133
-211 -145 -230 -237 -372 -264 -421 -237 -432 5 -1 21 -30 36 -63 28 -60 46
-91 141 -240 28 -44 57 -92 64 -107 8 -15 22 -37 33 -47 10 -11 18 -23 18 -26
0 -3 31 -56 70 -118 75 -121 72 -116 126 -197 34 -51 50 -77 85 -141 25 -44
83 -134 90 -139 3 -3 19 -29 34 -57 15 -29 30 -53 34 -53 4 0 19 -24 34 -52
15 -29 33 -61 40 -72 112 -173 177 -274 198 -308 14 -24 59 -95 98 -158 40
-63 77 -124 84 -135 64 -106 153 -229 178 -247 17 -13 38 -36 46 -51 l14 -29
27 41 c15 23 33 41 41 41 8 0 30 16 48 36 18 20 33 33 33 29 0 -5 9 0 20 10
11 10 20 24 20 32 0 7 7 13 15 13 8 0 15 7 15 15 0 8 3 15 8 15 4 0 16 20 27
45 11 25 23 45 27 45 3 0 10 9 13 21 4 11 19 33 34 47 15 15 33 42 40 60 8 17
17 32 22 32 5 0 15 16 23 35 8 19 19 35 24 35 6 0 13 10 16 23 3 12 24 42 46
67 22 25 40 55 40 68 0 13 6 22 15 22 9 0 15 10 15 26 0 14 4 23 10 19 6 -3
10 0 10 8 0 8 7 17 15 21 8 3 15 12 15 21 0 8 4 15 8 15 5 0 15 16 22 36 8 20
22 40 31 45 10 5 25 27 35 49 10 22 21 40 26 40 4 0 8 7 8 15 0 8 4 15 9 15 5
0 14 14 21 30 7 17 22 37 32 45 11 7 18 19 16 25 -2 7 9 26 25 43 16 18 26 38
24 48 -3 12 0 16 9 12 8 -3 14 0 14 6 0 24 36 91 48 91 8 0 16 9 19 20 3 11 9
20 14 20 5 0 9 7 9 15 0 8 5 15 10 15 6 0 10 14 10 30 0 17 3 29 8 28 21 -4
42 17 42 43 0 19 5 29 15 29 9 0 18 8 22 18 3 9 12 24 19 32 7 8 14 21 16 29
2 8 15 27 30 42 26 26 68 102 68 123 1 16 36 56 49 56 6 0 14 13 17 30 4 16
13 35 20 41 8 6 14 20 14 30 0 11 4 19 8 19 5 0 15 12 22 28 8 15 25 43 39 62
33 45 81 137 81 155 0 8 9 23 20 33 l21 19 -47 79 c-26 43 -61 99 -78 124 -44
64 -57 90 -49 103 3 6 1 7 -5 3 -7 -4 -20 10 -32 34 -12 23 -27 43 -35 47 -8
3 -15 11 -15 18 0 6 -9 22 -20 35 -11 13 -21 27 -21 32 -1 4 -3 13 -4 18 -1 6
-3 14 -4 19 0 5 -10 11 -21 14 -17 4 -20 11 -15 34 5 21 4 24 -4 13 -5 -8 -11
-12 -13 -10 -2 3 -16 22 -31 42 -17 23 -25 43 -20 54 4 11 2 15 -4 11 -13 -8
-45 26 -40 44 2 8 2 10 -1 6 -2 -5 -11 1 -19 12 -8 12 -12 25 -8 30 3 5 0 13
-6 17 -8 5 -9 3 -4 -6 5 -9 4 -11 -3 -6 -7 4 -12 12 -12 18 0 5 -11 24 -26 40
-14 17 -23 37 -20 44 3 8 0 13 -6 11 -11 -2 -101 123 -93 131 2 2 -4 12 -15
21 -10 9 -66 88 -124 176 -58 88 -109 165 -113 170 -28 35 -123 184 -123 194
0 6 -4 11 -10 11 -5 0 -10 7 -10 15 0 9 -7 18 -15 21 -8 4 -15 12 -15 20 0 8
-3 14 -7 14 -5 0 -21 21 -37 48 -16 26 -38 57 -49 69 -11 13 -16 27 -11 35 4
7 3 10 -1 5 -5 -4 -27 21 -49 55 -23 34 -49 73 -58 87 -10 14 -23 38 -29 53
-6 16 -14 26 -19 23 -4 -2 -12 6 -17 18 -6 13 -38 57 -70 98 -33 41 -66 85
-72 97 -6 12 -15 22 -19 21 -4 0 -26 -28 -49 -62z m781 -1094 c394 -589 713
-1074 708 -1077 -8 -4 -122 1 -127 6 -8 11 -991 1481 -1130 1690 -93 141 -174
256 -179 255 -5 -2 -52 -71 -105 -155 -53 -84 -159 -251 -236 -372 -77 -122
-180 -285 -229 -363 -155 -246 -421 -666 -511 -807 -48 -74 -104 -163 -126
-197 l-38 -63 -61 0 c-34 0 -60 4 -60 10 0 6 167 275 372 598 204 323 455 720
558 882 103 163 207 327 232 365 24 39 80 125 123 193 43 68 81 120 85 115 5
-4 330 -490 724 -1080z m716 -1124 c0 -30 -204 -345 -846 -1309 -359 -539
-500 -741 -522 -748 -22 -7 -16 1 967 1488 211 319 387 580 392 580 5 0 9 -5
9 -11z m-2754 -56 c21 -32 127 -202 237 -378 109 -176 209 -336 222 -355 12
-19 79 -125 147 -235 69 -110 165 -263 213 -340 132 -211 320 -517 335 -545 7
-14 16 -27 20 -30 9 -7 41 -72 37 -77 -9 -8 -160 220 -430 647 -71 113 -144
228 -162 255 -18 28 -50 79 -72 115 -22 36 -95 153 -163 260 -269 427 -422
680 -435 719 -12 40 14 21 51 -36z"/>
<path d="M6830 12940 c0 -5 5 -10 10 -10 6 0 10 5 10 10 0 6 -4 10 -10 10 -5
0 -10 -4 -10 -10z"/>
<path d="M12866 12463 c-6 -14 -5 -15 5 -6 7 7 10 15 7 18 -3 3 -9 -2 -12 -12z"/>
<path d="M12845 12429 c-4 -6 -5 -12 -2 -15 2 -3 7 2 10 11 7 17 1 20 -8 4z"/>
<path d="M12357 11677 l-17 -32 20 24 c17 20 26 41 18 41 -2 0 -11 -15 -21
-33z"/>
<path d="M11935 11039 c-4 -6 -5 -12 -2 -15 2 -3 7 2 10 11 7 17 1 20 -8 4z"/>
<path d="M11896 10973 c-6 -14 -5 -15 5 -6 7 7 10 15 7 18 -3 3 -9 -2 -12 -12z"/>
<path d="M11845 10894 c-9 -14 -15 -27 -13 -30 2 -2 12 10 22 26 21 37 15 40
-9 4z"/>
<path d="M11804 10838 c-4 -7 -14 -24 -22 -38 -14 -24 -13 -24 3 -5 20 24 37
55 31 55 -3 0 -8 -6 -12 -12z"/>
<path d="M11628 10566 c-15 -24 -30 -51 -34 -62 -3 -10 10 7 31 39 20 32 36
60 34 61 -2 2 -16 -15 -31 -38z"/>
<path d="M11560 10460 c-6 -11 -8 -20 -6 -20 3 0 10 9 16 20 6 11 8 20 6 20
-3 0 -10 -9 -16 -20z"/>
<path d="M11410 10228 c-12 -22 -12 -22 6 -6 10 10 15 20 12 24 -4 3 -12 -5
-18 -18z"/>
<path d="M11287 10043 c-53 -80 -95 -148 -93 -150 4 -4 109 151 134 197 7 13
16 27 20 30 12 8 44 61 40 66 -2 2 -48 -62 -101 -143z"/>
<path d="M11156 9844 c-10 -25 1 -29 14 -5 6 12 7 21 1 21 -5 0 -12 -7 -15
-16z"/>
<path d="M11117 9784 c-10 -13 -14 -24 -10 -24 9 0 36 40 31 45 -2 2 -11 -8
-21 -21z"/>
<path d="M11078 9718 c-31 -41 -41 -58 -34 -58 3 0 19 20 36 45 36 52 34 61
-2 13z"/>
<path d="M11015 9624 c-9 -14 -15 -27 -13 -30 2 -2 12 10 22 26 21 37 15 40
-9 4z"/>
<path d="M5846 9230 c-23 -28 -25 -36 -21 -108 l4 -77 73 -6 c86 -7 131 -28
159 -72 19 -31 19 -51 17 -814 -2 -430 -6 -784 -10 -788 -3 -3 -47 -14 -97
-22 -86 -16 -92 -18 -116 -53 -20 -29 -27 -53 -29 -104 -7 -119 -71 -106 535
-106 l529 0 20 40 c17 34 20 56 18 128 l-3 87 -100 10 c-181 18 -184 26 -184
423 l1 272 182 0 c208 0 205 1 227 -83 l13 -47 96 0 96 0 12 33 c11 32 14 116
13 379 l-1 107 -87 3 c-99 3 -115 -5 -134 -74 l-10 -38 -203 0 -204 0 2 348 1
347 223 3 c250 3 272 -2 298 -63 8 -19 14 -66 14 -105 l0 -70 139 0 c183 0
171 -19 171 265 l0 215 -809 0 -809 0 -26 -30z m1189 -989 c3 -5 1 -12 -4 -15
-5 -3 -11 1 -15 9 -6 16 9 21 19 6z m-372 -957 c9 -10 -4 -34 -19 -34 -8 0
-14 6 -14 13 0 22 19 35 33 21z m-641 -36 c-6 -6 -15 -9 -18 -5 -4 3 -4 14 0
23 5 13 9 15 18 6 9 -9 9 -15 0 -24z"/>
<path d="M11467 9253 c-12 -19 -4 -149 11 -180 13 -28 21 -32 71 -38 86 -10
130 -24 141 -45 14 -27 14 -1512 -1 -1564 -16 -59 -47 -83 -115 -91 -108 -12
-109 -13 -111 -86 -2 -37 4 -84 13 -111 l16 -48 514 0 514 0 0 78 c0 66 -4 83
-25 115 l-26 37 -74 0 c-91 0 -140 20 -155 63 -6 18 -10 132 -10 278 l0 249
53 0 c80 0 291 28 387 52 234 57 405 169 495 322 62 106 94 337 64 466 -20 86
-69 170 -146 250 -88 93 -176 149 -298 190 -179 60 -210 63 -786 67 -290 3
-529 1 -532 -4z m1226 -82 c17 -17 -1 -27 -37 -23 -28 3 -36 9 -36 24 0 18 4
20 32 14 18 -3 36 -10 41 -15z m134 -36 c7 -21 2 -25 -25 -18 -12 3 -22 12
-22 19 0 19 39 18 47 -1z m47 -11 c9 -3 16 -13 16 -21 0 -20 -34 -12 -38 10
-4 19 -1 20 22 11z m-367 -134 c68 -34 89 -60 119 -150 26 -80 24 -280 -5
-370 -57 -179 -188 -288 -338 -278 l-48 3 -1 410 c-1 226 1 414 4 419 3 5 50
6 106 3 84 -5 110 -11 163 -37z m130 -736 c2 -6 -10 -26 -27 -44 -26 -27 -33
-31 -41 -19 -12 20 -12 23 12 53 21 27 49 32 56 10z m-921 -985 c3 -6 2 -15
-4 -21 -7 -7 -14 -3 -21 11 -10 17 -9 21 3 21 8 0 18 -5 22 -11z m634 -40 c0
-5 -4 -9 -10 -9 -5 0 -10 7 -10 16 0 8 5 12 10 9 6 -3 10 -10 10 -16z m160 3
c0 -21 -29 -32 -82 -32 -51 0 -58 2 -58 20 0 18 7 20 70 20 39 0 70 -4 70 -8z"/>
<path d="M8429 8945 c17 -33 31 -51 31 -40 0 6 -10 21 -21 35 -13 17 -17 18
-10 5z"/>
<path d="M8560 8740 c0 -5 5 -10 11 -10 5 0 7 5 4 10 -3 6 -8 10 -11 10 -2 0
-4 -4 -4 -10z"/>
<path d="M8620 8645 c0 -5 5 -17 10 -25 5 -8 10 -10 10 -5 0 6 -5 17 -10 25
-5 8 -10 11 -10 5z"/>
<path d="M8660 8576 c0 -2 7 -7 16 -10 8 -3 12 -2 9 4 -6 10 -25 14 -25 6z"/>
<path d="M8680 8544 c0 -7 27 -34 35 -34 3 0 1 9 -5 20 -10 18 -30 28 -30 14z"/>
<path d="M8751 8472 c-1 -8 -6 -10 -13 -6 -10 5 -10 4 -1 -6 15 -16 28 -8 20
12 -4 11 -6 11 -6 0z"/>
<path d="M8613 6791 c-12 -9 -73 -88 -73 -95 0 -3 17 -6 38 -6 32 0 45 8 92
55 l54 55 -51 -1 c-28 -1 -55 -4 -60 -8z"/>
<path d="M13286 6756 c-20 -23 -36 -48 -36 -55 0 -6 15 -11 35 -11 29 0 46 9
85 46 28 26 50 51 50 55 0 5 -22 9 -49 9 -46 0 -52 -3 -85 -44z"/>
<path d="M6608 6662 l-78 -3 0 -284 0 -285 26 -6 c51 -13 226 2 284 25 59 22
117 74 143 127 38 76 39 210 2 289 -21 42 -75 92 -124 112 -43 18 -151 29
-253 25z m202 -104 c74 -38 107 -121 89 -227 -17 -105 -77 -156 -197 -167
l-72 -7 0 212 0 211 68 0 c50 0 79 -6 112 -22z"/>
<path d="M7803 6656 c-113 -37 -171 -98 -199 -208 -36 -139 18 -282 127 -338
55 -29 144 -41 218 -30 35 5 68 13 73 18 5 5 6 26 2 46 -5 29 -10 36 -23 31
-9 -4 -42 -9 -73 -12 -160 -15 -263 117 -217 280 14 51 72 114 118 128 34 10
137 9 170 -2 8 -2 18 10 27 33 12 35 11 39 -8 49 -33 18 -167 21 -215 5z"/>
<path d="M8509 6657 c-60 -23 -105 -55 -132 -94 -79 -117 -75 -290 8 -399 87
-114 304 -116 400 -2 117 139 88 382 -56 471 -56 34 -162 46 -220 24z m156
-96 c62 -35 97 -152 75 -256 -17 -84 -67 -136 -138 -143 -41 -3 -58 0 -88 18
-50 32 -84 105 -84 186 0 172 111 265 235 195z"/>
<path d="M11475 6657 c-94 -32 -149 -79 -187 -162 -29 -63 -31 -198 -5 -257
40 -90 116 -144 222 -159 63 -9 170 2 187 19 5 5 6 26 2 46 -5 29 -10 36 -23
31 -42 -17 -132 -17 -175 -1 -116 44 -161 198 -94 318 35 63 94 91 183 85 39
-2 77 -7 85 -11 12 -5 18 3 27 34 9 37 8 42 -10 51 -31 17 -167 21 -212 6z"/>
<path d="M12517 6659 c-146 -34 -225 -151 -215 -318 9 -149 82 -233 226 -261
50 -9 188 2 203 17 5 5 4 25 -2 47 -8 29 -14 36 -27 31 -66 -26 -177 -13 -227
27 -83 65 -89 259 -9 329 52 46 161 65 228 39 24 -9 26 -7 36 31 6 23 9 43 6
46 -20 20 -155 27 -219 12z"/>
<path d="M13206 6656 c-53 -20 -84 -44 -123 -95 -43 -55 -58 -110 -57 -201 2
-173 107 -284 265 -283 163 2 269 117 269 292 0 128 -51 226 -144 273 -53 27
-156 34 -210 14z m126 -76 c46 -13 94 -67 109 -122 16 -60 7 -164 -20 -216
-59 -116 -200 -109 -261 13 -32 66 -33 172 -1 239 26 52 38 64 88 82 47 16 41
16 85 4z"/>
<path d="M4950 6370 l0 -290 50 0 50 0 0 125 0 125 105 0 105 0 0 40 0 40
-105 0 -105 0 0 80 0 79 113 3 112 3 3 43 3 42 -165 0 -166 0 0 -290z"/>
<path d="M5382 6448 c3 -192 5 -217 24 -259 41 -87 136 -129 246 -109 73 14
114 45 146 110 26 54 27 60 30 263 l4 207 -56 0 -56 0 0 -200 c0 -224 -7 -258
-59 -284 -38 -20 -90 -20 -119 0 -47 32 -56 68 -58 234 -1 85 -3 176 -3 203
l-1 47 -51 0 -50 0 3 -212z"/>
<path d="M5950 6370 l0 -290 45 0 45 0 0 223 0 222 45 -83 c58 -108 184 -322
203 -344 11 -13 30 -18 64 -18 l48 0 0 291 0 290 -47 -3 -48 -3 3 -215 2 -215
-25 55 c-14 30 -70 128 -123 218 l-97 162 -57 0 -58 0 0 -290z"/>
<path d="M7170 6438 c-39 -123 -80 -250 -91 -282 -10 -33 -19 -64 -19 -68 0
-5 24 -8 52 -6 l53 3 24 83 24 82 92 0 91 0 28 -85 27 -85 49 0 c27 0 51 3 53
8 3 4 -36 133 -87 287 l-92 280 -66 3 -67 3 -71 -223z m173 5 l34 -113 -72 0
-73 0 28 93 c16 50 31 106 35 122 4 17 9 26 11 20 2 -5 19 -61 37 -122z"/>
<path d="M8120 6371 l0 -290 53 2 52 2 0 285 0 285 -52 3 -53 3 0 -290z"/>
<path d="M8950 6370 l0 -289 45 1 45 1 1 66 c0 36 0 138 0 226 l-1 160 54
-100 c29 -55 86 -156 127 -225 l75 -125 52 -3 52 -3 0 290 0 291 -46 0 -45 0
3 -214 c2 -118 2 -213 0 -211 -2 1 -21 37 -42 80 -22 42 -76 137 -121 211
l-82 134 -58 0 -59 0 0 -290z"/>
<path d="M9702 6373 l3 -288 170 0 170 0 3 43 3 42 -120 0 -121 0 0 85 0 85
105 0 105 0 0 45 0 45 -105 0 -105 0 0 70 0 70 110 0 c107 0 110 1 110 23 0
12 3 32 6 45 l6 22 -171 0 -171 0 2 -287z"/>
<path d="M10153 6653 c-10 -3 -13 -70 -13 -284 l0 -279 26 -6 c14 -4 75 -4
135 -2 98 5 117 9 175 38 108 53 161 154 152 289 -9 116 -76 205 -179 235 -50
15 -266 22 -296 9z m254 -84 c90 -34 134 -148 102 -264 -26 -91 -89 -136 -198
-139 l-66 -1 -2 195 c-1 107 0 201 2 208 5 15 122 17 162 1z"/>
<path d="M10730 6457 c0 -235 8 -275 70 -330 89 -81 263 -64 327 32 37 55 43
96 43 304 l0 197 -50 0 -50 0 0 -195 c0 -214 -6 -245 -55 -283 -61 -48 -153
-13 -175 66 -5 20 -10 121 -10 225 l0 187 -50 0 -50 0 0 -203z"/>
<path d="M11856 6381 c-49 -154 -89 -284 -88 -288 1 -4 24 -9 51 -11 l49 -3
21 73 c12 40 24 79 26 86 4 9 28 12 97 10 l92 -3 24 -82 25 -83 53 1 c30 1 54
6 54 11 0 6 -41 135 -91 289 l-90 279 -67 0 -67 0 -89 -279z m164 161 c0 -9
14 -60 30 -112 17 -51 30 -95 30 -97 0 -2 -32 -3 -71 -3 -63 0 -71 2 -66 18 2
9 16 57 31 106 14 48 26 95 26 103 0 8 5 11 10 8 6 -3 10 -14 10 -23z"/>
<path d="M12830 6369 l0 -290 48 3 47 3 3 288 2 287 -50 0 -50 0 0 -291z"/>
<path d="M13652 6373 l3 -288 45 0 45 0 0 223 c0 122 1 222 2 222 2 0 18 -31
37 -69 44 -87 193 -340 214 -364 12 -13 28 -17 61 -15 l46 3 3 288 2 287 -51
0 -52 0 5 -215 5 -215 -31 63 c-17 35 -71 132 -121 215 l-90 152 -63 0 -62 0
2 -287z"/>
<path d="M5060 5864 c-135 -36 -209 -138 -210 -286 0 -137 48 -221 155 -270
40 -18 67 -22 140 -22 50 0 102 5 117 12 25 10 26 13 16 50 -10 39 -11 40 -41
31 -75 -21 -173 -4 -220 39 -38 34 -57 88 -57 159 1 110 41 175 127 204 35 11
133 8 164 -5 13 -6 20 1 29 29 15 45 9 52 -59 65 -69 13 -94 12 -161 -6z"/>
<path d="M6215 5871 c-105 -26 -165 -116 -136 -204 16 -48 55 -81 142 -121
105 -47 133 -94 91 -146 -25 -31 -112 -39 -178 -16 -26 9 -49 15 -50 13 -2 -1
-6 -21 -10 -44 -6 -39 -5 -41 27 -52 94 -32 214 -21 270 26 56 48 78 122 53
181 -22 55 -42 72 -124 110 -41 19 -85 44 -97 55 -32 29 -30 70 5 97 23 18 36
21 82 17 30 -3 65 -8 77 -12 19 -6 23 -2 32 31 6 21 7 42 3 46 -9 9 -106 28
-136 27 -11 -1 -34 -4 -51 -8z"/>
<path d="M11627 5870 c-99 -25 -174 -90 -208 -179 -29 -79 -24 -194 14 -268
54 -104 166 -154 312 -138 85 9 98 19 85 67 -10 35 -13 37 -36 28 -14 -6 -50
-10 -80 -10 -132 0 -203 73 -204 209 0 125 62 198 178 208 34 3 74 1 93 -6 38
-13 45 -8 54 40 6 32 4 37 -17 42 -48 12 -154 16 -191 7z"/>
<path d="M12090 5871 c-85 -18 -169 -97 -195 -184 -19 -65 -19 -160 1 -226 30
-102 139 -181 249 -181 57 0 135 30 176 67 152 137 116 433 -62 507 -45 19
-124 27 -169 17z m150 -119 c96 -96 84 -304 -21 -366 -66 -39 -161 -9 -203 64
-30 51 -30 198 0 255 29 57 75 85 137 85 44 0 54 -4 87 -38z"/>
<path d="M12634 5870 c-126 -30 -182 -162 -106 -252 16 -18 61 -47 108 -69
114 -53 142 -101 89 -154 -20 -21 -34 -25 -79 -25 -31 0 -74 7 -96 16 -23 9
-43 15 -45 12 -2 -2 -7 -22 -11 -45 -6 -39 -5 -41 27 -52 104 -36 229 -18 285
41 94 99 50 230 -95 282 -107 38 -142 100 -83 146 23 18 36 21 82 17 30 -3 65
-8 76 -12 19 -6 24 -1 34 30 15 45 9 52 -59 65 -60 11 -82 11 -127 0z"/>
<path d="M5403 5863 c-19 -4 -23 -11 -24 -46 0 -58 0 -466 0 -499 1 -27 3 -28
51 -28 l50 0 0 121 0 122 51 -6 c79 -10 85 -18 124 -169 l17 -68 55 0 c47 0
54 2 49 18 -3 9 -14 51 -24 92 -22 90 -45 135 -73 151 -21 11 -20 11 10 30 51
31 73 75 69 139 -7 109 -73 151 -235 149 -54 -1 -108 -4 -120 -6z m228 -102
c57 -58 21 -140 -69 -156 -76 -13 -82 -6 -82 96 l0 89 61 0 c54 0 64 -3 90
-29z"/>
<path d="M5869 5863 c0 -5 -1 -134 -1 -288 l-1 -280 52 -3 51 -3 0 290 0 291
-50 0 c-27 0 -50 -3 -51 -7z"/>
<path d="M6480 5825 l0 -45 80 0 80 0 0 -245 0 -245 55 0 55 0 0 245 0 245 80
0 80 0 0 45 0 45 -215 0 -215 0 0 -45z"/>
<path d="M6980 5580 l0 -291 52 3 52 3 0 285 -1 285 -51 3 -52 3 0 -291z"/>
<path d="M7350 5866 c0 -3 -40 -132 -90 -287 -49 -155 -90 -283 -90 -285 0 -2
24 -4 53 -4 l53 0 24 83 25 82 90 0 90 0 29 -82 28 -83 55 0 c52 0 54 1 47 23
-40 127 -175 541 -180 548 -5 9 -134 13 -134 5z m105 -219 c14 -48 28 -94 31
-102 5 -12 -6 -15 -63 -15 -38 0 -72 3 -75 6 -4 3 4 38 17 77 13 40 29 92 36
117 13 52 13 53 54 -83z"/>
<path d="M7750 5580 l0 -290 45 0 45 0 0 222 0 223 54 -97 c29 -54 87 -154
127 -223 l74 -125 53 0 52 0 0 290 0 290 -45 0 -46 0 3 -215 c2 -118 2 -215 1
-215 -2 0 -17 28 -34 63 -17 34 -72 131 -122 215 l-91 152 -58 0 -58 0 0 -290z"/>
<path d="M8464 5855 c-4 -9 -46 -139 -94 -290 l-87 -275 53 0 53 0 26 85 26
86 92 -3 91 -3 26 -82 25 -83 53 0 c34 0 52 4 52 12 0 7 -41 137 -90 290 l-91
278 -65 0 c-49 0 -66 -4 -70 -15z m76 -100 c0 -8 14 -57 30 -108 17 -52 30
-99 30 -106 0 -7 -24 -11 -71 -11 -63 0 -71 2 -66 18 2 9 16 57 31 106 14 48
26 94 26 102 0 8 5 14 10 14 6 0 10 -7 10 -15z"/>
<path d="M9068 5864 c-11 -4 -18 -16 -19 -32 0 -32 0 -439 0 -499 l1 -43 50 0
50 0 0 108 0 107 60 1 c150 3 233 85 218 219 -12 101 -73 138 -233 141 -60 2
-118 0 -127 -2z m219 -93 c37 -23 50 -66 33 -116 -16 -50 -66 -72 -147 -67
-22 2 -23 5 -23 102 l0 100 53 0 c34 0 63 -7 84 -19z"/>
<path d="M9529 5868 c0 -5 -1 -543 0 -560 1 -16 16 -18 171 -18 l170 0 0 45 0
45 -120 0 -120 0 0 85 0 85 110 0 110 0 0 40 0 40 -87 1 c-49 1 -98 0 -110 -1
-22 -1 -23 2 -23 74 l0 76 116 0 115 0 -3 43 -3 42 -162 3 c-90 1 -163 1 -164
0z"/>
<path d="M9965 5858 c-3 -7 -4 -137 -3 -288 l3 -275 48 -3 48 -3 -3 220 c-2
122 -1 221 2 221 3 0 17 -26 32 -58 15 -31 70 -130 123 -219 l97 -163 54 0 54
0 0 290 0 290 -51 0 -52 0 5 -216 6 -217 -52 99 c-29 55 -84 151 -122 214
l-70 115 -57 3 c-40 2 -59 -1 -62 -10z"/>
<path d="M10490 5825 l0 -45 80 0 80 0 0 -245 0 -245 50 0 c59 0 53 -30 51
250 0 102 2 197 5 213 6 27 6 27 85 27 l79 0 0 45 0 45 -215 0 -215 0 0 -45z"/>
<path d="M10990 5580 l0 -290 173 2 172 3 0 40 0 40 -122 3 -123 3 0 84 0 85
110 0 110 0 0 40 c0 25 -5 40 -12 41 -7 0 -56 1 -108 2 l-95 2 -3 73 -3 72
116 0 115 0 0 45 0 45 -165 0 -165 0 0 -290z"/>
<path d="M12900 5825 l0 -45 80 0 80 0 0 -245 0 -245 55 0 55 0 0 245 0 245
80 0 80 0 0 45 0 45 -215 0 -215 0 0 -45z"/>
<path d="M13410 5648 c-39 -123 -80 -250 -91 -282 -10 -33 -19 -64 -19 -68 0
-5 23 -8 52 -6 l52 3 25 80 26 80 89 0 89 0 27 -80 27 -80 56 -3 c31 -2 57 -2
57 0 0 2 -42 131 -93 288 l-93 285 -66 3 -67 3 -71 -223z m196 -85 l6 -33 -64
0 c-36 0 -67 2 -70 5 -4 5 31 137 59 225 5 15 56 -133 69 -197z"/>
<path d="M13880 5581 l0 -291 170 0 170 0 0 45 0 45 -115 0 -115 0 -2 243 -3
242 -52 3 -53 3 0 -290z"/>
<path d="M4866 4861 c26 -22 494 -185 744 -257 1546 -450 3379 -611 5170 -454
942 83 1892 254 2780 502 259 72 695 207 688 213 -1 1 -73 -13 -158 -31 -1934
-423 -3701 -593 -5450 -524 -1349 53 -2744 258 -3749 550 -19 5 -30 6 -25 1z"/>
<path d="M0 2775 l0 -785 9650 0 9650 0 0 785 0 785 -9650 0 -9650 0 0 -785z
m6515 568 c19 -9 34 -20 33 -24 -2 -4 -29 -28 -61 -53 -50 -41 -62 -47 -97
-44 l-39 3 60 68 c34 37 62 67 65 67 2 0 19 -8 39 -17z m-616 -228 c138 -42
202 -201 137 -341 -48 -102 -123 -134 -318 -134 l-128 0 0 -115 0 -115 -40 0
-40 0 0 360 0 360 168 0 c123 0 182 -4 221 -15z m713 -345 c87 -195 158 -356
158 -358 0 -2 -21 -2 -47 0 l-47 3 -37 85 -38 85 -197 0 -198 0 -37 -85 -36
-85 -48 -3 c-36 -2 -46 0 -42 10 3 7 69 155 147 328 78 173 148 330 156 348
13 32 16 33 60 30 l47 -3 159 -355z m762 317 c42 -20 76 -41 76 -47 0 -7 -9
-25 -21 -41 l-20 -29 -37 25 c-204 135 -472 8 -473 -224 -1 -117 81 -229 192
-266 67 -23 167 -16 237 14 l52 23 0 109 0 109 35 0 35 0 0 -129 c0 -127 0
-130 -26 -150 -56 -44 -133 -65 -239 -66 -89 0 -107 3 -162 29 -73 34 -153
113 -186 183 -31 68 -32 217 0 285 27 58 94 132 150 165 74 43 120 53 220 49
80 -3 101 -8 167 -39z m356 -317 l0 -360 -40 0 -40 0 0 360 0 360 40 0 40 0 0
-360z m522 73 l213 -288 3 288 2 287 40 0 40 0 0 -360 0 -360 -43 0 -43 0
-214 288 -215 287 -3 -287 -2 -288 -40 0 -40 0 0 360 0 360 44 0 44 0 214
-287z m979 -73 c88 -195 159 -356 159 -358 0 -2 -21 -2 -47 0 l-47 3 -37 85
-38 85 -197 0 -197 0 -38 -85 -38 -85 -47 -3 c-35 -2 -45 0 -41 10 3 7 69 155
147 328 78 173 148 330 156 348 13 32 16 33 60 30 l47 -3 158 -355z m990 340
c81 -26 149 -76 194 -143 34 -51 65 -146 65 -197 0 -51 -31 -146 -65 -197 -97
-147 -313 -206 -477 -130 -75 34 -151 106 -185 176 -25 49 -28 68 -28 151 0
112 18 161 86 235 105 114 258 153 410 105z m859 -20 l0 -40 -190 0 -190 0 0
-125 0 -125 170 0 170 0 0 -40 0 -40 -170 0 -170 0 0 -155 0 -155 -40 0 -40 0
0 360 0 360 230 0 230 0 0 -40z m200 -320 l0 -360 -40 0 -40 0 0 360 0 360 40
0 40 0 0 -360z m692 322 c35 -17 72 -39 80 -49 15 -17 14 -20 -7 -47 l-24 -30
-38 27 c-90 62 -220 74 -310 28 -101 -51 -152 -135 -153 -246 0 -234 249 -362
453 -233 l48 31 27 -27 27 -27 -25 -20 c-58 -47 -151 -82 -231 -87 -226 -13
-401 160 -387 382 6 89 33 150 95 217 81 87 166 120 294 116 73 -3 96 -8 151
-35z m328 -322 l0 -360 -40 0 -40 0 0 360 0 360 40 0 40 0 0 -360z m681 0 c88
-195 159 -356 159 -358 0 -2 -21 -2 -47 0 l-47 3 -37 85 -38 85 -197 0 -198 0
-37 -85 -36 -85 -48 -3 c-36 -2 -46 0 -42 10 3 7 69 155 147 328 78 173 148
330 156 348 13 32 16 33 60 30 l47 -3 158 -355z m359 40 l0 -320 160 0 160 0
0 -40 0 -40 -200 0 -200 0 0 360 0 360 40 0 40 0 0 -320z"/>
<path d="M5590 2885 l0 -165 128 0 c113 0 133 3 172 23 65 33 85 66 85 142 0
76 -20 109 -85 143 -39 19 -59 22 -172 22 l-128 0 0 -165z"/>
<path d="M6387 2999 c-8 -19 -42 -98 -76 -175 -33 -78 -61 -144 -61 -148 0 -3
70 -6 155 -6 85 0 155 2 155 5 0 5 -151 348 -156 354 -1 2 -9 -12 -17 -30z"/>
<path d="M9011 3009 c-5 -13 -39 -91 -75 -174 -36 -82 -66 -153 -66 -157 0 -4
70 -8 155 -8 85 0 155 2 155 5 0 5 -151 348 -156 354 -2 2 -8 -7 -13 -20z"/>
<path d="M9983 3030 c-63 -25 -143 -109 -161 -167 -60 -199 90 -386 297 -371
143 11 248 109 267 249 14 102 -48 218 -145 272 -72 41 -180 48 -258 17z"/>
<path d="M12761 3009 c-5 -13 -39 -91 -75 -174 -36 -82 -66 -153 -66 -157 0
-4 70 -8 155 -8 85 0 155 2 155 5 0 5 -151 348 -156 354 -2 2 -8 -7 -13 -20z"/>
</g>
</svg>
