<?xml version="1.0" standalone="no"?>
<!DOCTYPE svg PUBLIC "-//W3C//DTD SVG 20010904//EN"
 "http://www.w3.org/TR/2001/REC-SVG-20010904/DTD/svg10.dtd">
<svg version="1.0" xmlns="http://www.w3.org/2000/svg"
 width="225.000000pt" height="225.000000pt" viewBox="0 0 225.000000 225.000000"
 preserveAspectRatio="xMidYMid meet">

<g transform="translate(0.000000,225.000000) scale(0.100000,-0.100000)"
fill="#000000" stroke="none">
<path d="M978 1711 c-252 -83 -392 -369 -299 -612 35 -93 37 -94 107 -74 l60
16 -32 64 c-77 152 -37 331 93 431 178 136 438 74 532 -125 22 -48 26 -69 26
-152 0 -88 -2 -100 -32 -157 l-33 -61 38 -10 c95 -25 86 -28 115 36 105 235 3
510 -230 621 -73 34 -85 37 -183 39 -81 2 -118 -1 -162 -16z m59 -46 c1 -19
-3 -35 -8 -35 -5 0 -9 9 -9 20 0 11 -4 20 -10 20 -17 0 -11 18 8 23 9 3 17 5
18 6 0 0 0 -15 1 -34z m51 13 l11 -23 0 23 c1 27 21 30 21 2 0 -11 5 -20 10
-20 6 0 10 -4 10 -9 0 -5 -13 -9 -30 -9 -16 1 -30 5 -30 11 0 5 -7 4 -15 -3
-13 -10 -15 -9 -15 12 0 42 21 51 38 16z m103 -23 c5 4 9 16 9 28 0 13 3 18
10 11 15 -15 0 -54 -21 -54 -24 0 -32 15 -22 43 7 21 8 21 11 -6 2 -15 8 -25
13 -22z m59 19 c0 -14 3 -14 15 -4 11 9 15 9 15 1 0 -7 5 -9 10 -6 15 9 12
-18 -3 -40 -13 -17 -15 -17 -35 3 -14 14 -22 17 -26 9 -7 -18 -7 19 0 37 8 21
24 21 24 0z m-263 0 c-3 -4 1 -13 10 -22 14 -14 14 -17 -3 -29 -9 -7 -20 -10
-23 -7 -3 3 1 9 9 14 13 8 12 10 -2 10 -10 0 -18 6 -18 13 0 16 9 27 23 27 6
0 8 -3 4 -6z m-33 -36 c15 -24 -10 -51 -35 -37 -22 11 -24 30 -7 47 15 15 28
11 42 -10z m389 0 c21 -32 -9 -60 -41 -39 -10 6 -11 13 -1 35 13 28 26 30 42
4z m-463 -23 c-13 -15 -14 -15 30 -28 12 -4 11 -6 -5 -13 -11 -4 -26 -16 -34
-27 -13 -18 -14 -18 -37 4 -20 18 -24 19 -24 6 0 -9 8 -20 17 -26 10 -5 15
-13 10 -17 -4 -4 -15 0 -25 9 -10 10 -22 14 -26 10 -4 -4 3 -15 16 -25 l23
-17 -25 -10 c-14 -5 -19 -10 -13 -10 10 -1 10 -7 1 -26 -13 -28 -26 -31 -53
-12 -18 14 -14 37 6 37 6 0 7 -4 4 -10 -4 -6 1 -7 11 -3 13 5 15 3 9 -7 -6 -9
-4 -11 5 -5 10 6 8 13 -10 27 l-23 19 22 6 c13 3 18 9 12 13 -12 7 53 90 70
90 6 0 7 -4 4 -10 -3 -5 -2 -10 4 -10 6 0 7 -7 4 -17 -4 -11 -3 -14 5 -9 7 4
10 17 6 31 -6 26 1 45 18 45 7 0 6 -5 -2 -15z m508 -37 c-10 -27 -12 -29 -23
-15 -7 9 -15 14 -18 10 -4 -3 -7 -1 -7 5 0 14 41 43 51 36 4 -2 3 -19 -3 -36z
m69 -42 c-7 -21 -35 -30 -51 -16 -15 12 -15 15 6 37 21 23 23 23 35 6 7 -9 12
-22 10 -27z m33 -38 c0 -4 -9 -12 -21 -19 -16 -8 -24 -8 -33 1 -8 8 -5 16 14
30 23 17 39 13 40 -12z m30 -43 c7 -9 10 -19 6 -22 -4 -4 -11 -1 -16 7 -7 11
-12 12 -21 3 -15 -15 -3 -32 19 -26 26 6 48 -22 32 -42 -10 -12 -9 -15 4 -15
10 0 14 -4 11 -10 -3 -5 -15 -10 -26 -10 -10 0 -19 -6 -19 -14 0 -9 7 -12 18
-9 10 2 24 -3 32 -12 11 -14 11 -19 -4 -33 -20 -21 -50 -6 -52 26 -1 11 -4 27
-7 36 -4 9 -1 16 5 16 6 0 3 9 -6 19 -10 11 -15 25 -11 30 3 6 2 11 -3 11 -19
0 -23 34 -6 47 23 17 29 16 44 -2z m-776 -56 c-3 -5 0 -9 5 -9 6 0 11 -5 11
-11 0 -6 -9 -8 -22 -4 -35 11 -43 22 -28 40 10 11 16 13 26 4 8 -6 11 -15 8
-20z m0 -56 c-7 -2 -9 -26 -6 -66 3 -34 5 -77 6 -94 1 -18 4 -33 7 -33 14 0
19 -33 8 -46 -10 -12 -9 -13 5 -8 26 10 18 -12 -9 -24 -15 -7 -27 -8 -30 -2
-4 6 -1 10 6 10 6 0 1 9 -12 19 -14 11 -20 23 -15 28 5 4 11 2 13 -4 5 -15 33
-17 33 -3 0 5 -6 9 -12 7 -7 -1 -12 4 -11 11 2 6 -7 12 -20 12 -19 1 -18 2 8
14 31 14 30 15 -20 31 -8 2 -15 12 -15 21 0 14 2 15 17 3 11 -10 14 -10 9 -1
-4 6 -3 12 3 12 5 0 12 -6 14 -12 3 -7 6 0 6 17 1 22 -2 26 -11 17 -19 -19
-38 -14 -37 11 0 12 3 16 6 9 2 -6 9 -10 14 -6 15 9 10 22 -8 27 -11 3 -6 5
12 7 29 1 29 2 8 12 -31 15 -29 36 5 40 28 4 45 -2 26 -9z m826 -104 c0 -4 -8
-13 -17 -18 -10 -6 -12 -11 -5 -11 27 0 10 -20 -18 -20 -16 0 -30 4 -30 10 0
5 8 7 18 3 14 -5 13 -3 -3 10 l-20 16 20 1 c11 1 14 4 8 7 -24 9 -13 20 17 15
17 -2 30 -8 30 -13z m-25 -84 c0 -15 -6 -19 -25 -17 l-25 2 25 -15 25 -16 -28
4 c-26 4 -26 3 -12 -13 24 -27 19 -41 -12 -34 -36 9 -40 13 -25 23 7 4 12 12
11 17 -1 5 2 24 6 42 7 28 12 33 34 30 18 -2 26 -9 26 -23z"/>
<path d="M920 1625 c0 -8 5 -15 10 -15 6 0 10 7 10 15 0 8 -4 15 -10 15 -5 0
-10 -7 -10 -15z"/>
<path d="M1316 1625 c-3 -8 -1 -15 4 -15 13 0 22 18 11 24 -5 3 -11 -1 -15 -9z"/>
<path d="M1415 1541 c-6 -11 9 -23 19 -14 9 9 7 23 -3 23 -6 0 -12 -4 -16 -9z"/>
<path d="M1500 1390 c0 -5 7 -10 15 -10 8 0 15 5 15 10 0 6 -7 10 -15 10 -8 0
-15 -4 -15 -10z"/>
<path d="M1520 1290 c0 -5 7 -10 15 -10 8 0 15 5 15 10 0 6 -7 10 -15 10 -8 0
-15 -4 -15 -10z"/>
<path d="M1061 1589 c-25 -5 -49 -13 -55 -19 -8 -8 -3 -8 17 -1 43 17 132 14
147 -4 11 -13 10 -20 0 -41 -17 -30 -42 -28 -50 6 -3 14 -15 27 -25 29 -17 3
-18 1 -6 -13 10 -12 11 -20 3 -28 -12 -12 -35 -1 -26 13 4 7 0 7 -12 0 -11 -5
-27 -12 -37 -15 -15 -5 -16 -9 -5 -26 12 -19 13 -19 26 5 11 22 15 23 35 12
12 -6 27 -19 34 -27 15 -18 17 -54 3 -45 -5 3 -10 2 -10 -4 0 -5 14 -12 31
-16 17 -4 33 -13 36 -21 4 -11 9 -12 19 -3 11 9 14 8 14 -5 0 -9 7 -16 15 -16
9 0 19 -8 22 -17 4 -10 15 -30 26 -44 17 -23 18 -32 7 -63 -6 -19 -9 -40 -6
-45 4 -5 -3 -12 -14 -16 -20 -6 -26 -20 -12 -28 9 -5 -7 -1 -33 8 -14 5 -11 1
7 -12 l26 -18 -19 -42 c-11 -24 -28 -47 -39 -53 -30 -16 -70 -59 -60 -65 5 -3
18 8 29 24 34 48 83 65 167 57 l72 -7 23 48 c22 45 30 125 15 141 -3 3 -17 -1
-31 -8 -40 -21 -71 1 -80 56 -3 24 -2 51 3 61 5 10 8 23 5 29 -2 5 8 21 22 34
22 21 28 22 35 10 7 -11 12 -12 21 -3 16 16 4 30 -31 35 -26 4 -30 1 -30 -18
0 -13 -4 -25 -9 -28 -13 -8 -34 21 -27 39 3 8 1 15 -5 15 -6 0 -7 5 -4 10 3 6
-3 10 -14 10 -12 0 -21 7 -21 16 0 11 6 14 23 9 18 -5 16 -2 -10 20 -18 15
-33 33 -33 41 0 8 -6 14 -12 15 -16 1 -42 4 -88 12 -19 3 -55 1 -79 -4z m159
-59 c0 -5 -4 -10 -9 -10 -6 0 -13 5 -16 10 -3 6 1 10 9 10 9 0 16 -4 16 -10z"/>
<path d="M866 1475 c-55 -73 -79 -146 -74 -230 5 -67 28 -137 59 -178 12 -15
24 -16 92 -11 52 5 74 10 64 16 -33 18 -59 99 -37 113 14 9 12 35 -2 35 -7 0
-34 22 -61 48 -42 42 -48 54 -52 100 -6 55 3 81 38 119 11 13 18 25 15 29 -3
3 -22 -16 -42 -41z"/>
<path d="M1036 1404 c-9 -8 -16 -20 -16 -25 0 -5 -7 -9 -15 -9 -8 0 -15 -5
-15 -10 0 -7 6 -7 20 0 11 6 20 15 20 20 0 6 5 10 11 10 5 0 7 -5 3 -12 -4 -7
-3 -8 4 -4 6 4 8 14 5 23 -6 15 -5 16 9 3 9 -8 13 -19 10 -24 -3 -5 0 -6 6 -2
6 3 10 15 9 26 -2 24 -29 26 -51 4z"/>
<path d="M904 1334 c-7 -29 -1 -39 18 -28 13 9 18 10 39 13 23 2 3 36 -24 38
-21 1 -28 -3 -33 -23z"/>
<path d="M1011 1346 c-20 -11 -21 -14 -7 -19 12 -5 15 -3 10 5 -5 7 -2 9 8 6
9 -4 15 0 15 8 0 8 -1 14 -1 14 -1 -1 -12 -7 -25 -14z"/>
<path d="M944 1298 c-4 -6 1 -17 10 -24 11 -8 13 -14 6 -19 -14 -9 -3 -25 18
-25 13 0 14 2 4 9 -11 7 -11 11 2 24 20 20 20 31 0 23 -8 -3 -13 -2 -10 3 3 5
-1 11 -9 15 -8 3 -17 0 -21 -6z"/>
<path d="M480 713 c0 -48 14 -50 23 -3 4 25 4 25 6 -2 2 -40 20 -44 34 -6 l12
33 6 -35 c6 -33 6 -33 8 13 1 55 -15 62 -31 15 l-12 -33 -8 33 c-13 51 -38 42
-38 -15z"/>
<path d="M590 715 c0 -25 5 -45 10 -45 6 0 10 20 10 45 0 25 -4 45 -10 45 -5
0 -10 -20 -10 -45z"/>
<path d="M623 744 c-4 -11 2 -23 17 -34 15 -11 19 -19 11 -24 -6 -4 -15 -4
-21 -1 -5 3 -10 1 -10 -4 0 -16 36 -13 50 3 9 12 7 18 -9 33 -24 20 -28 38 -6
29 8 -3 15 -1 15 4 0 17 -40 11 -47 -6z"/>
<path d="M691 718 c-1 -27 3 -48 7 -48 4 0 6 17 4 38 -5 58 -10 62 -11 10z"/>
<path d="M730 746 c-28 -35 11 -93 48 -70 35 22 22 84 -18 84 -10 0 -23 -7
-30 -14z m45 -32 c0 -19 -5 -29 -15 -29 -16 0 -25 28 -16 51 10 25 31 10 31
-22z"/>
<path d="M810 715 c0 -51 20 -63 21 -12 l0 32 16 -32 c23 -46 33 -41 32 15 -2
44 -2 45 -8 12 l-6 -35 -14 33 c-20 48 -41 42 -41 -13z"/>
<path d="M900 715 c0 -43 1 -45 28 -44 16 1 20 3 10 6 -10 2 -18 11 -18 19 0
8 8 14 18 15 12 0 10 3 -8 11 -25 11 -25 11 -2 15 30 6 28 23 -3 23 -23 0 -25
-4 -25 -45z"/>
<path d="M969 744 c-11 -14 -10 -18 10 -34 16 -11 20 -20 12 -24 -6 -4 -15 -4
-21 -1 -5 3 -10 1 -10 -4 0 -6 11 -11 25 -11 36 0 44 28 14 51 -21 16 -20 24
4 20 4 0 7 4 7 9 0 16 -26 12 -41 -6z"/>
<path d="M1050 715 c0 -51 20 -63 21 -12 l0 32 16 -32 c9 -18 20 -33 24 -33
11 0 16 42 8 70 -6 23 -7 22 -9 -10 l-1 -35 -16 33 c-24 47 -43 41 -43 -13z"/>
<path d="M1151 729 c-17 -50 -15 -62 9 -47 17 11 22 10 30 -2 15 -25 19 -6 8
38 -12 50 -32 54 -47 11z m29 -10 c0 -11 -4 -18 -10 -14 -5 3 -7 12 -3 20 7
21 13 19 13 -6z"/>
<path d="M1226 739 c-15 -22 -11 -48 8 -61 15 -11 46 -10 46 1 0 5 -7 8 -16 7
-9 0 -21 7 -28 17 -9 15 -7 21 8 32 10 8 23 12 27 9 5 -3 9 0 9 5 0 19 -38 12
-54 -10z"/>
<path d="M1290 715 c0 -25 5 -45 10 -45 6 0 10 20 10 45 0 25 -4 45 -10 45 -5
0 -10 -20 -10 -45z"/>
<path d="M1329 739 c-8 -16 -8 -28 0 -45 19 -42 74 -26 74 21 0 46 -53 63 -74
24z m55 -36 c-6 -9 -15 -18 -21 -20 -17 -6 -26 36 -12 53 11 13 14 13 28 -1
12 -11 13 -20 5 -32z"/>
<path d="M1421 713 c2 -43 2 -45 8 -15 l6 34 18 -31 c25 -43 37 -39 37 14 0
25 -4 45 -10 45 -5 0 -10 -12 -10 -27 l-1 -28 -15 28 c-22 40 -34 33 -33 -20z"/>
<path d="M1511 719 c-13 -42 -7 -65 9 -39 8 12 13 13 30 2 24 -15 26 -3 9 47
-15 43 -33 39 -48 -10z m33 6 c3 -8 1 -15 -4 -15 -6 0 -10 7 -10 15 0 8 2 15
4 15 2 0 6 -7 10 -15z"/>
<path d="M1592 718 c-2 -45 0 -48 23 -48 14 0 25 5 25 10 0 6 -9 10 -19 10
-15 0 -21 8 -24 38 -3 34 -4 33 -5 -10z"/>
<path d="M1650 715 c0 -41 2 -45 25 -45 14 0 25 4 25 10 0 5 -7 7 -15 4 -9 -4
-15 0 -15 9 0 9 8 18 18 20 16 4 16 5 0 6 -10 0 -18 8 -18 17 0 10 6 14 15 10
8 -3 15 -1 15 4 0 6 -11 10 -25 10 -23 0 -25 -4 -25 -45z"/>
<path d="M1723 749 c-14 -14 -6 -39 13 -39 8 0 14 -7 14 -16 0 -11 -6 -14 -21
-9 -15 5 -19 4 -15 -4 11 -17 46 -13 53 5 4 11 -2 23 -18 35 l-24 19 23 0 c13
0 20 4 17 10 -8 13 -28 13 -42 -1z"/>
</g>
</svg>
