<?xml version="1.0" standalone="no"?>
<!DOCTYPE svg PUBLIC "-//W3C//DTD SVG 20010904//EN"
 "http://www.w3.org/TR/2001/REC-SVG-20010904/DTD/svg10.dtd">
<svg version="1.0" xmlns="http://www.w3.org/2000/svg"
 width="225.000000pt" height="225.000000pt" viewBox="0 0 225.000000 225.000000"
 preserveAspectRatio="xMidYMid meet">

<g transform="translate(0.000000,225.000000) scale(0.100000,-0.100000)"
fill="#000000" stroke="none">
<path d="M1020 2084 c-307 -66 -510 -383 -435 -679 20 -81 65 -175 84 -175 13
0 132 30 139 35 2 2 -8 19 -22 39 -75 111 -87 275 -29 399 113 240 407 321
623 170 178 -124 232 -375 120 -555 -16 -26 -26 -49 -22 -52 4 -2 36 -12 70
-21 77 -19 81 -17 116 71 112 279 -12 599 -280 726 -116 54 -240 69 -364 42z
m73 -41 c2 -10 8 -27 13 -37 6 -16 4 -18 -11 -12 -11 4 -22 2 -26 -6 -13 -21
-22 -1 -15 37 7 37 30 47 39 18z m47 -14 c0 -17 4 -28 10 -24 6 3 10 1 10 -4
0 -6 -9 -11 -20 -11 -16 0 -20 7 -20 35 0 19 5 35 10 35 6 0 10 -14 10 -31z
m70 1 c0 -16 5 -30 10 -30 6 0 10 11 10 25 0 14 5 25 10 25 16 0 12 -46 -5
-60 -24 -20 -45 -4 -45 35 0 19 5 35 10 35 6 0 10 -13 10 -30z m-175 -14 c0
-46 -11 -55 -20 -17 -4 17 -12 31 -18 31 -14 0 13 20 28 20 6 0 10 -15 10 -34z
m275 2 c0 6 5 12 11 12 6 0 8 -9 3 -22 -14 -46 -14 -52 1 -20 17 36 25 41 25
14 0 -51 -47 -63 -68 -19 -9 18 -11 19 -11 5 -1 -10 -5 -18 -11 -18 -13 0 -13
10 1 50 l12 33 18 -24 c10 -13 19 -18 19 -11z m-337 5 c-20 -8 -15 -23 7 -23
11 0 20 -7 20 -15 0 -17 -34 -38 -44 -27 -4 4 -12 -1 -17 -11 -6 -9 -18 -17
-28 -17 -11 0 -21 -7 -25 -15 -7 -19 -40 -19 -56 0 -10 12 -10 21 -2 40 7 14
16 25 22 25 14 0 13 -13 -2 -28 -16 -16 4 -37 27 -28 12 4 14 10 5 25 -15 29
-13 39 12 52 18 10 24 8 39 -10 18 -22 49 -29 49 -11 0 6 -9 10 -20 10 -11 0
-20 6 -20 13 0 18 10 27 29 26 10 0 12 -2 4 -6z m440 -45 c8 -22 -13 -48 -38
-48 -33 0 -39 14 -20 50 13 25 19 29 34 20 11 -5 21 -15 24 -22z m51 -27 c7
-10 -16 -71 -26 -71 -4 0 -8 7 -8 16 0 10 -6 14 -14 11 -27 -11 -26 7 1 30 31
25 39 27 47 14z m-650 -55 c-6 -18 -5 -19 9 -8 9 8 18 9 21 4 3 -6 -1 -16 -10
-23 -13 -10 -19 -8 -41 14 -22 22 -24 28 -13 42 18 21 43 0 34 -29z m718 -11
c20 -43 -32 -76 -62 -40 -11 13 -9 20 10 40 29 31 38 31 52 0z m-766 0 c-3 -8
4 -21 16 -29 12 -9 19 -19 15 -22 -4 -4 -15 0 -26 10 -10 9 -22 16 -27 15 -23
-4 -26 3 -9 21 21 23 40 26 31 5z m4 -77 c0 -4 -12 -8 -27 -8 -24 -1 -25 -2
-11 -11 17 -9 17 -12 2 -40 -11 -23 -20 -29 -35 -24 -15 5 -18 2 -16 -14 2
-11 6 -24 10 -27 16 -17 5 -21 -28 -11 -40 12 -43 19 -15 47 11 11 16 20 10
20 -6 0 -5 10 2 25 11 24 30 26 24 2 -1 -7 -1 -9 1 -4 8 14 25 7 19 -8 -3 -8
-1 -15 3 -15 21 0 16 27 -8 47 -26 22 -26 23 -4 29 14 4 20 11 16 22 -5 12 -1
12 25 -4 18 -10 32 -22 32 -26z m808 22 c14 -22 3 -27 -17 -7 -11 10 -12 7 -6
-13 7 -23 7 -24 -10 -10 -17 14 -17 13 -10 -10 l8 -25 -22 20 -23 20 29 22
c34 28 35 28 51 3z m37 -70 c10 -11 15 -23 12 -27 -4 -4 -13 2 -21 12 -15 21
-36 12 -36 -16 0 -11 -4 -17 -10 -14 -16 10 -12 43 8 54 24 14 26 14 47 -9z
m25 -61 c9 -15 8 -24 -1 -35 -9 -11 -8 -14 5 -14 28 0 17 -17 -15 -24 -32 -6
-32 -26 0 -26 26 0 44 -25 36 -50 -4 -12 -15 -20 -29 -20 -28 0 -49 22 -41 42
3 8 1 27 -4 41 -9 24 -8 27 12 28 l22 0 -23 9 c-28 12 -38 36 -22 55 18 21 47
19 60 -6z m-950 -69 c0 -5 -4 -10 -10 -10 -5 0 -7 -13 -3 -30 5 -29 4 -30 -31
-30 -20 0 -36 5 -36 10 0 6 15 10 33 10 l32 1 -32 14 c-43 18 -35 45 13 45 19
0 34 -4 34 -10z m-55 -97 c4 9 15 17 25 17 14 0 18 -12 23 -57 4 -32 9 -69 13
-83 3 -14 8 -35 11 -47 3 -15 -1 -25 -16 -32 -17 -9 -24 -8 -41 9 -11 11 -18
26 -14 32 4 7 11 4 18 -9 13 -23 36 -19 35 5 0 11 -2 12 -6 5 -2 -7 -9 -13
-14 -13 -14 0 -11 27 4 34 6 3 -3 3 -20 0 -41 -7 -44 12 -4 21 38 8 30 35 -10
35 -22 0 -29 5 -29 20 0 11 5 20 10 20 6 0 10 -6 10 -12 0 -9 4 -8 10 2 6 10
10 11 10 3 0 -7 4 -13 10 -13 5 0 8 13 7 30 -2 34 -5 36 -22 13 -15 -20 -35
-9 -34 20 0 21 1 21 9 2 7 -18 8 -19 15 -2z m1030 -24 c4 -6 -1 -16 -10 -23
-17 -12 -17 -13 -1 -19 24 -9 10 -27 -22 -28 l-27 -1 25 -7 c23 -6 26 -12 22
-40 -2 -12 -61 -11 -68 1 -3 5 -3 22 1 38 5 22 13 30 28 31 21 0 21 1 -3 10
-19 8 -21 12 -11 18 7 5 10 14 7 20 -5 7 3 11 23 11 16 0 33 -5 36 -11z m-56
-140 c17 -6 31 -15 31 -20 0 -11 -3 -11 -37 2 l-28 10 25 -25 c29 -31 18 -46
-27 -39 -34 5 -46 23 -17 23 10 0 14 6 10 15 -5 13 1 45 9 45 1 0 16 -5 34
-11z m-879 -44 c0 -5 -55 -35 -65 -35 -14 0 -3 18 18 28 24 11 47 15 47 7z"/>
<path d="M895 1980 c-10 -17 12 -37 25 -24 8 8 6 15 -4 23 -10 9 -16 9 -21 1z"/>
<path d="M1367 1966 c-3 -8 -3 -17 0 -20 9 -9 34 15 27 25 -8 13 -21 11 -27
-5z"/>
<path d="M1490 1865 c-10 -13 -9 -15 9 -15 12 0 21 6 21 15 0 8 -4 15 -9 15
-5 0 -14 -7 -21 -15z"/>
<path d="M655 1700 c3 -5 8 -10 11 -10 2 0 4 5 4 10 0 6 -5 10 -11 10 -5 0 -7
-4 -4 -10z"/>
<path d="M1590 1684 c0 -9 7 -14 17 -12 25 5 28 28 4 28 -12 0 -21 -6 -21 -16z"/>
<path d="M1617 1573 c-13 -12 -7 -23 13 -23 11 0 20 7 20 15 0 15 -21 21 -33
8z"/>
<path d="M1040 1920 c-16 -6 6 -7 57 -4 80 4 83 3 100 -22 15 -24 15 -27 1
-38 -9 -6 -17 -19 -19 -29 -4 -16 -6 -16 -26 -2 -13 9 -23 27 -23 39 0 13 -6
26 -14 29 -20 8 -27 -3 -15 -25 13 -23 2 -41 -20 -33 -9 3 -2 -7 16 -22 17
-15 34 -38 38 -50 5 -18 1 -22 -27 -29 -18 -4 -36 -8 -41 -8 -12 -1 -87 -75
-87 -86 0 -6 5 -10 11 -10 5 0 8 4 4 9 -3 5 4 12 15 16 11 3 20 11 20 16 0 6
3 8 8 5 4 -2 16 3 27 11 16 13 17 15 3 10 -10 -4 -18 -3 -18 2 0 16 61 19 67
4 5 -12 7 -12 14 -1 7 10 9 10 9 1 0 -7 5 -13 10 -13 7 0 7 6 1 18 -7 14 -6
19 4 19 8 0 14 -3 13 -6 0 -3 0 -13 2 -21 1 -11 4 -9 10 5 7 17 9 17 9 3 1
-11 9 -18 21 -18 11 0 23 -7 26 -15 3 -8 14 -17 25 -20 10 -4 19 -13 19 -22 0
-9 6 -21 14 -27 15 -11 20 -43 18 -109 -2 -31 -7 -39 -29 -48 -22 -8 -24 -12
-13 -19 13 -9 13 -10 0 -10 -13 0 -13 -1 0 -10 14 -9 7 -14 -13 -11 -4 1 -2
-8 5 -18 10 -16 9 -23 -4 -38 -8 -10 -18 -30 -22 -45 -3 -15 -15 -30 -26 -33
-21 -7 -80 -64 -80 -77 0 -17 16 -6 35 22 34 52 81 73 160 74 39 1 82 -2 97
-6 23 -7 29 -4 46 25 32 51 49 110 44 153 -6 49 -19 58 -50 33 -26 -20 -44
-16 -73 18 -35 40 -26 156 15 202 20 22 46 28 46 11 0 -13 27 -13 35 0 9 15
-13 39 -33 35 -9 -1 -25 2 -34 6 -14 7 -17 3 -20 -23 -2 -17 -8 -33 -15 -35
-16 -5 -39 37 -25 46 14 8 -8 38 -32 42 -11 2 -20 12 -22 22 -1 10 3 16 9 14
7 -3 11 -9 10 -15 -2 -6 4 -9 12 -6 20 8 19 23 -2 31 -22 8 -52 43 -53 60 0
15 -32 25 -54 17 -9 -3 -16 -1 -16 5 0 13 -131 14 -170 1z m210 -70 c0 -5 -4
-10 -9 -10 -6 0 -13 5 -16 10 -3 6 1 10 9 10 9 0 16 -4 16 -10z m-120 -130 c0
-5 -2 -10 -4 -10 -3 0 -8 5 -11 10 -3 6 -1 10 4 10 6 0 11 -4 11 -10z"/>
<path d="M990 1899 c0 -5 5 -7 10 -4 6 3 10 8 10 11 0 2 -4 4 -10 4 -5 0 -10
-5 -10 -11z"/>
<path d="M1337 1859 c7 -7 15 -10 18 -7 3 3 -2 9 -12 12 -14 6 -15 5 -6 -5z"/>
<path d="M1050 1849 c0 -6 -6 -9 -14 -6 -8 3 -21 0 -30 -6 -13 -11 -13 -14 3
-33 l17 -21 22 38 c13 22 18 39 12 39 -5 0 -10 -5 -10 -11z"/>
<path d="M846 1800 c-125 -133 -142 -339 -41 -492 23 -34 28 -37 57 -30 18 4
61 7 96 7 34 0 62 2 62 4 0 2 -11 12 -24 22 -26 20 -56 72 -56 96 0 7 8 26 17
41 17 26 17 27 -2 12 -13 -10 -16 -11 -11 -2 5 9 1 19 -13 28 -12 8 -21 21
-21 27 -1 7 -20 26 -44 44 -35 25 -45 40 -50 70 -3 21 -4 47 -2 58 3 11 5 30
5 41 1 12 19 44 42 73 22 28 39 51 36 51 -2 0 -25 -23 -51 -50z"/>
<path d="M1094 1755 c-10 -8 -14 -15 -8 -15 6 0 17 7 24 15 16 19 9 19 -16 0z"/>
<path d="M1095 1700 c-3 -5 -1 -10 4 -10 6 0 11 5 11 10 0 6 -2 10 -4 10 -3 0
-8 -4 -11 -10z"/>
<path d="M875 1619 c-9 -38 -3 -44 26 -29 20 11 21 10 17 -14 -4 -18 -1 -26 9
-26 9 0 13 -8 11 -22 -2 -15 2 -23 12 -23 8 0 18 -4 21 -8 3 -5 9 -2 12 6 4
11 0 15 -14 12 -26 -5 -24 11 2 18 12 3 18 10 14 17 -4 6 -15 8 -26 5 -10 -4
-19 -2 -19 4 0 5 8 12 18 14 13 4 11 5 -5 6 -22 1 -34 21 -12 21 6 0 9 10 7
22 -2 17 -11 23 -35 25 -28 2 -32 -1 -38 -28z"/>
<path d="M330 906 c0 -19 -3 -41 -6 -50 -3 -9 -1 -16 5 -16 6 0 11 14 11 30 0
17 4 30 9 30 5 0 11 -13 15 -30 8 -40 20 -38 39 8 l15 37 1 -37 c1 -43 21 -53
21 -10 0 69 -32 100 -45 42 -4 -16 -10 -30 -15 -30 -4 0 -10 14 -13 30 -9 43
-37 40 -37 -4z"/>
<path d="M460 890 c0 -27 5 -50 10 -50 6 0 10 23 10 50 0 28 -4 50 -10 50 -5
0 -10 -22 -10 -50z"/>
<path d="M493 923 c-4 -11 3 -23 20 -37 34 -27 34 -40 2 -34 -14 3 -25 1 -25
-3 0 -5 14 -9 30 -9 44 0 51 27 14 57 -16 12 -23 23 -16 24 26 3 31 4 38 12 4
4 -7 7 -25 7 -20 0 -34 -6 -38 -17z"/>
<path d="M578 890 c5 -65 22 -65 22 0 0 33 -4 50 -12 50 -9 0 -12 -15 -10 -50z"/>
<path d="M620 919 c-27 -49 21 -104 65 -75 43 28 25 96 -25 96 -19 0 -33 -7
-40 -21z m58 -1 c28 -28 -3 -83 -33 -58 -8 7 -15 20 -15 29 0 17 18 41 30 41
3 0 11 -5 18 -12z"/>
<path d="M720 890 c0 -27 5 -50 10 -50 6 0 10 17 10 38 l0 37 22 -37 c31 -54
48 -49 48 12 0 28 -4 50 -10 50 -5 0 -10 -17 -10 -37 l-1 -38 -20 38 c-29 54
-49 49 -49 -13z"/>
<path d="M830 890 l0 -50 33 1 c23 1 26 3 10 6 -28 5 -30 33 -3 33 11 0 20 5
20 10 0 6 -9 10 -20 10 -11 0 -20 5 -20 10 0 9 14 14 33 11 4 0 7 4 7 9 0 6
-13 10 -30 10 -29 0 -30 -1 -30 -50z"/>
<path d="M911 926 c-9 -11 -8 -18 4 -30 9 -9 21 -16 26 -16 5 0 9 -7 9 -16 0
-11 -6 -15 -20 -11 -11 3 -23 1 -26 -5 -4 -5 7 -8 27 -6 26 2 35 8 37 25 2 14
-3 23 -18 28 -24 8 -21 31 4 29 9 -1 16 2 16 7 0 14 -46 10 -59 -5z"/>
<path d="M1010 890 l0 -50 38 1 c31 1 33 2 13 8 -31 8 -40 31 -12 31 12 0 21
5 21 10 0 6 -9 10 -20 10 -11 0 -20 5 -20 10 0 6 9 10 19 10 11 0 23 5 26 10
4 6 -8 10 -29 10 l-36 0 0 -50z"/>
<path d="M1102 915 c8 -19 8 -31 0 -50 -13 -28 2 -35 17 -7 9 16 10 16 16 0 4
-10 14 -18 22 -18 13 0 13 3 -1 25 -15 23 -15 27 0 50 15 23 15 25 0 25 -9 0
-16 -7 -16 -15 0 -8 -4 -15 -9 -15 -5 0 -11 7 -15 15 -3 8 -10 15 -15 15 -7 0
-6 -9 1 -25z"/>
<path d="M1180 930 c0 -5 7 -10 15 -10 11 0 15 -11 15 -40 0 -22 5 -40 10 -40
6 0 10 18 10 40 0 29 4 40 15 40 8 0 15 5 15 10 0 6 -18 10 -40 10 -22 0 -40
-4 -40 -10z"/>
<path d="M1270 891 c0 -28 5 -51 10 -51 6 0 10 9 10 20 0 11 5 20 11 20 6 0
13 -9 16 -20 10 -36 20 -21 19 28 -1 45 -2 47 -33 50 l-33 3 0 -50z m45 19 c0
-7 -6 -15 -12 -17 -8 -3 -13 4 -13 17 0 13 5 20 13 18 6 -3 12 -11 12 -18z"/>
<path d="M1368 890 c-14 -42 -14 -50 -2 -50 8 0 14 5 14 10 0 14 38 12 43 -2
2 -7 8 -10 12 -6 11 10 -20 93 -36 96 -10 2 -20 -14 -31 -48z m42 -2 c0 -5 -4
-8 -10 -8 -5 0 -10 10 -10 23 0 18 2 19 10 7 5 -8 10 -18 10 -22z"/>
<path d="M1460 890 c0 -27 5 -50 10 -50 6 0 10 15 10 33 l0 32 20 -32 c28 -46
40 -41 40 17 0 31 -4 50 -11 50 -8 0 -10 -12 -6 -35 7 -41 -5 -39 -23 5 -20
48 -40 38 -40 -20z"/>
<path d="M1580 897 c0 -35 -4 -47 -17 -50 -12 -3 -9 -5 8 -6 30 -1 37 9 35 58
-2 54 -26 52 -26 -2z"/>
<path d="M1620 890 l0 -50 38 1 c31 1 33 2 13 8 -31 8 -40 31 -12 31 12 0 21
5 21 10 0 6 -9 10 -20 10 -11 0 -20 5 -20 10 0 6 9 10 19 10 11 0 23 5 26 10
4 6 -8 10 -29 10 l-36 0 0 -50z"/>
<path d="M1700 890 c0 -27 5 -50 10 -50 6 0 10 9 10 20 0 11 5 20 11 20 6 0
13 -9 16 -20 3 -11 11 -20 19 -20 10 0 11 6 4 24 -5 14 -5 27 1 33 19 19 -2
43 -37 43 l-34 0 0 -50z m48 23 c-5 -25 -28 -28 -28 -4 0 12 6 21 16 21 9 0
14 -7 12 -17z"/>
<path d="M1802 894 c-7 -26 -10 -49 -6 -53 4 -3 9 0 11 7 5 14 43 16 43 2 0
-5 6 -10 14 -10 12 0 12 8 -2 50 -21 65 -43 67 -60 4z m34 -11 c-11 -11 -19 6
-11 24 8 17 8 17 12 0 3 -10 2 -21 -1 -24z"/>
<path d="M1893 923 c-4 -11 3 -24 22 -39 25 -19 27 -24 13 -29 -10 -4 -22 -4
-28 0 -5 3 -10 2 -10 -3 0 -15 23 -20 48 -11 29 11 28 35 -3 55 -26 17 -26 37
0 27 8 -3 15 0 15 6 0 18 -50 13 -57 -6z"/>
<path d="M0 480 l0 -140 603 0 c331 0 837 -1 1125 -4 l522 -5 0 145 0 144
-1125 0 -1125 0 0 -140z m617 96 c-3 -8 5 -49 17 -90 22 -71 23 -76 6 -76 -10
0 -24 10 -32 22 l-14 22 -22 -22 c-43 -43 -52 -29 -29 46 11 37 27 77 35 90
16 24 48 31 39 8z m-97 -36 c24 -24 24 -29 4 -58 -8 -12 -26 -22 -40 -22 -19
0 -24 -5 -24 -25 0 -16 -6 -25 -15 -25 -12 0 -15 14 -15 68 0 38 3 72 7 75 14
14 64 6 83 -13z m244 14 c22 -8 8 -36 -15 -29 -27 9 -59 -12 -59 -38 0 -28 17
-47 42 -47 22 0 24 16 3 24 -26 10 -16 26 15 26 28 0 30 -2 30 -40 l0 -40 -45
0 c-53 0 -85 25 -85 68 0 55 61 96 114 76z m66 -69 c0 -60 -3 -75 -15 -75 -12
0 -15 15 -15 75 0 60 3 75 15 75 12 0 15 -15 15 -75z m84 28 l25 -48 1 48 c0
35 4 47 15 47 12 0 15 -15 15 -75 0 -66 -2 -75 -18 -75 -12 0 -29 18 -45 48
l-27 47 0 -47 c0 -36 -4 -48 -15 -48 -12 0 -15 15 -15 75 0 68 2 75 20 75 13
0 27 -15 44 -47z m167 -3 c30 -84 32 -100 9 -100 -11 0 -20 6 -20 14 0 8 -6
16 -12 19 -19 6 -38 -3 -38 -19 0 -8 -9 -14 -21 -14 -15 0 -19 5 -15 18 33
117 40 133 60 130 14 -2 26 -17 37 -48z m183 29 c53 -41 23 -132 -44 -132 -67
0 -97 91 -44 132 15 12 34 21 44 21 10 0 29 -9 44 -21z m126 0 c0 -15 -5 -19
-22 -17 -11 2 -23 -3 -25 -9 -3 -8 5 -13 21 -13 16 0 26 -6 26 -15 0 -13 -18
-20 -42 -16 -5 0 -8 -13 -8 -29 0 -23 -4 -30 -20 -30 -18 0 -20 7 -20 75 l0
75 45 0 c39 0 45 -3 45 -21z m50 -54 c0 -66 -2 -75 -18 -75 -17 0 -19 8 -16
73 3 85 0 77 19 77 12 0 15 -15 15 -75z m123 69 c12 -13 -5 -31 -27 -27 -29 6
-48 -18 -44 -54 2 -23 8 -29 35 -31 17 -2 34 -10 37 -18 9 -23 -69 -19 -94 6
-44 44 -6 130 58 130 16 0 31 -3 35 -6z m47 -69 c0 -60 -3 -75 -15 -75 -12 0
-15 15 -15 75 0 60 3 75 15 75 12 0 15 -15 15 -75z m120 6 c25 -83 25 -81 0
-81 -11 0 -20 6 -20 14 0 16 -19 25 -37 19 -7 -3 -13 -11 -13 -19 0 -8 -9 -14
-21 -14 -14 0 -19 5 -16 14 3 8 11 34 17 58 17 61 28 78 50 78 15 0 24 -15 40
-69z m68 7 c3 -52 5 -57 28 -60 43 -5 31 -23 -18 -26 l-48 -3 0 76 c0 67 2 76
18 73 13 -2 18 -15 20 -60z"/>
<path d="M580 491 c0 -12 5 -21 10 -21 6 0 10 6 10 14 0 8 -4 18 -10 21 -5 3
-10 -3 -10 -14z"/>
<path d="M460 510 c0 -15 5 -20 18 -18 9 2 17 10 17 18 0 8 -8 16 -17 18 -13
2 -18 -3 -18 -18z"/>
<path d="M1038 500 c-7 -24 -3 -38 8 -28 3 4 4 17 2 30 l-3 23 -7 -25z"/>
<path d="M1202 518 c-31 -31 0 -105 33 -78 25 21 14 90 -15 90 -3 0 -11 -5
-18 -12z"/>
<path d="M1678 497 c-4 -19 -1 -27 8 -27 15 0 16 6 5 35 -7 17 -8 17 -13 -8z"/>
</g>
</svg>
